<svg width="30" height="30" viewBox="0 0 30 30" fill="none" xmlns="http://www.w3.org/2000/svg">
<path d="M6.0951 5.76732L9.56123 7.29122C8.87398 8.30716 8.51541 9.4725 8.51541 10.6976C8.51541 14.0442 11.2345 16.7932 14.611 16.7932C17.9875 16.7932 20.7066 14.0741 20.7066 10.6976C20.7066 9.50238 20.3481 8.30716 19.6907 7.3211L22.7385 5.88684V11.6837L21.8122 13.6558C21.7525 13.8052 21.7525 13.9546 21.8421 14.0741C21.9317 14.1936 22.0812 14.2833 22.2306 14.2833H23.9935C24.1429 14.2833 24.2923 14.2235 24.3521 14.0741C24.4417 13.9546 24.4417 13.8052 24.3819 13.6558L23.5752 11.6837V5.49839C23.5752 5.25935 23.5453 5.08007 23.127 4.90078C23.0373 4.8709 14.8202 1.22548 14.8202 1.22548C14.7007 1.16572 14.5812 1.16572 14.4616 1.22548L6.0951 4.93066C5.94569 4.99043 5.82617 5.16971 5.82617 5.34899C5.82617 5.52827 5.91581 5.67768 6.0951 5.76732ZM19.7804 10.6976C19.7804 13.5661 17.4497 15.8968 14.5812 15.8968C11.7126 15.8968 9.38195 13.5661 9.38195 10.6976C9.38195 9.59202 9.74051 8.5462 10.368 7.64979L14.4317 9.4725C14.4915 9.50238 14.5513 9.50238 14.611 9.50238C14.6708 9.50238 14.7306 9.50238 14.7903 9.4725L18.7943 7.67967C19.4517 8.57608 19.7804 9.6219 19.7804 10.6976ZM22.9178 13.3868L23.127 12.9386L23.3062 13.3868H22.9178ZM14.6409 2.1219L21.9019 5.34899L14.6409 8.57608L7.37996 5.34899L14.6409 2.1219Z" fill="#1C222B"/>
<path d="M14.7613 17.8691C8.93459 17.8691 4.18359 22.6201 4.18359 28.4468C4.18359 28.6859 4.39276 28.895 4.6318 28.895H24.8908C25.1298 28.895 25.339 28.6859 25.339 28.4468C25.339 22.6201 20.588 17.8691 14.7613 17.8691ZM5.10989 27.9986C5.34893 22.8592 9.59196 18.7656 14.7912 18.7656C19.9904 18.7656 24.2035 22.8891 24.4426 27.9986H5.10989Z" fill="#1C222B"/>
</svg>
