<svg width="30" height="30" viewBox="0 0 30 30" fill="none" xmlns="http://www.w3.org/2000/svg">
<g clip-path="url(#clip0_113_370)">
<path d="M29.6788 7.74468C29.4734 7.20407 29.0779 6.7569 28.5665 6.4869C28.0551 6.21691 27.4628 6.14263 26.9005 6.27796L25.2866 5.29358C24.9863 5.11168 24.649 4.9994 24.2995 4.96501C23.95 4.93061 23.5973 4.97497 23.2673 5.09483L17.3648 7.24265L12.5174 0.394208C12.458 0.310338 12.3728 0.2483 12.2747 0.21764C12.1766 0.186981 12.0712 0.189398 11.9746 0.224521L9.33554 1.18593C9.27763 1.20687 9.22442 1.23903 9.17895 1.28054C9.13347 1.32206 9.09663 1.37213 9.07051 1.42789C9.04439 1.48366 9.02951 1.54402 9.02673 1.60553C9.02395 1.66704 9.03331 1.7285 9.05429 1.7864L11.7768 9.27561L5.90803 11.4108L2.75663 7.8853C2.69434 7.81589 2.61276 7.76664 2.52233 7.74384C2.4319 7.72105 2.33672 7.72574 2.24897 7.75733L0.485066 8.39858C0.427163 8.41953 0.373954 8.45168 0.328479 8.4932C0.283005 8.53472 0.246156 8.58479 0.220038 8.64055C0.193919 8.69631 0.179044 8.75667 0.17626 8.81819C0.173477 8.8797 0.182841 8.94116 0.203816 8.99905L2.76928 16.0458C2.80219 16.1362 2.86213 16.2143 2.94096 16.2695C3.01979 16.3247 3.11369 16.3542 3.20991 16.3542H3.21553L13.1488 16.2323C13.2016 16.2315 13.2539 16.2218 13.3035 16.2037L14.1833 15.8826L16.7483 22.9308C16.7693 22.9887 16.8015 23.042 16.843 23.0875C16.8846 23.133 16.9347 23.1699 16.9905 23.196C17.0463 23.2221 17.1067 23.237 17.1683 23.2397C17.2299 23.2425 17.2914 23.2331 17.3493 23.212L19.9921 22.2497C20.0887 22.2146 20.1711 22.1486 20.2266 22.0621C20.2821 21.9755 20.3076 21.8731 20.2991 21.7706L19.6429 13.8956L28.2773 10.7512C28.5667 10.6458 28.8326 10.4844 29.0597 10.2761C29.2867 10.0679 29.4704 9.81692 29.6004 9.53759C29.7304 9.25826 29.804 8.95604 29.817 8.64824C29.8301 8.34043 29.7823 8.03307 29.6765 7.74374L29.6788 7.74468ZM10.0963 1.9064L11.9591 1.22811L16.4521 7.57499L12.659 8.95499L10.0963 1.9064ZM2.53022 12.6412L1.24585 9.11905L2.2696 8.74686L4.96022 11.7562L2.53022 12.6412ZM17.4693 22.1714L14.2626 13.3589L18.531 11.805L19.3354 21.4894L17.4693 22.1714ZM27.959 9.87187L19.5651 12.9286L19.4146 11.1178C19.4087 11.0459 19.3863 10.9764 19.3491 10.9146C19.312 10.8528 19.2611 10.8005 19.2004 10.7616C19.1397 10.7228 19.0709 10.6984 18.9993 10.6903C18.9277 10.6822 18.8553 10.6905 18.7874 10.7147L13.5018 12.6366C13.4438 12.6575 13.3906 12.6897 13.3451 12.7312C13.2995 12.7728 13.2627 12.8229 13.2365 12.8787C13.2104 12.9345 13.1956 12.9949 13.1928 13.0565C13.1901 13.1181 13.1995 13.1796 13.2205 13.2375L13.8618 14.9991L13.056 15.293L3.53569 15.4097L2.84944 13.522L23.586 5.97515C23.7843 5.90286 23.9963 5.87594 24.2064 5.89638C24.4165 5.91683 24.6194 5.9841 24.8001 6.09327L25.2491 6.36749L23.8729 6.86811L24.193 7.74937L26.2738 6.99233L26.5907 7.18546C26.6502 7.22185 26.7172 7.24447 26.7866 7.25169C26.856 7.25891 26.9262 7.25053 26.9919 7.22718C27.1655 7.16368 27.3499 7.13499 27.5345 7.14275C27.7192 7.1505 27.9005 7.19455 28.0681 7.27238C28.2357 7.35021 28.3864 7.46029 28.5115 7.59634C28.6365 7.73239 28.7336 7.89174 28.7971 8.0653C28.8606 8.23886 28.8893 8.42323 28.8815 8.60788C28.8738 8.79253 28.8297 8.97384 28.7519 9.14146C28.6741 9.30909 28.564 9.45974 28.4279 9.58482C28.2919 9.7099 28.1325 9.80696 27.959 9.87046V9.87187Z" fill="#1C222B"/>
<path d="M21.6716 7.67189L20.791 7.99219L21.1115 8.87322L21.9921 8.55292L21.6716 7.67189Z" fill="#1C222B"/>
<path d="M19.9079 8.31349L19.0273 8.63379L19.3478 9.51482L20.2284 9.19452L19.9079 8.31349Z" fill="#1C222B"/>
<path d="M18.1462 8.95509L17.2656 9.27539L17.5861 10.1564L18.4667 9.83612L18.1462 8.95509Z" fill="#1C222B"/>
<path d="M16.3845 9.59572L15.5039 9.91602L15.8244 10.797L16.705 10.4767L16.3845 9.59572Z" fill="#1C222B"/>
<path d="M14.6228 10.2373L13.7422 10.5576L14.0626 11.4386L14.9432 11.1183L14.6228 10.2373Z" fill="#1C222B"/>
<path d="M12.8611 10.8789L11.9805 11.1992L12.3009 12.0802L13.1815 11.7599L12.8611 10.8789Z" fill="#1C222B"/>
<path d="M11.0993 11.5195L10.2188 11.8398L10.5392 12.7209L11.4198 12.4006L11.0993 11.5195Z" fill="#1C222B"/>
<path d="M9.33791 12.1606L8.45703 12.4814L8.77789 13.3623L9.65877 13.0415L9.33791 12.1606Z" fill="#1C222B"/>
<path d="M7.5762 12.8022L6.69531 13.123L7.01617 14.0039L7.89705 13.6831L7.5762 12.8022Z" fill="#1C222B"/>
<path d="M8.90625 20.625H11.805C11.9156 20.9378 12.1332 21.2014 12.4193 21.3692C12.7054 21.5371 13.0417 21.5983 13.3686 21.5422C13.6956 21.4862 13.9922 21.3163 14.206 21.0627C14.4198 20.809 14.5371 20.488 14.5371 20.1563C14.5371 19.8245 14.4198 19.5035 14.206 19.2499C13.9922 18.9962 13.6956 18.8264 13.3686 18.7703C13.0417 18.7142 12.7054 18.7755 12.4193 18.9433C12.1332 19.1111 11.9156 19.3747 11.805 19.6875H8.90625C8.16033 19.6875 7.44496 19.9838 6.91751 20.5113C6.39007 21.0387 6.09375 21.7541 6.09375 22.5C6.09375 23.2459 6.39007 23.9613 6.91751 24.4887C7.44496 25.0162 8.16033 25.3125 8.90625 25.3125H16.875V24.375H8.90625C8.40897 24.375 7.93206 24.1775 7.58043 23.8258C7.22879 23.4742 7.03125 22.9973 7.03125 22.5C7.03125 22.0027 7.22879 21.5258 7.58043 21.1742C7.93206 20.8225 8.40897 20.625 8.90625 20.625ZM13.125 19.6875C13.2177 19.6875 13.3083 19.715 13.3854 19.7665C13.4625 19.818 13.5226 19.8912 13.5581 19.9769C13.5935 20.0625 13.6028 20.1568 13.5847 20.2477C13.5667 20.3386 13.522 20.4222 13.4565 20.4877C13.3909 20.5533 13.3074 20.5979 13.2164 20.616C13.1255 20.6341 13.0313 20.6248 12.9456 20.5893C12.86 20.5538 12.7868 20.4938 12.7352 20.4167C12.6837 20.3396 12.6562 20.249 12.6562 20.1563C12.6562 20.0319 12.7056 19.9127 12.7935 19.8248C12.8815 19.7369 13.0007 19.6875 13.125 19.6875Z" fill="#1C222B"/>
<path d="M18.75 24.375H17.8125V25.3125H18.75V24.375Z" fill="#1C222B"/>
<path d="M23.6719 24.375H19.6875V25.3125H23.6719C23.9827 25.3125 24.2807 25.436 24.5005 25.6557C24.7203 25.8755 24.8438 26.1736 24.8438 26.4844C24.8438 26.7952 24.7203 27.0932 24.5005 27.313C24.2807 27.5328 23.9827 27.6562 23.6719 27.6562H8.90625V28.5938H23.6719C24.2313 28.5938 24.7678 28.3715 25.1634 27.9759C25.559 27.5803 25.7812 27.0438 25.7812 26.4844C25.7812 25.9249 25.559 25.3884 25.1634 24.9928C24.7678 24.5972 24.2313 24.375 23.6719 24.375Z" fill="#1C222B"/>
<path d="M2.34371 26.7188C2.08566 26.7177 1.83228 26.7877 1.61134 26.921C1.39039 27.0543 1.21039 27.2459 1.09105 27.4747C0.971711 27.7035 0.917631 27.9607 0.934733 28.2182C0.951834 28.4757 1.03946 28.7235 1.18801 28.9345C1.33656 29.1455 1.54031 29.3116 1.77695 29.4145C2.01359 29.5175 2.27399 29.5533 2.52964 29.5181C2.78529 29.4829 3.02632 29.3781 3.22635 29.215C3.42638 29.052 3.57769 28.8371 3.66371 28.5938H7.96871V27.6563H3.66371C3.56711 27.383 3.38845 27.1463 3.15216 26.9785C2.91588 26.8107 2.63352 26.72 2.34371 26.7188ZM2.34371 28.5938C2.251 28.5938 2.16037 28.5663 2.08329 28.5148C2.0062 28.4633 1.94612 28.39 1.91064 28.3044C1.87516 28.2187 1.86588 28.1245 1.88397 28.0336C1.90206 27.9426 1.9467 27.8591 2.01226 27.7936C2.07781 27.728 2.16133 27.6834 2.25226 27.6653C2.34319 27.6472 2.43744 27.6565 2.52309 27.6919C2.60875 27.7274 2.68196 27.7875 2.73346 27.8646C2.78497 27.9417 2.81246 28.0323 2.81246 28.125C2.81246 28.2493 2.76308 28.3686 2.67517 28.4565C2.58726 28.5444 2.46803 28.5938 2.34371 28.5938Z" fill="#1C222B"/>
</g>
<defs>
<clipPath id="clip0_113_370">
<rect width="30" height="30" fill="white"/>
</clipPath>
</defs>
</svg>
