<svg width="30" height="30" viewBox="0 0 30 30" fill="none" xmlns="http://www.w3.org/2000/svg">
<path d="M24.2186 9.94414C24.0729 9.79254 24.0769 9.55017 24.2295 9.40356C24.3811 9.25794 24.6235 9.26193 24.7701 9.41453L24.805 9.45143C24.9506 9.60303 24.9467 9.84541 24.7941 9.99202C24.6425 10.1376 24.4001 10.1336 24.2535 9.98105L24.2186 9.94414ZM5.66011 19.7795H12.8053C12.1849 18.9796 11.7151 18.057 11.4369 17.0556H4.08615C4.12505 17.1823 4.16794 17.307 4.21382 17.4296C4.28762 17.6271 4.18689 17.8465 3.9894 17.9203C3.79192 17.9941 3.5725 17.8934 3.49868 17.6959C3.33711 17.2611 3.21144 16.8063 3.12667 16.3365C3.04388 15.8737 3 15.4019 3 14.9272C3 12.7389 3.88768 10.7561 5.32193 9.32193C6.75617 7.88768 8.73799 7 10.9272 7C12.4163 7 13.8106 7.41093 15.0005 8.12606C16.1914 7.41093 17.5847 7 19.0738 7C19.8896 7 20.6796 7.12467 21.4236 7.35606C22.1926 7.59443 22.9137 7.9485 23.562 8.39434C23.7356 8.51402 23.7794 8.75239 23.6597 8.92494C23.5401 9.09848 23.3017 9.14237 23.1291 9.02268C22.5437 8.61875 21.8934 8.30058 21.1992 8.08513C20.53 7.87768 19.8158 7.76497 19.0738 7.76497C17.858 7.76497 16.712 8.06818 15.7085 8.60379C15.9988 8.82421 16.274 9.06359 16.5314 9.32091C17.9656 10.7552 18.8533 12.737 18.8533 14.9262C18.8533 17.1154 17.9656 19.0973 16.5314 20.5315C16.2741 20.7888 15.9988 21.0282 15.7085 21.2486C16.7119 21.7842 17.8579 22.0874 19.0738 22.0874C21.0516 22.0874 22.842 21.2855 24.1375 19.9899C25.433 18.6943 26.235 16.904 26.235 14.9262C26.235 14.232 26.1372 13.5638 25.9567 12.9374C25.7682 12.2861 25.489 11.6697 25.1329 11.1072C25.0212 10.9286 25.074 10.6923 25.2526 10.5806C25.4311 10.4688 25.6675 10.5217 25.7792 10.7002C26.1712 11.3206 26.4804 12.0018 26.6888 12.7249C26.8913 13.4271 27 14.1662 27 14.9262C27 17.1144 26.1123 19.0973 24.6781 20.5314C23.2438 21.9657 21.262 22.8534 19.0728 22.8534C17.5837 22.8534 16.1894 22.4424 14.9995 21.7273C13.8086 22.4424 12.4153 22.8534 10.9262 22.8534C9.56579 22.8534 8.28406 22.5093 7.16418 21.9038C6.00222 21.2755 5.01381 20.3669 4.29375 19.2688C4.17805 19.0923 4.22792 18.8549 4.40446 18.7392C4.58099 18.6235 4.81838 18.6734 4.93407 18.8499C5.1505 19.1791 5.39387 19.4903 5.65915 19.7795L5.66011 19.7795ZM13.4827 20.5455H6.48611C6.81124 20.8038 7.15934 21.0332 7.52737 21.2317C8.53771 21.7782 9.69668 22.0884 10.9274 22.0884C12.1432 22.0884 13.2892 21.7852 14.2926 21.2496C14.0064 21.0332 13.736 20.7978 13.4827 20.5455ZM3.89373 16.2896H11.2644C11.1876 15.8468 11.1477 15.392 11.1477 14.9282C11.1477 14.4634 11.1876 14.0086 11.2644 13.5658H3.89578C3.811 14.0066 3.76612 14.4624 3.76612 14.9282C3.76612 15.3691 3.80402 15.7949 3.87782 16.2029L3.89373 16.2896ZM4.08822 12.7998H11.4369C11.7152 11.7984 12.1859 10.8758 12.8063 10.0759H5.66114C4.95101 10.8469 4.40739 11.7744 4.08822 12.7998ZM6.48693 9.3099H13.4825C13.7358 9.05756 14.0071 8.82217 14.2924 8.60575C13.289 8.07014 12.143 7.76694 10.9271 7.76694C9.2505 7.76694 7.70764 8.34343 6.48665 9.3099H6.48693ZM15.0007 20.8187C15.3547 20.5733 15.6869 20.296 15.9901 19.9918C17.2857 18.6962 18.0876 16.9059 18.0876 14.9281C18.0876 12.9503 17.2857 11.161 15.9901 9.8644C15.6859 9.5602 15.3547 9.28394 15.0007 9.03757C14.6466 9.28292 14.3145 9.5602 14.0113 9.8644C12.7157 11.16 11.9138 12.9503 11.9138 14.9281C11.9138 16.9059 12.7157 18.6953 14.0113 19.9918C14.3155 20.296 14.6466 20.5723 15.0007 20.8187Z" fill="#1C222B"/>
</svg>
