<svg width="30" height="30" viewBox="0 0 30 30" fill="none" xmlns="http://www.w3.org/2000/svg">
<path d="M23.9071 12.1917V24.7177C23.915 24.8668 23.8636 25.0131 23.7641 25.1245C23.6646 25.236 23.5251 25.3036 23.376 25.3125H6.62564C6.47652 25.3036 6.33699 25.236 6.23749 25.1245C6.13799 25.0131 6.08661 24.8668 6.09455 24.7177V12.1875" stroke="#4EAC4C" stroke-miterlimit="10"/>
<path d="M8.58937 16.4062H12.9731C13.1377 16.4063 13.2956 16.4682 13.412 16.5785C13.5284 16.6887 13.5938 16.8383 13.5938 16.9942V24.8438H7.96875V16.9942C7.96875 16.8383 8.03414 16.6887 8.15053 16.5785C8.26692 16.4682 8.42477 16.4063 8.58937 16.4062Z" stroke="#4EAC4C" stroke-miterlimit="10"/>
<path d="M11.25 21.0938H12.1875" stroke="#4EAC4C" stroke-linecap="round" stroke-linejoin="round"/>
<path d="M24.8052 9.375H5.19361C5.11057 9.37518 5.02874 9.35519 4.95513 9.31676C4.88153 9.27832 4.81836 9.22259 4.77105 9.15435C4.72375 9.08611 4.69372 9.00741 4.68355 8.925C4.67338 8.84259 4.68337 8.75894 4.71267 8.68125L5.73736 5.94938C5.90134 5.6673 6.02832 5.36529 6.11517 5.05078C6.14305 4.94742 6.20393 4.856 6.28854 4.79043C6.37316 4.72485 6.47688 4.68871 6.58392 4.6875H23.412C23.5191 4.68871 23.6228 4.72485 23.7074 4.79043C23.792 4.856 23.8529 4.94742 23.8808 5.05078C23.9676 5.36529 24.0946 5.6673 24.2586 5.94938L25.2833 8.68125C25.3124 8.75872 25.3223 8.84208 25.3122 8.92423C25.3022 9.00637 25.2724 9.08486 25.2254 9.153C25.1785 9.22114 25.1157 9.27692 25.0425 9.31557C24.9694 9.35423 24.8879 9.37462 24.8052 9.375Z" stroke="#4EAC4C" stroke-miterlimit="10"/>
<path d="M4.6875 9.375H25.3125V11.25C25.3125 11.4986 25.2137 11.7371 25.0379 11.9129C24.8621 12.0887 24.6236 12.1875 24.375 12.1875H5.625C5.37636 12.1875 5.1379 12.0887 4.96209 11.9129C4.78627 11.7371 4.6875 11.4986 4.6875 11.25V9.375Z" stroke="#4EAC4C" stroke-miterlimit="10"/>
<path d="M8 10.4004V11.4004" stroke="#4EAC4C" stroke-miterlimit="10"/>
<path d="M11 10.4004V11.4004" stroke="#4EAC4C" stroke-miterlimit="10"/>
<path d="M15 10.4004V11.4004" stroke="#4EAC4C" stroke-miterlimit="10"/>
<path d="M19 10.4004V11.4004" stroke="#4EAC4C" stroke-miterlimit="10"/>
<path d="M22 10.4004V11.4004" stroke="#4EAC4C" stroke-miterlimit="10"/>
</svg>
