<svg width="30" height="30" viewBox="0 0 30 30" fill="none" xmlns="http://www.w3.org/2000/svg">
<path fill-rule="evenodd" clip-rule="evenodd" d="M12.0182 14.7236C12.6269 14.7236 13.122 14.2285 13.122 13.6198C13.122 13.0112 12.6269 12.5161 12.0182 12.5161C11.4096 12.5161 10.9145 13.0112 10.9145 13.6198C10.9145 14.2282 11.4096 14.7236 12.0182 14.7236ZM12.0182 13.2899C12.2 13.2899 12.3479 13.4378 12.3479 13.6196C12.3479 13.8014 12.2 13.9492 12.0182 13.9492C11.8364 13.9492 11.6886 13.8014 11.6886 13.6196C11.6886 13.4378 11.8364 13.2899 12.0182 13.2899ZM11.1245 16.3343C11.9484 16.8099 12.9489 16.8325 13.7884 16.4073L15.5316 17.4138C15.6262 17.4683 15.7397 17.4805 15.8436 17.447L16.3218 17.2931L16.4277 17.7843C16.4506 17.891 16.5178 17.9832 16.6127 18.038C16.7073 18.0925 16.8206 18.1047 16.9246 18.0712L17.4029 17.9173L17.5088 18.4085C17.5317 18.5154 17.5989 18.6074 17.6938 18.6622L18.0613 18.8743C18.1206 18.9086 18.1875 18.9262 18.255 18.9262C18.284 18.9262 18.313 18.923 18.3417 18.9165L19.9748 18.541C20.0794 18.517 20.1695 18.4503 20.2233 18.3573C20.277 18.2643 20.2897 18.1531 20.258 18.0504L19.7666 16.4476C19.7379 16.354 19.6749 16.2747 19.5901 16.2257L15.3174 13.7587C15.266 12.8191 14.7461 11.9638 13.9225 11.4882C12.5866 10.717 10.8721 11.1762 10.1006 12.5121C9.32908 13.8483 9.7886 15.5628 11.1245 16.3343ZM10.7709 12.8994C11.3287 11.9332 12.5687 11.601 13.5351 12.1588C14.1807 12.5316 14.5683 13.2267 14.5464 13.9726C14.5422 14.1149 14.6165 14.248 14.7398 14.3191L19.071 16.8199L19.3959 17.8788L18.3164 18.1271L18.2294 18.0767L18.0698 17.3358C18.0468 17.2288 17.9797 17.1369 17.8848 17.0821C17.7902 17.0275 17.6769 17.0154 17.5728 17.0489L17.0946 17.2027L16.9887 16.7116C16.9658 16.6049 16.8986 16.5127 16.8037 16.4579C16.7091 16.4033 16.5958 16.3912 16.4917 16.4247L15.77 16.6568L13.9852 15.6263C13.8619 15.5551 13.7096 15.5573 13.5884 15.6321C12.9531 16.0242 12.1574 16.036 11.5118 15.6634C10.5453 15.1059 10.2131 13.8657 10.7709 12.8994ZM19.0099 20.1251L15.119 21.1835C14.993 21.2178 14.8692 21.2391 14.7459 21.2475C14.7949 21.1869 14.8405 21.1205 14.8818 21.0489C15.2468 20.417 15.0336 19.5984 14.3967 19.1855C14.382 19.176 14.367 19.1676 14.3512 19.1602C13.4366 18.7294 12.5774 18.1305 11.8868 17.6493C11.6457 17.4812 11.4177 17.3224 11.2212 17.1948C10.4083 16.6673 9.51642 16.8072 8.75098 17.0135L5.93482 17.7727L5.8592 17.4805C5.73484 16.9998 5.2429 16.7103 4.7623 16.8346L3.67462 17.116C3.19428 17.2404 2.90445 17.7323 3.02881 18.2129L4.49091 23.8621C4.55098 24.0943 4.69827 24.2895 4.9059 24.4118C5.0466 24.4945 5.20312 24.5369 5.36174 24.5369C5.43709 24.5369 5.51298 24.5274 5.58781 24.5079L6.67549 24.2265C6.90762 24.1665 7.10287 24.0192 7.22512 23.8115C7.34738 23.6039 7.38164 23.3618 7.3213 23.1296L7.16057 22.5091L7.7139 22.3608L11.6873 24.6547C12.1294 24.91 12.6005 25.0389 13.0788 25.0389C13.3428 25.0389 13.6089 24.9996 13.8737 24.9206L20.9895 22.7961C21.6767 22.5908 22.1098 21.7284 21.8982 20.9867C21.7963 20.6283 21.2856 19.5061 19.0099 20.1251ZM6.55797 23.4189C6.54796 23.4358 6.52477 23.4661 6.48156 23.4772L5.39388 23.7586C5.35067 23.7696 5.31563 23.7546 5.29876 23.7446C5.2819 23.7346 5.2516 23.7114 5.24053 23.6682L3.77844 18.0188C3.76131 17.9526 3.80268 17.8823 3.86881 17.8651L4.95623 17.5837C4.96703 17.5808 4.97731 17.5798 4.98706 17.5798C5.01578 17.5798 5.0387 17.5901 5.05161 17.5977C5.06847 17.6077 5.09878 17.6309 5.10984 17.6741L6.57167 23.3236C6.583 23.3668 6.56799 23.4018 6.55797 23.4189ZM20.7681 22.0546L13.6524 24.1791C13.1093 24.3412 12.5787 24.2758 12.0744 23.9847L7.96236 21.6104C7.87357 21.559 7.76791 21.5453 7.66857 21.5716L6.96664 21.7598L6.12875 18.522L8.95255 17.7608C9.58334 17.5909 10.2436 17.4831 10.7999 17.8441C10.9856 17.9645 11.198 18.1126 11.4441 18.2841C12.1521 18.7776 13.0313 19.3905 13.9949 19.8479C14.2758 20.0423 14.3693 20.3883 14.2115 20.6618C14.0539 20.9348 13.8057 21.017 13.4732 20.9063C12.9552 20.6531 11.6017 19.8453 11.3756 19.7146C11.1904 19.6076 10.9537 19.6711 10.8468 19.8563C10.7398 20.0416 10.8033 20.2782 10.9885 20.3851C11.2099 20.5129 13.3828 21.721 13.4922 21.7698C14.1085 22.0454 14.7071 22.0978 15.3221 21.9305L19.213 20.8721C20.2707 20.5843 21.0142 20.7098 21.1539 21.1993C21.2485 21.5308 21.0503 21.9703 20.7681 22.0546ZM4.92777 18.4164C4.90538 18.6079 4.732 18.7449 4.54044 18.7225C4.34889 18.7001 4.21187 18.5268 4.23427 18.3352C4.25667 18.1437 4.43004 18.0066 4.6216 18.029C4.81315 18.0514 4.95017 18.2248 4.92777 18.4164ZM26.9712 11.8263L25.5094 6.17681C25.385 5.69621 24.8931 5.40637 24.4125 5.531L23.325 5.81241C23.0929 5.87248 22.8977 6.01977 22.7754 6.2274C22.6531 6.43503 22.6189 6.67717 22.6792 6.90931L22.8397 7.52982L22.2864 7.67817L18.313 5.38424C17.6271 4.98822 16.8709 4.89599 16.1263 5.11838L9.01052 7.24288C8.32334 7.44814 7.89017 8.31054 8.10175 9.05226C8.20398 9.41086 8.71462 10.5333 10.9904 9.91413L14.8813 8.85569C15.0072 8.82144 15.1311 8.8001 15.2544 8.79167C15.2054 8.85227 15.1598 8.91867 15.1184 8.99034C14.7535 9.62244 14.9667 10.4408 15.6035 10.8537C15.6183 10.8632 15.6333 10.8716 15.6491 10.879C16.5637 11.3098 17.4229 11.9087 18.1132 12.3899C18.3546 12.558 18.5823 12.7168 18.7788 12.8444C19.197 13.1155 19.6359 13.2104 20.0678 13.2104C20.4757 13.2104 20.8772 13.1258 21.249 13.0257L24.0652 12.2665L24.1408 12.5588C24.2457 12.964 24.6119 13.2335 25.0124 13.2335C25.0867 13.2335 25.1623 13.2243 25.2377 13.2048L26.3254 12.9234C26.8057 12.7988 27.0956 12.3069 26.9712 11.8263ZM21.0474 12.2781C20.4167 12.4481 19.7564 12.5559 19.2001 12.1949C19.0144 12.0745 18.802 11.9264 18.5559 11.7549C17.8482 11.2613 16.9687 10.6485 16.0051 10.1911C15.7242 9.9966 15.6309 9.65064 15.7888 9.37714C15.9463 9.10416 16.1945 9.02196 16.527 9.13262C17.0451 9.38583 18.3986 10.1937 18.6247 10.3244C18.8099 10.4311 19.0465 10.3679 19.1535 10.1826C19.2605 9.99739 19.197 9.76078 19.0117 9.6538C18.7904 9.52601 16.6172 8.31791 16.5081 8.26917C15.8918 7.99356 15.2931 7.94113 14.6781 8.10844L10.7872 9.16687C9.72958 9.4546 8.98602 9.32918 8.84637 8.83962C8.75177 8.50815 8.95018 8.06865 9.23211 7.98434L16.3479 5.85983C16.8909 5.69779 17.4219 5.76313 17.9259 6.05429L22.0382 8.42858C22.1272 8.47996 22.2329 8.49366 22.3319 8.46731L23.0336 8.27918L23.8715 11.5169L21.0474 12.2781ZM26.1314 12.1738L25.0438 12.4552C25.0006 12.4665 24.9655 12.4513 24.9487 12.4412C24.9318 12.4312 24.9015 12.408 24.8904 12.3648L23.4286 6.71538C23.4175 6.67217 23.4325 6.63712 23.4426 6.62026C23.4526 6.6034 23.4758 6.5731 23.519 6.56203L24.6064 6.28062C24.6725 6.2635 24.7429 6.30487 24.76 6.371L26.2218 12.0204C26.239 12.0863 26.1976 12.1567 26.1314 12.1738ZM25.7657 11.7037C25.7433 11.8953 25.57 12.0323 25.3784 12.0099C25.1868 11.9875 25.0498 11.8141 25.0722 11.6226C25.0946 11.431 25.268 11.294 25.4596 11.3164C25.6511 11.3391 25.7881 11.5124 25.7657 11.7037Z" fill="#1C222B"/>
</svg>
