<svg width="30" height="30" viewBox="0 0 30 30" fill="none" xmlns="http://www.w3.org/2000/svg">
<path d="M14.9084 12.2808C12.4559 12.2607 11.2733 15.4493 13.1497 17.0538C14.8234 18.5787 17.6367 17.3009 17.5951 14.9989C17.5952 13.5001 16.3919 12.2808 14.9084 12.2808ZM14.9093 17.0132C12.2758 16.9351 12.2647 13.0733 14.9127 12.985C17.5466 13.0695 17.5415 16.9429 14.9093 17.0132ZM18.548 19.8266L19.6885 18.6771C19.9149 18.4395 19.9332 18.0661 19.7287 17.8044L19.0834 17.0005C19.1513 16.8589 19.2104 16.7165 19.2636 16.5625L20.278 16.459C20.6058 16.4287 20.8627 16.143 20.8627 15.8091V14.193C20.8627 13.8519 20.6065 13.5665 20.278 13.5393L19.2629 13.43C19.2109 13.2814 19.1517 13.1363 19.0861 12.9954L19.7314 12.1938C19.9372 11.9308 19.9173 11.5543 19.6834 11.3153L18.5534 10.1806C18.3236 9.93854 17.9416 9.91722 17.6858 10.1301L16.8938 10.7799C16.7512 10.7115 16.6058 10.6507 16.4585 10.5977L16.3506 9.56546C16.3131 9.22918 16.0417 8.98539 15.7054 8.98539H14.1134C13.7824 8.98539 13.5049 9.23468 13.4681 9.56787L13.362 10.5974C13.2139 10.6503 13.0686 10.7112 12.927 10.7796L12.1316 10.1321C11.8741 9.91688 11.5022 9.93579 11.2667 10.1755L10.134 11.317C9.90144 11.5536 9.88217 11.9404 10.0904 12.1983L10.735 12.9947C10.6714 13.1298 10.6119 13.2742 10.5558 13.43L9.54856 13.5386C9.2163 13.562 8.95603 13.8495 8.95603 14.193V15.8091C8.95603 16.143 9.21291 16.4287 9.5374 16.4586L10.5555 16.5628C10.6065 16.7038 10.6669 16.8569 10.7363 17.0022L10.0904 17.8038C9.88285 18.0606 9.90009 18.4364 10.134 18.6809L11.1845 19.7465C11.4212 20.036 11.8389 20.1217 12.1262 19.874L12.928 19.2187C13.0642 19.284 13.2082 19.3445 13.3616 19.4006L13.4684 20.4294C13.5056 20.7643 13.7828 21.0167 14.1134 21.0167H15.7054C16.0359 21.0167 16.3131 20.7643 16.3506 20.4273L16.4588 19.4006C16.6119 19.3442 16.7562 19.2837 16.8931 19.2183L17.6834 19.8696C17.941 20.0848 18.3233 20.0639 18.548 19.8266ZM16.0319 18.8046C15.9018 18.8473 15.8085 18.9642 15.7939 19.1025L15.6665 20.3125H14.1522L14.0285 19.1049C14.0147 18.9653 13.9207 18.847 13.7889 18.8044C13.3904 18.743 12.9924 18.2892 12.667 18.5278L11.7257 19.2985L10.6545 18.2147L11.4147 17.2715C11.5879 17.071 11.4281 16.8387 11.3346 16.6433C11.1779 16.3837 11.2052 15.9327 10.8462 15.8847L9.64827 15.7623V14.236L10.8479 14.1063C10.9837 14.0919 11.0983 13.9973 11.1406 13.865C11.2061 13.4495 11.6552 13.0591 11.4144 12.7261L10.6528 11.7854L11.7263 10.7036L12.6677 11.4707C12.7762 11.5601 12.9266 11.5729 13.049 11.5061C13.3339 11.2734 13.9711 11.3044 14.0286 10.8965L14.1516 9.68959H15.6672L15.7939 10.8989C15.8088 11.0406 15.9055 11.1589 16.0397 11.1994C16.3989 11.2377 16.8258 11.7107 17.1551 11.4705L18.089 10.7039L19.1656 11.785L18.4074 12.7268C18.1668 13.0686 18.6314 13.4807 18.6723 13.8577C18.7126 13.9936 18.8289 14.0916 18.9675 14.1063L20.1705 14.236V15.762L18.9695 15.8847C18.6167 15.9197 18.6336 16.4044 18.4902 16.6302C18.3984 16.8292 18.2323 17.0677 18.4071 17.2711L19.1642 18.2147L18.0893 19.2978L17.1558 18.5282C16.826 18.289 16.4282 18.744 16.0319 18.8046ZM5.20617 12.0006C6.18537 8.76154 8.67176 6.22187 11.8575 5.20717C12.2923 5.06935 12.4928 5.74278 12.0644 5.87905C9.0963 6.82464 6.77993 9.19032 5.86799 12.2076C5.73231 12.6464 5.07438 12.4416 5.20617 12.0006ZM17.9633 5.20717C21.1487 6.22531 23.634 8.76498 24.6119 12.0006C24.668 12.1866 24.5653 12.3837 24.3827 12.4407C24.2048 12.4976 24.006 12.395 23.9501 12.2076C23.0395 9.19342 20.7238 6.82773 17.7557 5.87905C17.3233 5.73756 17.5322 5.07249 17.9633 5.20717ZM12.0644 24.1371C12.4405 24.2527 12.3451 24.8302 11.9609 24.8252C8.79476 23.9043 6.28602 21.3561 5.26092 18.1892C5.12048 17.7492 5.77951 17.5357 5.91869 17.9705C6.86342 20.907 9.16086 23.2122 12.0644 24.1371ZM17.7557 24.1371C20.6619 23.2084 22.9587 20.9029 23.8994 17.9705C24.0418 17.5307 24.6945 17.7532 24.5571 18.1892C23.5364 21.3515 21.0285 23.9004 17.8595 24.8251C17.4727 24.8319 17.3832 24.2507 17.7557 24.1371ZM13.2166 7.13513H16.6031C16.7944 7.13513 16.9492 6.97765 16.9492 6.78303V3.3521C16.9492 3.15748 16.7944 3 16.6031 3H13.2166C13.0253 3 12.8705 3.15748 12.8705 3.3521V6.78303C12.8705 6.97765 13.0253 7.13513 13.2166 7.13513ZM13.5627 3.7042H16.257V6.43093H13.5627V3.7042ZM26.9529 16.6515L25.0057 13.2209C24.882 13.0029 24.5298 13.0029 24.406 13.2209L22.4591 16.6515C22.3973 16.7605 22.3973 16.8946 22.4591 17.0036C22.521 17.1126 22.6352 17.1797 22.7589 17.1797H26.6531C26.911 17.1877 27.0893 16.875 26.9529 16.6515ZM23.3586 16.4755L24.7059 14.1012L26.0535 16.4755H23.3586ZM14.9077 22.8257C12.1962 22.9134 12.1969 26.9127 14.9077 27C17.6191 26.9123 17.6185 22.9129 14.9077 22.8257ZM14.9077 26.2958C13.1111 26.2378 13.1115 23.5876 14.9077 23.5299C16.7043 23.5878 16.7039 26.2381 14.9077 26.2958ZM3.86055 15.688L3.68209 16.7471C3.65978 16.8791 3.71318 17.0126 3.81966 17.0913C3.9268 17.1704 4.06775 17.1807 4.18437 17.1181L5.11896 16.6182L6.05355 17.1181C6.17004 17.1805 6.31111 17.1705 6.41826 17.0913C6.52474 17.0126 6.57814 16.8791 6.55583 16.7471L6.37736 15.688L7.13383 14.9381C7.22813 14.8446 7.26193 14.7046 7.22137 14.5771C7.18047 14.4498 7.07231 14.357 6.94184 14.3377L5.89672 14.1834L5.42925 13.2199C5.31298 12.9792 4.92494 12.9792 4.80867 13.2199L4.3412 14.1834L3.29642 14.3377C3.16595 14.357 3.05778 14.4498 3.01689 14.5771C2.97632 14.7046 3.01013 14.8446 3.10443 14.9381L3.86055 15.688ZM4.62073 14.8535C4.89258 14.835 4.99842 14.3671 5.11896 14.1713C5.2398 14.3676 5.34509 14.8347 5.61718 14.8535L6.14819 14.9319L5.76388 15.3132C5.55507 15.491 5.73946 15.9324 5.75509 16.1629C5.63899 16.1143 5.2463 15.8526 5.11896 15.8682C4.99373 15.8515 4.59598 16.1156 4.48283 16.1629L4.57341 15.6248C4.63966 15.3557 4.23604 15.1096 4.08972 14.9319L4.62073 14.8535Z" fill="#1C222B"/>
</svg>
