<svg width="30" height="30" viewBox="0 0 30 30" fill="none" xmlns="http://www.w3.org/2000/svg">
<path d="M26.6602 17.2579C26.03 16.5888 24.9902 16.4869 24.2398 17.0177L20.1948 19.8827C19.9136 20.0807 19.6183 20.2424 19.3079 20.369C19.4538 20.1077 19.5378 19.8112 19.5378 19.4925C19.5378 18.5082 18.7395 17.7079 17.7604 17.7079H15.0715C14.6713 17.7079 14.2826 17.6481 13.9185 17.5274C12.7351 17.1372 9.79887 16.4178 8.11355 18.1098L6.71194 19.5171L6.6851 19.3976C6.58707 18.93 6.12609 18.6324 5.66277 18.732L3.6823 19.1609C3.45473 19.2089 3.26099 19.3436 3.13847 19.5358C3.01243 19.7303 2.97158 19.9623 3.01943 20.1897L4.33117 26.3157C4.37902 26.5407 4.51323 26.7352 4.70812 26.8618C4.84816 26.952 5.01038 27 5.17144 27C5.23446 27 5.29748 26.9942 5.357 26.9789L7.33746 26.5501C7.80311 26.4516 8.09954 25.9888 7.99799 25.5213L7.93497 25.2271H17.913C18.8093 25.2271 19.6823 24.9061 20.3661 24.3237L26.5618 19.0625C26.8244 18.8375 26.9796 18.5258 26.9983 18.1836C27.0158 17.8392 26.8968 17.5122 26.661 17.2603L26.6602 17.2579ZM7.21024 25.9631L5.22977 26.392C5.16092 26.4072 5.08973 26.3955 5.02904 26.3557C4.96952 26.317 4.92751 26.2573 4.91234 26.1881L3.6006 20.0621C3.58542 19.9929 3.6006 19.9214 3.63911 19.8605C3.67529 19.8008 3.73481 19.7586 3.80599 19.7433L5.78413 19.3168C5.93001 19.284 6.07122 19.3766 6.1004 19.5207L7.41214 25.6432C7.44248 25.7873 7.35262 25.9279 7.20907 25.9607L7.21024 25.9631ZM26.1756 18.6021L19.9763 23.8669C19.4021 24.3555 18.6681 24.6262 17.9118 24.6262L7.80531 24.625L6.86116 20.2157C7.03388 20.0423 7.46218 19.6123 8.53471 18.5354C9.99001 17.0742 12.6543 17.7433 13.7326 18.0972C14.1574 18.2354 14.6079 18.3069 15.0712 18.3069H17.76C18.4112 18.3069 18.9399 18.8377 18.9399 19.4916C18.9399 20.1454 18.4322 20.6528 17.7985 20.6739C17.7624 20.6774 17.7273 20.6797 17.6935 20.6797H14.0931C13.9286 20.6797 13.7944 20.8145 13.7944 20.9797C13.7944 21.1449 13.9286 21.2797 14.0931 21.2797H17.7589C17.8185 21.2797 17.8815 21.2762 17.941 21.2703C18.8735 21.2223 19.7662 20.9164 20.5377 20.3739L24.5862 17.5066C25.0938 17.1469 25.7987 17.2183 26.2259 17.6718C26.3484 17.8007 26.4114 17.9683 26.3986 18.1487C26.3893 18.3256 26.3087 18.4873 26.1745 18.6022L26.1756 18.6021Z" fill="#1C222B"/>
<path d="M13.9474 5.80523C15.0771 4.40379 16.753 3.59995 18.5478 3.59995C21.7771 3.59995 24.4062 6.21536 24.4576 9.44583H24.0398C23.9324 9.44583 23.8332 9.50325 23.7796 9.59582C23.7259 9.68839 23.7259 9.80322 23.7796 9.89579L24.5031 11.1531C24.5568 11.2457 24.656 11.3031 24.7634 11.3031C24.8707 11.3031 24.9664 11.2457 25.0201 11.1531L25.7437 9.89579C25.7974 9.80322 25.7974 9.68839 25.7437 9.59582C25.69 9.50325 25.5908 9.44583 25.4834 9.44583H25.0586C25.0073 5.88244 22.1072 3 18.5489 3C16.5743 3 14.728 3.88468 13.4816 5.42673C13.3801 5.55562 13.3976 5.74428 13.526 5.84975C13.6543 5.95521 13.8424 5.93413 13.9474 5.80523Z" fill="#1C222B"/>
<path d="M11.6112 9.62984H12.0383C12.0861 13.1932 14.9874 16.0793 18.548 16.0793C20.5227 16.0793 22.3689 15.1911 23.6117 13.649C23.7168 13.5201 23.6958 13.3314 23.5674 13.226C23.439 13.124 23.2511 13.1416 23.1496 13.2705C22.0176 14.6743 20.3417 15.4781 18.5493 15.4781C15.3167 15.4781 12.6873 12.8627 12.6395 9.62865H13.0572C13.1646 9.62865 13.2638 9.57123 13.314 9.47866C13.3677 9.38609 13.3677 9.27126 13.314 9.17869L12.5939 7.92489C12.4866 7.73858 12.182 7.73858 12.0746 7.92489L11.351 9.17869C11.2997 9.27126 11.2997 9.38609 11.351 9.47866C11.4047 9.57123 11.5039 9.62865 11.6113 9.62865L11.6112 9.62984Z" fill="#1C222B"/>
<path d="M15.2979 11.6955C15.2979 12.2321 15.4297 12.6223 15.7017 12.8836C16.0366 13.2047 16.5174 13.2762 17.0846 13.2762C17.297 13.2762 17.5176 13.2644 17.751 13.2551C18.2586 13.234 18.8387 13.234 19.3463 13.2551C20.1983 13.2914 20.9358 13.3242 21.3956 12.8836C21.6641 12.6223 21.7994 12.2321 21.7994 11.6954C21.7994 10.4745 21.1272 9.40932 20.1353 8.84921C20.4433 8.4836 20.6313 8.01255 20.6313 7.49582C20.6313 6.34044 19.6965 5.40186 18.5492 5.40186C17.4021 5.40186 16.4637 6.34044 16.4637 7.49582C16.4637 8.01141 16.6516 8.48246 16.9632 8.84921C15.9713 9.41049 15.299 10.4756 15.299 11.6954L15.2979 11.6955ZM18.5481 6.00286C19.3662 6.00286 20.0326 6.67195 20.0326 7.49687C20.0326 8.3218 19.3662 8.98738 18.5481 8.98738C17.73 8.98738 17.0601 8.31829 17.0601 7.49687C17.0601 6.67546 17.7265 6.00286 18.5481 6.00286ZM17.4522 9.27197C17.772 9.47 18.1454 9.58718 18.5492 9.58718C18.9531 9.58718 19.3265 9.47 19.6463 9.27197C20.5601 9.69145 21.2031 10.6183 21.2031 11.6952C21.2031 12.0608 21.1319 12.3069 20.9825 12.451C20.7071 12.7146 20.0897 12.6877 19.372 12.6549C19.1118 12.6431 18.834 12.6314 18.5504 12.6314C18.2668 12.6314 17.9891 12.6431 17.7253 12.6549C17.0088 12.6877 16.3902 12.7146 16.1148 12.451C15.9689 12.3068 15.8966 12.0608 15.8966 11.6952C15.8966 10.6183 16.5361 9.69145 17.4534 9.27197H17.4522Z" fill="#1C222B"/>
</svg>
