<svg width="10" height="6" viewBox="0 0 10 6" fill="none" xmlns="http://www.w3.org/2000/svg">
<path d="M4.99984 3.92439L1.91232 0.83687C1.68451 0.609064 1.31516 0.609064 1.08736 0.83687C0.859552 1.06468 0.859552 1.43402 1.08736 1.66183L4.58736 5.16183C4.81516 5.38963 5.18451 5.38963 5.41232 5.16183L8.91232 1.66183C9.14012 1.43402 9.14012 1.06468 8.91232 0.83687C8.68451 0.609064 8.31516 0.609064 8.08736 0.83687L4.99984 3.92439Z" fill="#646464"/>
<mask id="mask0_137_16105" style="mask-type:luminance" maskUnits="userSpaceOnUse" x="0" y="0" width="10" height="6">
<path d="M4.99984 3.92439L1.91232 0.83687C1.68451 0.609064 1.31516 0.609064 1.08736 0.83687C0.859552 1.06468 0.859552 1.43402 1.08736 1.66183L4.58736 5.16183C4.81516 5.38963 5.18451 5.38963 5.41232 5.16183L8.91232 1.66183C9.14012 1.43402 9.14012 1.06468 8.91232 0.83687C8.68451 0.609064 8.31516 0.609064 8.08736 0.83687L4.99984 3.92439Z" fill="white"/>
</mask>
<g mask="url(#mask0_137_16105)">
</g>
</svg>
