<svg width="22" height="30" viewBox="0 0 22 30" fill="none" xmlns="http://www.w3.org/2000/svg">
<path fill-rule="evenodd" clip-rule="evenodd" d="M17.2821 15.1384C17.2272 15.0981 17.2029 15.0802 17.166 15.0533C17.272 14.9497 17.3757 14.8484 17.4807 14.7456C17.4461 14.7216 17.4203 14.7036 17.3876 14.6809C17.4939 14.5801 17.5962 14.4831 17.7036 14.3814C17.673 14.3591 17.6486 14.3413 17.6214 14.3214C17.6765 14.2508 17.7262 14.1709 17.7893 14.1114C17.8334 14.0699 17.8973 14.0593 17.9496 14.0298C18.0052 13.9983 17.9113 13.8945 17.9682 13.8273C18.0224 13.7634 18.0871 13.7135 18.168 13.6584C18.1206 13.6224 18.0976 13.6047 18.0584 13.5748C18.1648 13.4709 18.2681 13.3699 18.3726 13.2677C18.3398 13.2455 18.3132 13.2278 18.2869 13.21C18.4114 13.0753 18.5356 12.9407 18.6679 12.7973C18.6233 12.7652 18.5984 12.7472 18.5733 12.7291C18.6956 12.5916 18.8188 12.4531 18.9476 12.3082C18.897 12.2702 18.8735 12.2525 18.8549 12.2386C18.9808 12.0988 19.1036 11.9625 19.2315 11.8207C19.1852 11.7898 19.1586 11.772 19.1331 11.7548C19.2575 11.6195 19.3813 11.4844 19.5131 11.3409C19.4684 11.3092 19.4432 11.2914 19.4139 11.2704C19.5373 11.138 19.6607 11.0057 19.7891 10.8678C19.7491 10.8255 19.723 10.798 19.6795 10.752C19.8077 10.6848 19.9561 10.6569 19.9945 10.4674C19.9717 10.4522 19.9451 10.4342 19.9135 10.413C20.0218 10.3234 20.1287 10.2344 20.2439 10.139C20.1949 10.0869 20.1689 10.0592 20.1213 10.0085C20.3281 9.95327 20.4601 9.80206 20.5482 9.5904C20.522 9.57232 20.4959 9.55444 20.4588 9.5291C20.4822 9.50744 20.4966 9.47596 20.5184 9.47656C20.6425 9.48059 20.705 9.41713 20.7323 9.25302C20.7353 9.23519 20.7551 9.223 20.7711 9.22063C20.7948 9.21741 20.8387 9.24103 20.8453 9.22567C20.875 9.15485 20.8949 9.06373 20.9841 9.09949C21.0766 9.13657 21.1606 9.24194 21.2572 9.28264C21.2789 9.29181 21.3007 9.36817 21.3162 9.4004C21.4072 9.40786 21.4842 9.41421 21.5998 9.42363C21.4987 9.57786 21.4216 9.69517 21.336 9.82538C21.4452 9.85061 21.4708 9.78815 21.5023 9.71109C21.524 9.65815 21.5998 9.65638 21.648 9.63331C21.7687 9.82326 21.6711 9.88658 21.6298 9.94485C21.3523 10.3366 21.1343 10.7933 20.9015 11.2332C20.6514 11.7059 20.4416 12.2228 20.177 12.6787C20.0005 12.9832 19.8482 13.3135 19.6649 13.6082C19.4581 13.9405 19.2857 14.3113 19.067 14.6285C18.9257 14.8336 18.8206 15.0771 18.6761 15.2805C18.5389 15.4735 18.4096 15.6841 18.2904 15.8983C18.1614 16.1303 18.0249 16.3533 17.8829 16.569C17.6176 16.9721 17.3592 17.3836 17.0891 17.7815C16.9114 18.043 16.7443 18.3207 16.5725 18.591C16.3215 18.9856 16.0502 19.3555 15.8045 19.7572C15.5912 20.1061 15.3302 20.3999 15.1061 20.7372C14.92 21.0172 14.721 21.2807 14.5287 21.5527C14.1836 22.0414 13.8387 22.5305 13.4875 23.0116C13.2617 23.3205 13.0234 23.6152 12.8093 23.9381C12.4892 24.4206 12.1228 24.8434 11.7906 25.3087C11.5921 25.5871 11.3932 25.8635 11.1831 26.1272C10.9259 26.4495 10.6995 26.8128 10.435 27.1249C10.0397 27.5915 9.67677 28.099 9.30056 28.5898C9.01743 28.9589 8.7148 29.303 8.48028 29.7331C8.44795 29.7922 8.37873 29.8111 8.33129 29.8452C8.16864 29.6512 8.38664 29.6176 8.29049 29.439C8.26117 29.4803 8.24112 29.5222 8.21075 29.5476C8.17882 29.5745 8.13706 29.5855 8.07511 29.6151C8.05672 29.5251 8.04403 29.4634 8.03128 29.4013C7.98122 29.3833 7.92339 29.4204 7.87317 29.2949C7.84794 29.2322 7.90591 29.1261 7.78825 29.1008C7.788 29.0904 7.78523 29.0778 7.78805 29.0704C7.8086 29.0182 7.82603 28.9623 7.85237 28.9165C7.98792 28.6801 8.10639 28.421 8.26772 28.2184C8.48854 27.9409 8.67365 27.6215 8.88727 27.3367C9.20813 26.909 9.5307 26.4836 9.84747 26.0509C10.0483 25.7766 10.2402 25.4909 10.4372 25.2088C10.4051 25.1873 10.3784 25.1692 10.3518 25.1512C10.3534 25.1397 10.3515 25.1228 10.357 25.1188C10.3668 25.1117 10.6384 24.8971 10.6539 24.8785C10.7444 24.7712 10.8351 24.6641 10.9304 24.5513C10.8824 24.5172 10.8571 24.4992 10.7936 24.4543C10.8519 24.4438 10.88 24.4354 10.9099 24.4345C10.9428 24.4335 10.994 24.4599 11.0088 24.439C11.1064 24.3018 11.1964 24.1552 11.2894 24.0106C11.2566 23.9871 11.2316 23.9694 11.1673 23.9233C11.227 23.9136 11.2553 23.906 11.2853 23.9051C11.3181 23.904 11.3688 23.9297 11.3836 23.9088C11.4812 23.7717 11.5711 23.6254 11.6642 23.4812C11.6311 23.4572 11.6061 23.4393 11.5411 23.3925C11.6022 23.3836 11.6306 23.3766 11.6606 23.3758C11.6934 23.3749 11.7437 23.3993 11.7586 23.3784C11.856 23.2417 11.9458 23.0956 12.0389 22.9515C12.0053 22.9272 11.9807 22.9094 11.9147 22.8616C11.9773 22.8533 12.0072 22.8351 12.0357 22.8489C12.0884 22.8744 12.1118 22.8699 12.1434 22.8219C12.3186 22.5552 12.5034 22.3 12.6884 22.0362C12.6543 22.0125 12.6285 21.9948 12.6012 21.9759C12.597 21.8139 12.8078 22.0575 12.801 21.8499C12.7982 21.7668 12.9039 21.7239 12.9678 21.6542C12.9252 21.623 12.9009 21.6052 12.8775 21.588C12.8794 21.5712 12.8792 21.5508 12.8848 21.5354C12.8869 21.5293 13.0951 21.4382 13.1006 21.4305C13.2335 21.2418 13.3663 21.0533 13.5016 20.8611C13.462 20.8343 13.4353 20.8163 13.408 20.7979C13.5857 20.7096 13.6535 20.645 13.7587 20.4632C13.7315 20.4449 13.705 20.4269 13.6787 20.4094C13.6846 20.3926 13.6861 20.3611 13.6977 20.3591C13.9734 20.3124 14.0554 19.9852 14.2336 19.7979C14.3275 19.6992 14.387 19.551 14.4623 19.4249C14.4311 19.4027 14.4061 19.3848 14.3797 19.366C14.3909 19.3466 14.396 19.3189 14.409 19.3178C14.6218 19.2992 14.7251 19.0953 14.8214 18.92C14.9455 18.6938 15.1341 18.5446 15.2156 18.2695C15.1975 18.2566 15.1721 18.2388 15.1218 18.2034L15.4449 18.0486C15.4257 17.9896 15.4145 17.955 15.4002 17.9111C15.4056 17.7767 15.6412 17.9021 15.5575 17.6275C15.6014 17.6064 15.6557 17.5868 15.7034 17.555C15.7272 17.539 15.7602 17.4925 15.7521 17.4739C15.7164 17.393 15.7367 17.3733 15.7776 17.3424C15.8343 17.3001 15.9788 17.3477 15.8974 17.1423C15.893 17.1312 15.9289 17.1063 15.948 17.0909C16.0058 17.0439 16.1376 17.0773 16.0595 16.8839C16.1226 16.8426 16.1857 16.8015 16.2469 16.7616C16.2437 16.7079 16.2216 16.6273 16.2412 16.607C16.2887 16.5575 16.3554 16.5355 16.4145 16.5025C16.3351 16.3001 16.4844 16.3352 16.5344 16.2806C16.532 16.2557 16.5339 16.2418 16.5297 16.2367C16.5223 16.2279 16.511 16.2255 16.5018 16.2182C16.4865 16.206 16.4719 16.1922 16.4335 16.1584L16.7311 16.0159C16.6763 15.9754 16.6524 15.9578 16.6274 15.9391C16.6038 15.7965 16.796 15.9177 16.7588 15.7451C16.7219 15.5729 16.868 15.6379 16.9175 15.5755C16.97 15.5091 17.0219 15.4419 17.0818 15.3652C17.0832 15.3783 17.0847 15.3645 17.0804 15.3596C17.073 15.3508 17.0617 15.3483 17.0526 15.3411C17.0376 15.329 17.0231 15.315 16.9849 15.2808L17.2821 15.1384Z" fill="#1C222B"/>
<path fill-rule="evenodd" clip-rule="evenodd" d="M1.72122 9.99393C0.788521 10.1931 0.997353 10.2784 0.972168 10.1685C0.896362 10.1635 0.819851 10.1586 0.706316 10.1511C0.740366 10.0433 0.761826 9.97529 0.783585 9.90664C0.765249 9.89389 0.73951 9.87606 0.713671 9.85813C0.718456 9.84166 0.718405 9.81139 0.729435 9.80751C1.00259 9.71281 1.18806 9.45709 1.46237 9.35942C1.73749 9.26135 2.01196 9.14882 2.24824 8.9763C2.44076 8.83592 2.64435 8.7235 2.84986 8.61067C2.91323 8.57596 3.00666 8.63454 3.05361 8.52942C3.08871 8.45069 3.20003 8.44697 3.27755 8.40984L3.53298 8.28749C3.6104 8.25042 3.68797 8.21375 3.76513 8.17613C3.84215 8.13895 3.91886 8.10108 3.99467 8.06138C4.00021 8.05856 3.99814 8.04048 4.00338 8.00104C3.92385 8.02149 3.85676 8.03887 3.78961 8.0564C3.78271 8.04109 3.77586 8.02592 3.76891 8.01076C3.84819 7.96895 3.92687 7.92599 4.00696 7.88605C4.09138 7.84369 4.17681 7.80354 4.26249 7.7638C4.27704 7.757 4.29805 7.74551 4.31054 7.75539C4.48074 7.89073 4.56687 7.82268 4.63779 7.67767C4.66444 7.62332 4.74176 7.6211 4.7959 7.59516C5.52365 7.24665 6.2523 6.8999 6.97783 6.54701C7.05681 6.50853 7.17694 6.5245 7.18213 6.36568C7.18253 6.35858 7.1982 6.35092 7.20419 6.3551C7.32594 6.44159 7.31626 6.23018 7.39806 6.26756C7.50364 6.31571 7.54207 6.2801 7.5738 6.18405C7.58337 6.15458 7.65112 6.16657 7.69429 6.17609C7.75478 6.18949 7.77478 6.2385 7.75408 6.29975C7.76909 6.31052 7.78642 6.33017 7.79846 6.32987C7.81473 6.32931 7.839 6.31768 7.8383 6.30327C7.83613 6.25965 7.81286 6.20596 7.8178 6.16843C7.82435 6.11847 7.8388 6.05742 7.86968 6.04185C7.92282 6.01511 8.0217 6.05183 8.04658 6.00397C8.08642 5.92696 8.12843 5.91406 8.20882 5.92308C8.26352 5.92912 8.29566 5.83589 8.3487 5.80889C8.56222 5.69989 8.78001 5.5996 8.99111 5.49851C9.03781 5.54128 9.07725 5.57744 9.11654 5.61336C9.12742 5.56178 9.1382 5.5101 9.15844 5.41354C9.23208 5.33526 9.45205 5.39218 9.4313 5.10648C9.48152 5.14008 9.52806 5.17121 9.56946 5.19886C9.71549 5.03219 9.88775 4.93573 10.1098 4.94379C10.2311 4.72614 10.4755 4.74815 10.6396 4.61477C10.667 4.68222 10.6929 4.7612 10.7 4.7613C10.7901 4.76387 10.7301 4.66837 10.7179 4.5909L10.964 4.47308C10.9516 4.41531 10.9418 4.36942 10.9313 4.32086C10.946 4.32388 10.9629 4.32061 10.9749 4.33124C11.0684 4.41324 11.1641 4.41944 11.2016 4.34484C11.2892 4.1698 11.4601 4.15842 11.5955 4.07868C11.712 4.00998 11.8383 3.95981 11.9379 3.8487C11.858 3.87287 11.7779 3.8969 11.698 3.92123C11.8573 3.81686 11.9678 3.58304 12.2083 3.75833C12.2882 3.69587 12.3463 3.63402 12.4171 3.5977C12.6371 3.48512 12.8618 3.38212 13.08 3.27765C13.0647 3.21051 13.0545 3.16472 13.0387 3.09632C13.1178 3.16497 13.1822 3.22098 13.2467 3.27695C13.2156 3.17177 13.2038 3.0529 13.3037 3.09103C13.4095 3.13143 13.4254 3.06136 13.4802 3.01084C13.5806 2.91866 13.7186 2.88416 13.8224 2.77783C13.7581 2.79163 13.6938 2.80538 13.6261 2.81969C13.6246 2.79198 13.6171 2.76025 13.6235 2.75703C13.7927 2.67296 13.9579 2.57952 14.1354 2.51424C14.2664 2.46619 14.4284 2.4942 14.5431 2.40136C14.5617 2.38615 14.5779 2.36701 14.5798 2.31669C14.5129 2.33639 14.446 2.35623 14.379 2.37608C14.5586 2.25237 14.71 2.08006 14.959 2.09753C15.0692 2.10524 15.158 2.01236 15.2443 1.92441C15.194 1.92879 15.1435 1.93323 15.0915 1.93781C15.0901 1.9155 15.0823 1.88361 15.0887 1.88039C15.1647 1.84095 15.2428 1.80594 15.3203 1.76972C15.4337 1.89998 15.389 1.64733 15.4993 1.71583C15.571 1.76026 15.5843 1.56855 15.7233 1.64577C15.7989 1.68757 15.8883 1.58054 15.9527 1.49304C15.8862 1.5074 15.8195 1.5215 15.7488 1.53677C15.7515 1.50755 15.7471 1.47743 15.7556 1.47305C15.8703 1.41487 15.9909 1.36772 16.1022 1.30285C16.3195 1.17642 16.5496 1.06802 16.7395 0.897821C16.8418 0.806098 16.9551 0.743035 17.0623 0.66471C17.1545 0.597617 17.2268 0.49592 17.1682 0.272177C17.2085 0.252885 17.2863 0.185591 17.3079 0.210373C17.4023 0.31892 17.5135 0.281748 17.5885 0.378055C17.6593 0.469124 17.7108 0.483026 17.7884 0.50398C17.9449 0.54629 18.0562 0.717397 18.0854 0.922201C18.1396 0.957158 18.1945 0.992366 18.2482 1.02702C18.2591 1.05336 18.2787 1.08202 18.2773 1.0996C18.2627 1.29207 18.198 1.41809 18.072 1.51087C17.8654 1.66289 17.6944 1.87596 17.4536 1.97075C17.3799 2.15944 17.1959 2.15465 17.0663 2.24532C16.9648 2.31604 16.8738 2.40555 16.7693 2.47037C16.6672 2.53384 16.5212 2.53736 16.4533 2.63805C16.3555 2.78281 16.2174 2.83661 16.0781 2.88436C15.899 2.94571 15.793 3.12538 15.6239 3.19882C15.4508 3.27438 15.253 3.31694 15.1186 3.45158C14.8593 3.71159 14.4924 3.75214 14.2175 3.96721C13.8767 4.23392 13.4528 4.33638 13.1124 4.59024C12.654 4.93235 12.1136 5.09812 11.6257 5.37415C11.566 5.4079 11.5017 5.43293 11.4404 5.46386C11.3887 5.4899 11.3209 5.49514 11.3286 5.60071C11.2471 5.50153 11.2465 5.65385 11.1722 5.62277C11.1267 5.60378 11.0861 5.7077 11.0352 5.7425C10.9784 5.78114 10.9125 5.8038 10.8506 5.83347L10.6881 5.91134L10.5023 6.0003L10.3164 6.0893L10.1539 6.16717C10.0919 6.19684 10.0329 6.23361 9.96733 6.25441C9.88981 6.27884 9.83592 6.35072 9.72294 6.30791C9.66854 6.28725 9.62542 6.41333 9.56387 6.44617C9.37433 6.54676 9.17567 6.62937 8.98603 6.72985C8.91536 6.76708 8.80837 6.75136 8.80379 6.89945C8.80087 6.99666 8.66835 6.7971 8.66326 6.94287C8.6617 6.98886 8.56811 7.04119 8.54514 7.01963C8.41503 6.89819 8.45749 7.15679 8.36884 7.08612C8.24322 6.98609 8.27737 7.15815 8.22403 7.17759C8.19391 7.18867 8.1589 7.18857 8.12621 7.19381C8.06889 7.20263 7.96422 7.18842 7.96246 7.22474C7.95531 7.37293 7.82571 7.29309 7.77765 7.37162C7.72804 7.45322 7.61944 7.46813 7.53492 7.50862C6.01788 8.23566 4.49877 8.95888 2.98505 9.69312C2.78322 9.79109 2.53701 9.8133 2.40938 10.0513C2.24089 9.96476 2.21117 10.1647 2.10308 10.2078C1.76832 10.3413 1.44968 10.511 1.10243 10.6772C1.08752 10.6162 1.05639 10.533 1.06732 10.5257C1.22024 10.4242 1.34601 10.2792 1.51934 10.208C1.86865 10.0641 2.20336 9.88775 2.54316 9.72289C2.5554 9.71689 2.55706 9.68894 2.56376 9.67116C2.54255 9.66673 2.51989 9.657 2.50055 9.65856C2.45209 9.66269 2.37679 9.6018 2.37165 9.71488C2.37039 9.74419 2.31418 9.74671 2.28325 9.76152C1.83491 9.97625 1.38656 10.191 1.72122 9.99393C2.52185 9.589 2.52709 9.60205 2.53223 9.615C2.61831 9.61021 2.70792 9.6151 2.78927 9.59686C2.83238 9.58714 3.07189 9.45638 3.11078 9.44706C3.14402 9.43915 3.19867 9.43417 3.20059 9.40551C3.21016 9.26351 3.31266 9.27122 3.38479 9.23636C4.48326 8.70693 5.58293 8.17996 6.68457 7.65732C6.7492 7.62649 6.79766 7.5388 6.90343 7.60911C6.92358 7.62261 6.96846 7.61234 6.97022 7.59531C6.98473 7.44471 7.10632 7.46959 7.18001 7.41841C7.33107 7.31364 7.53164 7.30281 7.64196 7.11579C7.67313 7.063 7.76441 7.07383 7.83125 7.06607C7.96004 7.05111 8.08284 7.02583 8.15336 6.89638C8.17799 6.8512 8.27329 6.93078 8.25818 6.81956C8.37252 6.9057 8.46339 6.83941 8.49517 6.77317C8.54801 6.66246 8.67333 6.76421 8.72154 6.67853C8.73015 6.66332 8.75105 6.65687 8.75231 6.63894C8.75841 6.55366 8.79316 6.55583 8.86297 6.57341C8.93062 6.59043 9.01187 6.5655 9.04929 6.51226C9.0978 6.4431 9.16439 6.3759 9.22302 6.36739C9.31419 6.35409 9.36531 6.28851 9.43573 6.24968C9.98708 5.94645 10.5899 5.75006 11.1061 5.37148C11.4915 5.08905 11.9727 4.99149 12.3562 4.68997C12.7052 4.41596 13.1581 4.33371 13.51 4.0474C13.7874 3.82159 14.1626 3.77364 14.4316 3.5158C14.5563 3.39617 14.7442 3.37426 14.8889 3.28138C15.0216 3.196 15.1832 3.17988 15.294 3.03023C15.3972 2.89076 15.5909 2.86623 15.7435 2.78861C15.767 2.77652 15.7844 2.75169 15.8045 2.73275C15.7498 2.6993 15.7203 2.7118 15.6923 2.72711C15.4266 2.87217 15.1459 2.98253 14.9027 3.17877C14.6105 3.4144 14.2258 3.47681 13.9334 3.73033C13.662 3.96555 13.2619 3.97245 13.0186 4.27165C12.9844 4.31371 12.8713 4.17419 12.8902 4.3259C12.7837 4.23277 12.7962 4.3799 12.7484 4.40478C12.3731 4.59941 11.9561 4.71229 11.636 5.01627C11.5932 5.05702 11.5236 5.10689 11.4744 5.07863C11.3627 5.01461 11.402 5.17927 11.329 5.17357C11.2684 5.16889 11.2193 5.21921 11.1651 5.2452C10.8553 5.39359 10.5435 5.53805 10.237 5.69289C10.1581 5.73273 10.0427 5.71963 10.0263 5.86888C10.0245 5.88555 9.96265 5.86395 9.93122 5.86777C9.88941 5.87281 9.81628 5.87029 9.81587 5.89749C9.81411 6.00473 9.75236 5.94136 9.71125 5.95018C9.6703 5.95899 9.66038 6.04785 9.62034 6.06704C9.55571 6.09801 9.50383 6.18364 9.40007 6.09952C9.39418 6.20248 9.32401 6.21457 9.26563 6.24157C9.2064 6.26897 9.15532 6.33052 9.06612 6.25189C9.07276 6.37293 8.99081 6.37253 8.93228 6.40089C8.5459 6.58821 8.1515 6.75912 7.77297 6.96206C7.40053 7.16193 6.96906 7.24741 6.66261 7.57668C6.58333 7.53054 6.54052 7.59627 6.48531 7.61485C6.41399 7.63858 6.36518 7.71494 6.29678 7.74818C6.21755 7.78662 6.1507 7.86983 6.03233 7.79855C6.01748 7.96216 5.88692 7.94317 5.80058 7.98518C4.78089 8.48011 3.75753 8.96764 2.73557 9.45804C2.66092 9.49381 2.58955 9.53652 1.72122 9.99393Z" fill="#1C222B"/>
<path fill-rule="evenodd" clip-rule="evenodd" d="M8.9542 16.1339C8.93086 15.8899 8.92069 15.7862 8.90771 15.6519L8.46391 15.8548C8.47015 15.8758 8.47629 15.8969 8.48252 15.9176C8.53385 15.9144 8.58628 15.9143 8.6362 15.9074C8.6848 15.9008 8.73039 15.887 8.78916 15.8735C8.82297 15.9582 8.88124 16.0546 8.86786 16.0785C8.80245 16.1987 8.73421 16.3242 8.6374 16.4024C8.42033 16.5779 8.18223 16.721 7.95992 16.8885C7.84943 16.972 7.75513 17.0809 7.65792 17.1741C7.37 16.9381 7.6862 16.916 7.61857 16.7491C7.212 16.7265 7.1327 17.2464 6.7842 17.3167C7.02985 17.2987 7.28999 17.3114 7.43652 17.0228C7.44487 17.1086 7.4817 17.2216 7.45584 17.2744C7.40321 17.3827 7.3227 17.4666 7.24229 17.5449C7.11076 17.6728 6.85958 17.6025 6.8005 17.855C6.75421 18.0522 6.4999 17.9588 6.46237 18.2168C6.44365 18.3466 6.2135 18.3518 6.06254 18.4208C5.99683 17.9859 6.277 18.0417 6.4193 17.9185C6.54751 17.8076 6.65297 17.6623 6.71959 17.4577C6.405 17.6553 6.05399 17.8027 5.7862 18.0656C5.53199 18.3156 5.31583 18.6192 5.03646 18.8565C5.26259 18.7746 5.48902 18.6924 5.71515 18.6105L5.75631 18.6927C5.35155 19.0078 4.94639 19.3231 4.54154 19.638C4.51849 19.6051 4.49565 19.5717 4.4728 19.5387C4.646 19.3591 4.81909 19.1794 4.99188 18.9999C4.77471 19.0555 4.49222 18.9872 4.4253 19.3144C3.99488 19.4799 3.75165 19.982 3.22623 20L3 19.5491C3.05102 19.4639 3.21747 19.5908 3.21969 19.3951C3.22089 19.3024 3.44229 19.395 3.36994 19.1635C3.35021 19.1009 3.38755 18.9709 3.40717 18.9766C3.73162 19.0689 3.83075 18.7248 4.07318 18.6666C4.14886 18.6485 4.24114 18.6727 4.34369 18.6786C4.30716 18.5749 4.26157 18.4449 4.21598 18.3142C4.42661 18.4141 4.41876 17.991 4.67347 18.2055C4.64871 18.0986 4.62838 18.0115 4.60101 17.8931C4.81114 17.9031 5.05468 18.0052 5.16648 17.7618C5.11657 17.7265 5.06846 17.6925 4.94861 17.6074C5.265 17.5318 5.53863 17.4662 5.82142 17.3984C5.85141 17.1821 5.87959 16.9809 5.90142 16.8235C6.04875 16.7591 6.23523 16.9815 6.28132 16.7076C6.31715 16.4935 6.4676 16.3344 6.60436 16.2032C6.69212 16.1191 6.84196 16.1108 6.9743 16.1049C7.06829 16.1007 7.0693 15.9479 7.23414 16.028C7.40673 16.1116 7.25578 15.8399 7.27389 15.7417C7.291 15.6503 7.32743 15.5369 7.39174 15.5154C7.65037 15.4303 7.78623 15.1356 8.06911 15.0987C8.08371 15.0968 8.10645 15.1189 8.12517 15.13C8.18967 14.6154 8.66407 14.6108 8.84542 14.2665C8.99687 13.979 9.39006 14.0821 9.44993 13.7C10.0107 13.1868 10.6348 12.7625 11.0977 12.1119C11.527 11.9998 11.6968 11.5084 12.0472 11.2692C12.3708 11.0477 12.6759 10.7521 12.9121 10.4176C13.3399 9.81249 13.9755 9.48394 14.3324 8.79639C14.5728 8.76767 14.6121 8.53442 14.6622 8.28503C14.6899 8.14717 14.8275 8.08156 14.9009 8C15.2169 8.13862 15.4876 8.3932 15.765 8.39733C15.8381 8.63981 15.9121 8.88449 16 9.17519C15.6092 9.65475 15.2434 10.2239 14.739 10.6259C14.5057 10.8122 14.3644 11.1391 14.1334 11.3295C13.8461 11.5664 13.6048 11.8711 13.3081 12.0836C12.9912 12.3111 12.7447 12.6296 12.4608 12.8964C12.2857 13.0613 12.1037 13.237 11.9197 13.3759C11.6081 13.6108 11.3868 13.9658 11.0583 14.1747C10.8605 14.3003 10.7235 14.5279 10.5494 14.6966C10.4309 14.812 10.2054 14.7528 10.154 14.9861C10.1103 15.1845 9.80659 15.062 9.83648 15.3599C9.54353 15.4115 9.37868 15.6738 9.15658 15.8418C9.09872 15.8854 9.06621 15.9688 8.9542 16.1339Z" fill="#1C222B"/>
</svg>
