<svg width="110" height="90" viewBox="0 0 110 90" fill="none" xmlns="http://www.w3.org/2000/svg">
<path d="M45 72.225L33.75 65.5V78L45 84.25V72.225ZM47.5 72.225V84.25L58.75 78V65.5L47.5 72.2V72.225ZM58.75 62.525L46.25 55.0625L41.4625 57.925L54.3375 65.1625L58.75 62.525ZM51.8625 66.6375L38.9875 59.4L33.75 62.525L46.25 69.9875L51.8625 66.6375ZM60 46.4125L48.75 39.7125V52.2125L60 58.4625V46.4125ZM73.75 51.75V39.7L62.5 46.4V58.425L73.75 52.175V51.75ZM61.25 29.25L56.4625 32.1125L69.3375 39.35L73.75 36.7125L61.25 29.25ZM66.8625 40.825L53.9875 33.5875L48.75 36.7125L61.25 44.175L66.8625 40.825ZM75 72.225L63.75 65.5V78L75 84.25V72.225ZM88.75 77.5625V65.5L77.5 72.2V84.25L88.75 78V77.5625ZM71.4625 57.925L84.3375 65.1625L88.75 62.525L76.25 55.0625L71.4625 57.925ZM68.9875 59.4L63.75 62.525L76.25 69.9875L81.8625 66.6375L68.9875 59.4ZM92.5 11.75C89.7805 11.75 87.1221 12.5564 84.8609 14.0673C82.5997 15.5782 80.8374 17.7256 79.7967 20.2381C78.7559 22.7506 78.4837 25.5153 79.0142 28.1825C79.5447 30.8497 80.8543 33.2997 82.7773 35.2227C84.7002 37.1457 87.1503 38.4552 89.8175 38.9858C92.4847 39.5163 95.2494 39.244 97.7619 38.2033C100.274 37.1626 102.422 35.4003 103.933 33.1391C105.444 30.8779 106.25 28.2195 106.25 25.5C106.25 21.8533 104.801 18.3559 102.223 15.7773C99.6441 13.1987 96.1467 11.75 92.5 11.75ZM92.5 24.25C93.7064 24.2645 94.8669 24.7146 95.7674 25.5175C96.6679 26.3204 97.2478 27.4218 97.4001 28.6186C97.5524 29.8154 97.2667 31.0269 96.5959 32.0297C95.9251 33.0325 94.9143 33.7589 93.75 34.075V35.5H91.25V34.075C90.1794 33.7986 89.2306 33.1751 88.5521 32.3021C87.8736 31.429 87.5036 30.3557 87.5 29.25H90C90 29.7445 90.1466 30.2278 90.4213 30.6389C90.696 31.05 91.0865 31.3705 91.5433 31.5597C92.0001 31.7489 92.5028 31.7984 92.9877 31.702C93.4727 31.6055 93.9181 31.3674 94.2678 31.0178C94.6174 30.6681 94.8555 30.2227 94.952 29.7377C95.0484 29.2528 94.9989 28.7501 94.8097 28.2933C94.6205 27.8365 94.3 27.446 93.8889 27.1713C93.4778 26.8966 92.9944 26.75 92.5 26.75C91.2936 26.7355 90.1331 26.2854 89.2326 25.4825C88.332 24.6796 87.7522 23.5782 87.5999 22.3814C87.4476 21.1846 87.7332 19.9731 88.4041 18.9703C89.0749 17.9675 90.0857 17.2411 91.25 16.925V15.5H93.75V16.925C94.8206 17.2014 95.7694 17.8249 96.4479 18.6979C97.1264 19.571 97.4964 20.6443 97.5 21.75H95C95 21.2555 94.8534 20.7722 94.5787 20.3611C94.304 19.95 93.9135 19.6295 93.4567 19.4403C92.9999 19.2511 92.4972 19.2016 92.0123 19.298C91.5273 19.3945 91.0819 19.6326 90.7322 19.9822C90.3826 20.3319 90.1445 20.7773 90.048 21.2623C89.9516 21.7472 90.0011 22.2499 90.1903 22.7067C90.3795 23.1635 90.6999 23.554 91.1111 23.8287C91.5222 24.1034 92.0055 24.25 92.5 24.25ZM55 18.8125C54.125 19.05 53.25 19.325 52.4 19.65L53.3 21.9875C54.0633 21.6906 54.8439 21.4401 55.6375 21.2375L55 18.8125ZM75.7625 22.525C75.0219 21.995 74.2497 21.5107 73.45 21.075L72.2 23.25C72.9135 23.652 73.6061 24.09 74.275 24.5625L75.7625 22.525ZM51.075 23L49.925 20.7875C49.1183 21.2048 48.3339 21.6637 47.575 22.1625L48.9625 24.25C49.642 23.793 50.3473 23.3756 51.075 23ZM67.7375 21.375C68.5187 21.6028 69.2866 21.8741 70.0375 22.1875L71 19.8875C70.1841 19.5374 69.3495 19.2328 68.5 18.975L67.7375 21.375ZM65.35 20.825L65.7875 18.325C64.895 18.1613 63.9933 18.0528 63.0875 18L62.925 20.5C63.7393 20.5581 64.5492 20.6667 65.35 20.825ZM60.475 20.5L60.3625 18C59.4583 18.0373 58.5569 18.1249 57.6625 18.2625L58.0375 20.7625C58.8446 20.6305 59.6583 20.5428 60.475 20.5ZM40.1125 29.975L42.25 31.225C42.6722 30.5423 43.1313 29.883 43.625 29.25L41.6375 27.7125C41.0907 28.44 40.5817 29.1952 40.1125 29.975ZM36.8 40.275L39.3 40.475C39.3625 39.6646 39.4752 38.8589 39.6375 38.0625L37.1375 37.575C36.9753 38.4681 36.8626 39.3695 36.8 40.275ZM36.9875 45.725L39.4875 45.35C39.363 44.5428 39.2878 43.7288 39.2625 42.9125L36.7625 43C36.7879 43.9117 36.863 44.8214 36.9875 45.725ZM45.9375 26.6625C46.2875 26.325 46.6375 26.0125 47 25.7L45.4 23.7875C44.9875 24.125 44.6 24.4875 44.15 24.85L43.35 25.65L45.15 27.375L45.9375 26.6625ZM37.8625 34.9375L40.25 35.7C40.4915 34.9233 40.7838 34.1633 41.125 33.425L38.85 32.3875C38.468 33.2161 38.1382 34.0678 37.8625 34.9375ZM43.075 54.325C42.619 53.6578 42.2017 52.965 41.825 52.25L39.625 53.5C40.0636 54.298 40.5477 55.0701 41.075 55.8125L43.075 54.325ZM40.75 50.05C40.4537 49.2949 40.2033 48.5227 40 47.7375L37.5 48.3875C37.7428 49.2658 38.0349 50.1296 38.375 50.975L40.75 50.05ZM81.25 44.25H85V46.75H81.25V44.25ZM87.5 44.25H92.5V46.75H87.5V44.25ZM95 46.75H102.5L100.25 49.75L102.25 51.25L106 46.25C106.053 46.2002 106.095 46.1408 106.125 46.075C106.23 45.8674 106.276 45.6346 106.256 45.4027C106.236 45.1708 106.152 44.9491 106.012 44.7625L102.262 39.7625L100.262 41.2625L102.5 44.25H95V46.75ZM76.25 44.25H78.75V46.75H76.25V44.25ZM91.25 73H102.5L100.25 76L102.25 77.5L106 72.5C106.053 72.4502 106.095 72.3908 106.125 72.325C106.23 72.1174 106.276 71.8846 106.256 71.6527C106.236 71.4208 106.152 71.1991 106.012 71.0125L102.262 66.0125L100.262 67.5125L102.5 70.5H91.25V73Z" fill="#4EAC4C" stroke="#246D23"/>
<circle cx="45" cy="45" r="45" fill="#4EAC4C" fill-opacity="0.1"/>
</svg>
