<svg width="110" height="90" viewBox="0 0 110 90" fill="none" xmlns="http://www.w3.org/2000/svg">
<circle cx="45" cy="45" r="45" fill="#4EAC4C" fill-opacity="0.1"/>
<path fill-rule="evenodd" clip-rule="evenodd" d="M75.6592 18.0112V17.5728C75.6609 16.0955 76.2485 14.6791 77.293 13.6344C78.3376 12.5897 79.7539 12.0019 81.2312 12H94.5832C96.0606 12.0019 97.477 12.5896 98.5217 13.6343C99.5664 14.679 100.154 16.0954 100.156 17.5728V18.0112H98.156V17.5728C98.1541 16.625 97.7767 15.7165 97.1065 15.0463C96.4363 14.3761 95.5278 13.9987 94.58 13.9968H81.2312C80.2834 13.9987 79.3751 14.3761 78.705 15.0463C78.0349 15.7166 77.6577 16.625 77.656 17.5728V18.0112H75.6592ZM61.5792 38.7264L64.2192 40.0512L62.1208 30.1976L52.9664 34.4L54.6792 35.26C54.7271 35.2818 54.7733 35.3069 54.8176 35.3352C55.0389 35.4791 55.194 35.7049 55.2489 35.963C55.3038 36.2212 55.254 36.4905 55.1104 36.712C52.8327 40.0458 49.9465 42.9201 46.6032 45.184C43.9051 47.0689 41.0397 48.7024 38.0432 50.064C41.3759 49.854 44.6505 49.0911 47.7328 47.8064C52.5422 45.831 56.8422 42.7927 60.3104 38.9192C60.4655 38.7427 60.6778 38.6266 60.9101 38.5914C61.1423 38.5561 61.3788 38.6039 61.5792 38.7264ZM105.451 48.4128H94.1312V84H105.451V48.4128ZM85.7408 53.36H74.4208V84H85.7408V53.36ZM66.0304 58.34H54.7104V84H66.0304V58.34ZM46.32 62.16H35V84H46.32V62.16ZM87.9056 34.9712C88.1814 34.9712 88.446 34.8616 88.641 34.6666C88.836 34.4716 88.9456 34.207 88.9456 33.9312V32H86.8696V33.9336C86.8696 34.2094 86.9792 34.474 87.1742 34.669C87.3692 34.864 87.6338 34.9736 87.9096 34.9736L87.9056 34.9712ZM87.9056 36.9712C88.6834 36.97 89.4311 36.6708 89.9949 36.1351C90.5588 35.5993 90.8959 34.8679 90.9368 34.0912C94.1032 32.604 97.2728 31.0472 100.435 29.4952C101.168 29.1352 101.901 28.7752 102.679 28.3944V41.2952C102.679 41.3323 102.663 41.3677 102.637 41.3936C102.624 41.4069 102.609 41.4175 102.591 41.4248C102.574 41.4321 102.556 41.4359 102.538 41.436H73.2752C73.2382 41.435 73.2029 41.4198 73.1768 41.3936C73.1506 41.3675 73.1354 41.3322 73.1344 41.2952V28.3904L74.3768 28.996C77.8728 30.7016 81.3696 32.4072 84.8744 34.0472C84.905 34.8312 85.2375 35.5731 85.8024 36.1176C86.3674 36.6621 87.121 36.9671 87.9056 36.9688V36.9712ZM84.8728 31.84V31.0016C84.8724 30.8702 84.8979 30.74 84.9479 30.6185C84.9979 30.497 85.0713 30.3866 85.1641 30.2936C85.2568 30.2005 85.3671 30.1267 85.4884 30.0763C85.6097 30.0259 85.7398 30 85.8712 30H89.944C90.0756 29.9997 90.206 30.0254 90.3277 30.0756C90.4493 30.1258 90.5599 30.1996 90.6529 30.2927C90.746 30.3857 90.8198 30.4963 90.87 30.6179C90.9202 30.7396 90.9459 30.87 90.9456 31.0016V31.8856C93.8336 30.5192 96.7056 29.1104 99.5664 27.7048C101.21 26.8976 102.851 26.0912 104.189 25.4408V20.2928C104.191 20.2144 104.162 20.1385 104.109 20.0808C104.087 20.0582 104.061 20.0402 104.032 20.0278C104.003 20.0154 103.972 20.009 103.941 20.0088H71.8792C71.8478 20.0089 71.8167 20.0153 71.7879 20.0277C71.759 20.0401 71.7329 20.0581 71.7112 20.0808C71.6581 20.1385 71.6295 20.2144 71.6312 20.2928V25.44C73.2712 26.2352 74.2632 26.72 75.252 27.2C78.4464 28.7608 81.6424 30.32 84.8728 31.84Z" fill="#4EAC4C" stroke="#246D23"/>
</svg>
