<svg width="110" height="90" viewBox="0 0 110 90" fill="none" xmlns="http://www.w3.org/2000/svg">
<circle cx="45" cy="45" r="45" fill="#4EAC4C" fill-opacity="0.1"/>
<path d="M45.8629 42.8146L41.8443 42.3993C41.1682 42.3218 40.5636 42.8206 40.4939 43.4973C40.4242 44.1734 40.9158 44.7779 41.5918 44.8476L45.6093 45.2629C46.2611 45.3353 46.8884 44.8595 46.9602 44.1655C47.0306 43.4894 46.539 42.8843 45.8629 42.8146ZM48.5023 34.3056L44.8509 32.4606C44.2439 32.1541 43.5041 32.3975 43.1976 33.0045C42.8911 33.6108 43.1345 34.3512 43.7415 34.6577L47.3929 36.5027C47.9936 36.8071 48.7381 36.5697 49.0462 35.9588C49.3527 35.3524 49.1093 34.612 48.5023 34.3056ZM53.4116 29.8019C53.8941 29.3236 53.8977 28.5441 53.4188 28.0616L50.5288 25.1445C50.0522 24.6625 49.2721 24.6571 48.7884 25.1361C48.3052 25.6138 48.3016 26.3933 48.78 26.8765L51.6712 29.7947C52.1488 30.2771 52.9289 30.281 53.4116 29.8019ZM57.7487 25.1691C58.0576 25.7767 58.8015 26.0148 59.4038 25.7076C60.0095 25.3993 60.2505 24.6583 59.9422 24.0525L58.0949 20.4203C57.7878 19.8152 57.0492 19.573 56.4398 19.8819C55.834 20.1896 55.5931 20.9305 55.9014 21.5369L57.7487 25.1691ZM66.3617 23.6685C67.033 23.5616 67.4903 22.9305 67.3839 22.2593L66.7493 18.2689C66.6423 17.5982 66.0167 17.1409 65.3401 17.2466C64.6688 17.3536 64.2115 17.9846 64.3178 18.6559L64.9524 22.6463C65.0594 23.3157 65.6865 23.7738 66.3617 23.6685ZM73.6381 23.6685C74.3136 23.7739 74.9405 23.3154 75.0474 22.6463L75.682 18.6559C75.7884 17.9846 75.3311 17.3536 74.6598 17.2466C73.9843 17.1427 73.3575 17.5988 73.2505 18.2689L72.6159 22.2593C72.5095 22.9305 72.9669 23.5616 73.6381 23.6685ZM80.5961 25.7076C81.1984 26.0148 81.9423 25.7766 82.2511 25.1691L84.0991 21.5363C84.4068 20.9299 84.1652 20.1896 83.5594 19.8813C82.9542 19.5748 82.2133 19.8152 81.9044 20.4209L80.0576 24.0525C79.7493 24.6583 79.9903 25.3993 80.5961 25.7076ZM91.212 25.1361C90.7295 24.6571 89.9506 24.6595 89.4717 25.1445L86.581 28.0622C86.1027 28.5447 86.1063 29.3242 86.5895 29.8025C87.0723 30.2806 87.8511 30.2776 88.3298 29.7941L91.2205 26.8765C91.6988 26.3939 91.6952 25.6144 91.212 25.1361ZM96.8028 33.0033C96.4957 32.3969 95.7541 32.1535 95.1489 32.46L91.4975 34.3056C90.8905 34.612 90.6471 35.3524 90.9536 35.9588C91.2618 36.5699 92.0064 36.807 92.6069 36.5027L96.2595 34.6571C96.8659 34.3506 97.1093 33.6102 96.8028 33.0033ZM98.1556 42.3993L94.1369 42.8146C93.4608 42.8843 92.9693 43.4894 93.0396 44.1655C93.1114 44.8594 93.7387 45.3353 94.3905 45.2629L98.408 44.8476C99.084 44.7779 99.5756 44.1733 99.5059 43.4973C99.4362 42.8212 98.8298 42.3242 98.1556 42.3993ZM71.5205 54.3379C71.6559 51.8394 72.4189 49.3902 73.7112 47.224H66.2897C67.582 49.3902 68.3328 51.8394 68.4805 54.3379L69.2067 65.6979H70.7943L71.5205 54.3379Z" fill="#4EAC4C" stroke="#246D23"/>
<path d="M71.0896 27.0637C60.505 26.4607 51.7173 34.8669 51.7173 45.3038C51.7173 49.3284 52.9973 53.1438 55.4096 56.3437C57.5511 59.1622 59.2127 62.313 60.3696 65.6976H66.7327L66.0311 54.4853C65.8958 52.233 65.1819 50.0422 63.9635 48.1345C63.5204 47.4576 63.4958 46.5961 63.8773 45.8822C64.2588 45.193 64.985 44.7622 65.7726 44.7622H74.228C75.0157 44.7622 75.7419 45.193 76.1235 45.8822C76.505 46.5837 76.4804 47.4576 76.0373 48.1345C74.8188 50.0422 74.105 52.233 73.9696 54.4853L73.2681 65.6976H79.7911C80.9973 62.3007 82.7204 58.9899 84.9357 55.8638C87.3973 52.3684 88.5665 48.0853 88.2219 43.7776C87.4834 34.7684 80.1111 27.5807 71.0896 27.0637ZM62.265 75.9007C62.3388 77.513 63.6435 78.7684 65.2189 78.7684H74.7696C76.3573 78.7684 77.6496 77.5376 77.7234 75.9745C77.8485 73.3576 78.2796 70.7409 79.0016 68.164H61.1102C61.7594 70.6504 62.1526 73.2398 62.265 75.9007Z" fill="#4EAC4C" stroke="#246D23"/>
</svg>
