<svg width="110" height="90" viewBox="0 0 110 90" fill="none" xmlns="http://www.w3.org/2000/svg">
<circle cx="45" cy="45" r="45" fill="#4EAC4C" fill-opacity="0.1"/>
<path fill-rule="evenodd" clip-rule="evenodd" d="M40.5015 56.1724L45.0335 73.6857C45.2526 74.5324 44.7389 75.4048 43.8922 75.6239L40.5207 76.4962C39.674 76.7153 38.8017 76.2017 38.5826 75.355L34.0506 57.8417C33.8315 56.9951 34.3451 56.1227 35.1918 55.9036L38.5633 55.0312C39.41 54.8121 40.2824 55.3258 40.5015 56.1724ZM66.6766 77.1864L88.8888 70.5309C89.9618 70.2107 90.4827 68.6698 90.1729 67.6465C89.4675 65.3135 85.425 66.1305 83.7991 66.5727L72.0714 69.7628C69.5578 70.4458 66.9864 69.8632 64.7585 68.5767C62.4384 67.4242 60.2707 66.0334 58.0316 64.7413C57.4594 64.4122 57.2619 63.6819 57.591 63.1097C57.92 62.5375 58.6503 62.34 59.2226 62.6691C61.4159 63.9355 63.5515 65.3055 65.8211 66.4331C68.5915 67.5454 69.752 64.348 67.809 62.9973C64.6695 61.5078 61.7843 59.4974 59.5155 57.9164C56.2716 55.6556 55.4618 55.1002 51.3616 56.2053L43.5351 58.3153L46.2895 68.9595C46.8777 68.8022 47.5495 68.5012 48.1257 68.8319L61.4336 76.5147C63.2682 77.4304 64.6358 77.7956 66.6766 77.1864ZM37.8266 57.5729C37.2327 57.5031 36.6958 57.9284 36.6259 58.5215C36.5561 59.1154 36.9815 59.6523 37.5746 59.7221C38.1684 59.7919 38.7054 59.3666 38.7752 58.7735C38.845 58.1804 38.4204 57.6427 37.8266 57.5729ZM99.4985 40.3141L94.9665 22.8008C94.7474 21.9541 95.2611 21.0817 96.1078 20.8626L99.4793 19.9903C100.326 19.7712 101.198 20.2848 101.417 21.1315L105.949 38.6455C106.169 39.4922 105.655 40.3646 104.808 40.5837L101.437 41.4561C100.59 41.6744 99.7176 41.1607 99.4985 40.3141ZM73.3234 19.3001L51.1112 25.9564C50.0382 26.2766 49.5173 27.8175 49.8271 28.8408C50.5325 31.1738 54.575 30.3568 56.2009 29.9146L67.9286 26.7245C70.4422 26.0415 73.0136 26.6241 75.2415 27.9106C77.5616 29.0631 79.7293 30.4539 81.9684 31.746C82.5407 32.0751 82.7381 32.8054 82.409 33.3776C82.08 33.9498 81.3497 34.1473 80.7775 33.8182C78.5841 32.5518 76.4485 31.1818 74.1789 30.0542C71.4085 28.9419 70.248 32.1393 72.191 33.49C75.3305 34.9795 78.2157 36.9899 80.4845 38.5709C83.7284 40.8317 84.5382 41.3871 88.6384 40.2819L96.4649 38.172L93.7105 27.5278C93.1223 27.6851 92.4505 27.9861 91.8743 27.6554L78.5664 19.9726C76.7318 19.0561 75.3642 18.6909 73.3234 19.3001ZM102.173 38.9136C102.767 38.9834 103.304 38.5581 103.374 37.965C103.444 37.3711 103.019 36.8342 102.425 36.7644C101.832 36.6945 101.295 37.1199 101.225 37.713C101.155 38.3061 101.58 38.8438 102.173 38.9136Z" fill="#4EAC4C"/>
<path d="M83.6289 53.0216L85.1521 57.9886L80.0897 59.1523L78.95 58.4942L78.3425 55.6765L75.5986 56.5593L74.9911 53.7415L72.2471 54.6243L66.2529 51.1637C63.9889 52.561 61.0508 52.7014 58.5853 51.2785M40.5015 56.1724L45.0335 73.6857C45.2526 74.5324 44.7389 75.4048 43.8922 75.6239L40.5207 76.4962C39.674 76.7153 38.8017 76.2017 38.5826 75.355L34.0506 57.8417C33.8315 56.9951 34.3451 56.1227 35.1918 55.9036L38.5633 55.0312C39.41 54.8121 40.2824 55.3258 40.5015 56.1724ZM66.6766 77.1864L88.8888 70.5309C89.9618 70.2107 90.4827 68.6698 90.1729 67.6465C89.4675 65.3135 85.425 66.1305 83.7991 66.5727L72.0714 69.7628C69.5578 70.4458 66.9864 69.8632 64.7585 68.5767C62.4384 67.4242 60.2707 66.0334 58.0316 64.7413C57.4594 64.4122 57.2619 63.6819 57.591 63.1097C57.92 62.5375 58.6503 62.34 59.2226 62.6691C61.4159 63.9355 63.5515 65.3055 65.8211 66.4331C68.5915 67.5454 69.752 64.348 67.809 62.9973C64.6695 61.5078 61.7843 59.4974 59.5155 57.9164C56.2716 55.6556 55.4618 55.1002 51.3616 56.2053L43.5351 58.3153L46.2895 68.9595C46.8777 68.8022 47.5495 68.5012 48.1257 68.8319L61.4336 76.5147C63.2682 77.4304 64.6358 77.7956 66.6766 77.1864ZM37.8266 57.5729C37.2327 57.5031 36.6958 57.9284 36.6259 58.5215C36.5561 59.1154 36.9815 59.6523 37.5746 59.7221C38.1684 59.7919 38.7054 59.3666 38.7752 58.7735C38.845 58.1804 38.4204 57.6427 37.8266 57.5729ZM99.4985 40.3141L94.9665 22.8008C94.7474 21.9541 95.2611 21.0817 96.1078 20.8626L99.4793 19.9903C100.326 19.7712 101.198 20.2848 101.417 21.1315L105.949 38.6455C106.169 39.4922 105.655 40.3646 104.808 40.5837L101.437 41.4561C100.59 41.6744 99.7176 41.1607 99.4985 40.3141ZM73.3234 19.3001L51.1112 25.9564C50.0382 26.2766 49.5173 27.8175 49.8271 28.8408C50.5325 31.1738 54.575 30.3568 56.2009 29.9146L67.9286 26.7245C70.4422 26.0415 73.0136 26.6241 75.2415 27.9106C77.5616 29.0631 79.7293 30.4539 81.9684 31.746C82.5407 32.0751 82.7381 32.8054 82.409 33.3776C82.08 33.9498 81.3497 34.1473 80.7775 33.8182C78.5841 32.5518 76.4485 31.1818 74.1789 30.0542C71.4085 28.9419 70.248 32.1393 72.191 33.49C75.3305 34.9795 78.2157 36.9899 80.4845 38.5709C83.7284 40.8317 84.5382 41.3871 88.6384 40.2819L96.4649 38.172L93.7105 27.5278C93.1223 27.6851 92.4505 27.9861 91.8743 27.6554L78.5664 19.9726C76.7318 19.0561 75.3642 18.6909 73.3234 19.3001ZM102.173 38.9136C102.767 38.9834 103.304 38.5581 103.374 37.965C103.444 37.3711 103.019 36.8342 102.425 36.7644C101.832 36.6945 101.295 37.1199 101.225 37.713C101.155 38.3061 101.58 38.8438 102.173 38.9136Z" stroke="#246D23"/>
<path fill-rule="evenodd" clip-rule="evenodd" d="M60.7559 41.6814C61.983 41.6814 62.9782 42.6766 62.9782 43.9029C62.9782 45.13 61.983 46.1251 60.7559 46.1251C59.5288 46.1251 58.5337 45.13 58.5337 43.9029C58.5337 42.6766 59.5288 41.6814 60.7559 41.6814ZM85.1518 57.9884L83.6286 53.0215L69.7926 45.0329C69.8705 42.374 68.5238 39.7585 66.0584 38.3348C62.4838 36.2714 57.9133 37.4961 55.8499 41.0699C53.7866 44.6444 55.0113 49.215 58.585 51.2783C61.0505 52.7012 63.9886 52.5608 66.2526 51.1636L72.2468 54.6241L74.9908 53.7413L75.5983 56.5591L78.3422 55.6763L78.9497 58.494L80.0894 59.1521L85.1518 57.9884Z" fill="#4EAC4C" stroke="#246D23"/>
</svg>
