<svg width="110" height="90" viewBox="0 0 110 90" fill="none" xmlns="http://www.w3.org/2000/svg">
<circle cx="45" cy="45" r="45" fill="#4EAC4C" fill-opacity="0.1"/>
<path d="M77.9999 68C77.6666 69.8761 76.681 71.5741 75.2171 72.794C73.7533 74.0139 71.9054 74.6772 69.9999 74.6667C62.1188 74.676 54.5367 71.6509 48.8266 66.2189C43.1166 60.7869 39.717 53.3651 39.3332 45.4933C39.1599 42.2933 39.7732 39.52 42.4932 37.4933C43.5139 36.7016 44.7218 36.1872 45.9999 36L55.3332 45.3333C55.0151 47.2166 54.0337 48.9239 52.5665 50.1466C51.0992 51.3693 49.243 52.0267 47.3332 52C48.5255 55.3859 50.462 58.4613 53.0003 60.9996C55.5386 63.5379 58.614 65.4744 61.9999 66.6667C61.9732 64.7569 62.6307 62.9007 63.8534 61.4334C65.0761 59.9662 66.7833 58.9848 68.6666 58.6667L77.9999 68Z" fill="#4EAC4C"/>
<path opacity="0.5" d="M100.667 26.6668C100.667 37.6402 100.933 38.2802 99.9465 40.0002C99.4789 40.8101 98.8065 41.4829 97.9967 41.9509C97.187 42.419 96.2684 42.6659 95.3332 42.6668H88.6665L75.3332 50.6668V42.6668H65.9998C64.5853 42.6668 63.2288 42.1049 62.2286 41.1047C61.2284 40.1045 60.6665 38.748 60.6665 37.3335V26.6668C60.6665 25.2523 61.2284 23.8958 62.2286 22.8956C63.2288 21.8954 64.5853 21.3335 65.9998 21.3335H95.3332C96.7477 21.3335 98.1042 21.8954 99.1044 22.8956C100.105 23.8958 100.667 25.2523 100.667 26.6668Z" fill="#4EAC4C"/>
<path d="M72.6665 29.0137C72.6665 28.3913 72.4193 27.7944 71.9792 27.3543C71.5391 26.9142 70.9422 26.667 70.3198 26.667H65.9998C65.6462 26.667 65.3071 26.8075 65.057 27.0575C64.807 27.3076 64.6665 27.6467 64.6665 28.0003C64.6665 28.354 64.807 28.6931 65.057 28.9431C65.3071 29.1932 65.6462 29.3337 65.9998 29.3337H69.9998C69.5865 31.067 64.6665 30.8537 64.6665 34.987C64.6665 35.6094 64.9137 36.2063 65.3538 36.6463C65.7939 37.0864 66.3908 37.3337 67.0132 37.3337H71.3332C71.6868 37.3337 72.0259 37.1932 72.276 36.9431C72.526 36.6931 72.6665 36.354 72.6665 36.0003C72.6665 35.6467 72.526 35.3076 72.276 35.0575C72.0259 34.8075 71.6868 34.667 71.3332 34.667H67.3332C67.7865 32.9203 72.6665 33.1603 72.6665 29.0137ZM79.3332 28.0003V30.667H76.6665V28.0003C76.6665 27.6467 76.526 27.3076 76.276 27.0575C76.0259 26.8075 75.6868 26.667 75.3332 26.667C74.9795 26.667 74.6404 26.8075 74.3904 27.0575C74.1403 27.3076 73.9998 27.6467 73.9998 28.0003V32.0003C73.9998 32.354 74.1403 32.6931 74.3904 32.9431C74.6404 33.1932 74.9795 33.3337 75.3332 33.3337H79.3332V36.0003C79.3332 36.354 79.4736 36.6931 79.7237 36.9431C79.9737 37.1932 80.3129 37.3337 80.6665 37.3337C81.0201 37.3337 81.3593 37.1932 81.6093 36.9431C81.8594 36.6931 81.9998 36.354 81.9998 36.0003V28.0003C81.9998 27.6467 81.8594 27.3076 81.6093 27.0575C81.3593 26.8075 81.0201 26.667 80.6665 26.667C80.3129 26.667 79.9737 26.8075 79.7237 27.0575C79.4736 27.3076 79.3332 27.6467 79.3332 28.0003ZM91.3332 26.667C90.9795 26.667 90.6404 26.8075 90.3904 27.0575C90.1403 27.3076 89.9998 27.6467 89.9998 28.0003C89.9998 28.354 90.1403 28.6931 90.3904 28.9431C90.6404 29.1932 90.9795 29.3337 91.3332 29.3337H93.1732L90.1465 35.4003C90.0171 35.7111 90.01 36.0594 90.1267 36.3751C90.2435 36.6909 90.4753 36.9509 90.7758 37.1028C91.0762 37.2547 91.423 37.2873 91.7465 37.1941C92.07 37.1009 92.3463 36.8888 92.5198 36.6003C96.8665 27.907 96.9998 28.147 96.5198 27.267C96.0398 26.387 95.5598 26.667 91.3332 26.667ZM85.9998 26.347L83.3332 37.0137C83.2634 37.3512 83.3271 37.7027 83.5108 37.9943C83.6945 38.2859 83.9841 38.4951 84.3187 38.5778C84.6533 38.6606 85.0069 38.6106 85.3054 38.4383C85.604 38.266 85.8242 37.9848 85.9198 37.6537L88.5865 26.987C88.6563 26.6495 88.5926 26.298 88.4089 26.0064C88.2251 25.7147 87.9356 25.5056 87.601 25.4228C87.2664 25.34 86.9128 25.39 86.6142 25.5623C86.3157 25.7346 86.0955 26.0159 85.9998 26.347Z" fill="white"/>
</svg>
