<svg width="110" height="90" viewBox="0 0 110 90" fill="none" xmlns="http://www.w3.org/2000/svg">
<path fill-rule="evenodd" clip-rule="evenodd" d="M68.1637 22.4138H76.8757C77.3478 22.4138 77.7329 22.8181 77.7329 23.3137V44.8785C77.7329 45.3741 77.3478 45.7784 76.8757 45.7784H68.1637V22.4138ZM104.862 63.6473L88.8181 52.7824L72.7746 63.6473C81.7606 63.6473 99.6402 63.6473 104.862 63.6473ZM100.896 66.0477V84H92.5349V74.4742H85.1014V83.9992H76.7403V66.0477H100.896ZM46.7126 12H65.0203C65.4924 12 65.8774 12.4043 65.8774 12.8999V45.7784H60.4464V36.1501C60.4464 35.6545 60.0613 35.2502 59.5893 35.2502H52.4303C51.9583 35.2502 51.5732 35.6545 51.5732 36.1501V45.7792H45.8547V12.8999C45.8554 12.4043 46.2405 12 46.7126 12ZM49.3884 29.8689V32.2693H51.9424V29.8689H49.3884ZM59.7905 29.8689V32.2693H62.3445V29.8689H59.7905ZM54.5894 29.8689V32.2693H57.1434V29.8689H54.5894ZM49.3884 24.9968V27.3971H51.9424V24.9968H49.3884ZM59.7905 24.9968V27.3971H62.3445V24.9968H59.7905ZM54.5894 24.9968V27.3971H57.1434V24.9968H54.5894ZM49.3884 20.1255V22.5258H51.9424V20.1255H49.3884ZM59.7905 20.1255V22.5258H62.3445V20.1255H59.7905ZM54.5894 20.1255V22.5258H57.1434V20.1255H54.5894ZM49.3884 15.2534V17.6537H51.9424V15.2534H49.3884ZM59.7905 15.2534V17.6537H62.3445V15.2534H59.7905ZM54.5894 15.2534V17.6537H57.1434V15.2534H54.5894ZM34.8571 22.4138H43.5692V45.7792H34.8571C34.3851 45.7792 34 45.3749 34 44.8793V23.3137C34 22.8181 34.3851 22.4138 34.8571 22.4138ZM39.9273 27.2955H37.6419V29.977H39.9281L39.9273 27.2955ZM39.9273 38.216H37.6419V40.8975H39.9281L39.9273 38.216ZM39.9273 32.7554H37.6419V35.4369H39.9281L39.9273 32.7554ZM74.091 27.2955H71.8048V29.977H74.091V27.2955ZM74.091 38.216H71.8048V40.8975H74.091V38.216ZM74.091 32.7554H71.8048V35.4369H74.091V32.7554Z" fill="#4EAC4C" stroke="#246D23" stroke-width="0.5"/>
<circle cx="45" cy="45" r="45" fill="#4EAC4C" fill-opacity="0.1"/>
<path d="M80.1689 26.7426C80.1689 27.4059 80.6811 27.9428 81.312 27.9428H95.2683V30.2788C94.8938 29.8491 94.2652 29.7609 93.7916 30.0977C93.2719 30.4678 93.1357 31.2105 93.4882 31.7569L95.4695 34.8229C95.9303 35.5377 96.9296 35.5123 97.3669 34.8022L99.3346 31.7569C99.6871 31.2105 99.5517 30.4678 99.0312 30.0977C98.5584 29.7609 97.9297 29.8483 97.5545 30.2788V26.7426C97.5545 26.0794 97.0424 25.5425 96.4114 25.5425H81.312C80.6803 25.5425 80.1689 26.0802 80.1689 26.7426Z" fill="#4EAC4C"/>
<path d="M100.865 37.5179C100.401 37.0723 99.6819 37.1056 99.2574 37.5925C98.5198 38.44 97.5121 38.9531 96.4114 38.9531C95.3107 38.9531 94.303 38.44 93.5654 37.5925C93.141 37.1064 92.4215 37.0723 91.9578 37.5179C91.4948 37.9635 91.4623 38.7188 91.8867 39.2057C93.0585 40.552 94.6654 41.3534 96.4114 41.3534C98.1575 41.3534 99.7643 40.552 100.936 39.2057C101.361 38.7188 101.329 37.9635 100.865 37.5179Z" fill="#4EAC4C"/>
<path d="M105.63 42.9936C105.167 42.548 104.447 42.5814 104.023 43.0683C102.051 45.3344 99.352 46.6966 96.4114 46.6966C93.4708 46.6966 90.7723 45.3344 88.8001 43.0683C88.3757 42.5822 87.6562 42.548 87.1925 42.9936C86.7295 43.4392 86.6969 44.1946 87.1214 44.6815C89.5278 47.4464 92.8248 49.0977 96.4114 49.0977C99.9981 49.0977 103.296 47.4464 105.701 44.6815C106.126 44.1946 106.094 43.4392 105.63 42.9936Z" fill="#4EAC4C"/>
<path d="M96.4114 45.2248C93.7454 45.2248 91.2928 43.9984 89.5044 41.9428C89.0807 41.4559 89.1125 40.7005 89.5755 40.255C90.0393 39.8094 90.7587 39.8427 91.1831 40.3296C92.5373 41.8856 94.3908 42.8237 96.4114 42.8237C98.4313 42.8237 100.285 41.8864 101.64 40.3296C102.064 39.8435 102.784 39.8094 103.247 40.255C103.71 40.7005 103.743 41.4559 103.318 41.9428C101.53 43.9984 99.0774 45.2248 96.4114 45.2248Z" fill="#4EAC4C"/>
<path d="M80.1689 26.7426C80.1689 27.4059 80.6811 27.9428 81.312 27.9428H95.2683V30.2788C94.8938 29.8491 94.2652 29.7609 93.7916 30.0977C93.2719 30.4678 93.1357 31.2105 93.4882 31.7569L95.4695 34.8229C95.9303 35.5377 96.9296 35.5123 97.3669 34.8022L99.3346 31.7569C99.6871 31.2105 99.5517 30.4678 99.0312 30.0977C98.5584 29.7609 97.9297 29.8483 97.5545 30.2788V26.7426C97.5545 26.0794 97.0424 25.5425 96.4114 25.5425H81.312C80.6803 25.5425 80.1689 26.0802 80.1689 26.7426Z" stroke="#246D23" stroke-width="0.5"/>
<path d="M100.865 37.5179C100.401 37.0723 99.6819 37.1056 99.2574 37.5925C98.5198 38.44 97.5121 38.9531 96.4114 38.9531C95.3107 38.9531 94.303 38.44 93.5654 37.5925C93.141 37.1064 92.4215 37.0723 91.9578 37.5179C91.4948 37.9635 91.4623 38.7188 91.8867 39.2057C93.0585 40.552 94.6654 41.3534 96.4114 41.3534C98.1575 41.3534 99.7643 40.552 100.936 39.2057C101.361 38.7188 101.329 37.9635 100.865 37.5179Z" stroke="#246D23" stroke-width="0.5"/>
<path d="M105.63 42.9936C105.167 42.548 104.447 42.5814 104.023 43.0683C102.051 45.3344 99.352 46.6966 96.4114 46.6966C93.4708 46.6966 90.7723 45.3344 88.8001 43.0683C88.3757 42.5822 87.6562 42.548 87.1925 42.9936C86.7295 43.4392 86.6969 44.1946 87.1214 44.6815C89.5278 47.4464 92.8248 49.0977 96.4114 49.0977C99.9981 49.0977 103.296 47.4464 105.701 44.6815C106.126 44.1946 106.094 43.4392 105.63 42.9936Z" stroke="#246D23" stroke-width="0.5"/>
<path d="M96.4114 45.2248C93.7454 45.2248 91.2928 43.9984 89.5044 41.9428C89.0807 41.4559 89.1125 40.7005 89.5755 40.255C90.0393 39.8094 90.7587 39.8427 91.1831 40.3296C92.5373 41.8856 94.3908 42.8237 96.4114 42.8237C98.4313 42.8237 100.285 41.8864 101.64 40.3296C102.064 39.8435 102.784 39.8094 103.247 40.255C103.71 40.7005 103.743 41.4559 103.318 41.9428C101.53 43.9984 99.0774 45.2248 96.4114 45.2248Z" stroke="#246D23" stroke-width="0.5"/>
<path d="M74.8311 75.355C74.8311 74.6918 74.3189 74.1549 73.688 74.1549H59.7317V71.8189C60.1062 72.2486 60.7348 72.3367 61.2084 72C61.7281 71.6298 61.8643 70.8872 61.5118 70.3407L59.5305 67.2748C59.0697 66.5599 58.0704 66.5854 57.6331 67.2954L55.6654 70.3407C55.3129 70.8872 55.4483 71.6298 55.9688 72C56.4416 72.3367 57.0703 72.2494 57.4455 71.8189V75.355C57.4455 76.0182 57.9576 76.5552 58.5886 76.5552H73.688C74.3197 76.5552 74.8311 76.0174 74.8311 75.355Z" fill="#4EAC4C"/>
<path d="M54.135 64.5798C54.5987 65.0254 55.3181 64.992 55.7426 64.5051C56.4802 63.6576 57.4879 63.1445 58.5886 63.1445C59.6893 63.1445 60.697 63.6576 61.4346 64.5051C61.859 64.9912 62.5785 65.0254 63.0422 64.5798C63.5052 64.1342 63.5377 63.3788 63.1133 62.8919C61.9415 61.5456 60.3346 60.7442 58.5886 60.7442C56.8425 60.7442 55.2357 61.5456 54.0638 62.8919C53.6394 63.3788 53.6712 64.1342 54.135 64.5798Z" fill="#4EAC4C"/>
<path d="M49.3696 59.104C49.8334 59.5496 50.5528 59.5163 50.9772 59.0294C52.9487 56.7633 55.648 55.4011 58.5886 55.4011C61.5292 55.4011 64.2277 56.7633 66.1999 59.0294C66.6243 59.5155 67.3438 59.5496 67.8075 59.104C68.2705 58.6584 68.3031 57.9031 67.8786 57.4162C65.4722 54.6513 62.1752 53 58.5886 53C55.0019 53 51.7043 54.6513 49.2985 57.4162C48.8741 57.9031 48.9059 58.6584 49.3696 59.104Z" fill="#4EAC4C"/>
<path d="M58.5886 56.8729C61.2546 56.8729 63.7072 58.0993 65.4956 60.1549C65.9193 60.6417 65.8875 61.3971 65.4245 61.8427C64.9607 62.2883 64.2413 62.2549 63.8169 61.768C62.4627 60.212 60.6092 59.274 58.5886 59.274C56.5687 59.274 54.7152 60.2113 53.3603 61.768C52.9359 62.2541 52.2164 62.2883 51.7527 61.8427C51.2897 61.3971 51.2572 60.6417 51.6816 60.1549C53.47 58.0993 55.9226 56.8729 58.5886 56.8729Z" fill="#4EAC4C"/>
<path d="M74.8311 75.355C74.8311 74.6918 74.3189 74.1549 73.688 74.1549H59.7317V71.8189C60.1062 72.2486 60.7348 72.3367 61.2084 72C61.7281 71.6298 61.8643 70.8872 61.5118 70.3407L59.5305 67.2748C59.0697 66.5599 58.0704 66.5854 57.6331 67.2954L55.6654 70.3407C55.3129 70.8872 55.4483 71.6298 55.9688 72C56.4416 72.3367 57.0703 72.2494 57.4455 71.8189V75.355C57.4455 76.0182 57.9576 76.5552 58.5886 76.5552H73.688C74.3197 76.5552 74.8311 76.0174 74.8311 75.355Z" stroke="#246D23" stroke-width="0.5"/>
<path d="M54.135 64.5798C54.5987 65.0254 55.3181 64.992 55.7426 64.5051C56.4802 63.6576 57.4879 63.1445 58.5886 63.1445C59.6893 63.1445 60.697 63.6576 61.4346 64.5051C61.859 64.9912 62.5785 65.0254 63.0422 64.5798C63.5052 64.1342 63.5377 63.3788 63.1133 62.8919C61.9415 61.5456 60.3346 60.7442 58.5886 60.7442C56.8425 60.7442 55.2357 61.5456 54.0638 62.8919C53.6394 63.3788 53.6712 64.1342 54.135 64.5798Z" stroke="#246D23" stroke-width="0.5"/>
<path d="M49.3696 59.104C49.8334 59.5496 50.5528 59.5163 50.9772 59.0294C52.9487 56.7633 55.648 55.4011 58.5886 55.4011C61.5292 55.4011 64.2277 56.7633 66.1999 59.0294C66.6243 59.5155 67.3438 59.5496 67.8075 59.104C68.2705 58.6584 68.3031 57.9031 67.8786 57.4162C65.4722 54.6513 62.1752 53 58.5886 53C55.0019 53 51.7043 54.6513 49.2985 57.4162C48.8741 57.9031 48.9059 58.6584 49.3696 59.104Z" stroke="#246D23" stroke-width="0.5"/>
<path d="M58.5886 56.8729C61.2546 56.8729 63.7072 58.0993 65.4956 60.1549C65.9193 60.6417 65.8875 61.3971 65.4245 61.8427C64.9607 62.2883 64.2413 62.2549 63.8169 61.768C62.4627 60.212 60.6092 59.274 58.5886 59.274C56.5687 59.274 54.7152 60.2113 53.3603 61.768C52.9359 62.2541 52.2164 62.2883 51.7527 61.8427C51.2897 61.3971 51.2572 60.6417 51.6816 60.1549C53.47 58.0993 55.9226 56.8729 58.5886 56.8729Z" stroke="#246D23" stroke-width="0.5"/>
</svg>
