<svg width="110" height="90" viewBox="0 0 110 90" fill="none" xmlns="http://www.w3.org/2000/svg">
<path d="M85.5125 85C88.6989 85 91.3 82.3989 91.3 79.2125V16.7875C91.3 13.6011 88.6989 11 85.5125 11H83.2821L82.0862 13.8431L85.5125 85ZM85.5125 85H53.7875M85.5125 85H53.7875M53.7875 85C50.6024 85 48.0125 82.4002 48.0125 79.2125M53.7875 85L48.0125 79.2125M48.0125 79.2125C48 25.2749 48 16.9124 48 16.7875M48.0125 79.2125L48 16.7875M48 16.7875C48 13.6005 50.5893 11 53.7875 11M48 16.7875L53.7875 11M53.7875 11H56.0066M53.7875 11H56.0066M56.0066 11L57.2138 13.8431C57.2139 13.8434 57.2141 13.8438 57.2142 13.8442C58.193 16.1811 60.4632 17.675 62.9875 17.675H76.3125C78.8369 17.675 81.1072 16.181 82.0859 13.8439L56.0066 11ZM85.5125 7.5H53.7875C48.6614 7.5 44.5 11.6614 44.5 16.7875C44.5 16.9126 44.5 25.2751 44.5125 79.2126C44.5125 84.3382 48.6734 88.5 53.7875 88.5H85.5125C90.6257 88.5 94.8 84.3391 94.8 79.2125V16.7875C94.8 11.6609 90.6257 7.5 85.5125 7.5Z" fill="#4EAC4C" stroke="#246D23"/>
<path d="M81.575 38.7001C81.575 40.8876 79.8 42.6751 77.6125 42.6751H61.6875C59.5 42.6751 57.7125 40.8876 57.7125 38.7001C57.7125 36.5126 59.5 34.7251 61.6875 34.7251H77.6125C79.8 34.7251 81.575 36.5126 81.575 38.7001Z" fill="#4EAC4C" stroke="#246D23"/>
<path d="M78.0375 45.1504C76.65 47.6254 73.9625 49.3004 70.9 49.3004H68.4C65.3125 49.3004 62.625 47.6129 61.25 45.1504C61.3875 45.1754 61.5375 45.1754 61.6875 45.1754H77.6125C77.75 45.1754 77.9 45.1754 78.0375 45.1504Z" fill="#4EAC4C" stroke="#246D23"/>
<path d="M78.2375 32.2628C78.0375 32.2378 77.825 32.2253 77.6125 32.2253H61.6875C61.475 32.2253 61.2625 32.2378 61.05 32.2628C62.4875 28.9378 65.8 26.6128 69.65 26.6128C73.5 26.6128 76.8125 28.9378 78.2375 32.2628Z" fill="#4EAC4C" stroke="#246D23"/>
<path d="M71.275 68.4126C71.9625 68.4126 72.525 68.9751 72.525 69.6626C72.525 70.3501 71.9625 70.9126 71.275 70.9126H68.025C67.3375 70.9126 66.775 70.3501 66.775 69.6626C66.775 68.9751 67.3375 68.4126 68.025 68.4126H71.275Z" fill="#4EAC4C" stroke="#246D23"/>
<path opacity="0.2" d="M78.6625 79.2002C78.6625 79.8877 78.1 80.4502 77.4125 80.4502H61.8875C61.2 80.4502 60.6375 79.8877 60.6375 79.2002C60.6375 78.5002 61.2 77.9502 61.8875 77.9502H77.4125C78.1 77.9502 78.6625 78.5002 78.6625 79.2002Z" fill="#4EAC4C"/>
<path d="M59.55 69.6626C59.55 70.3501 58.9875 70.9126 58.3 70.9126H55.05C54.35 70.9126 53.8 70.3501 53.8 69.6626C53.8 68.9751 54.35 68.4126 55.05 68.4126H58.3C58.9875 68.4126 59.55 68.9751 59.55 69.6626Z" fill="#4EAC4C" stroke="#246D23"/>
<path d="M61.8875 60.5753C61.8875 63.4378 59.55 65.7753 56.675 65.7753C53.8 65.7753 51.4625 63.4378 51.4625 60.5753C51.4625 57.7003 53.8 55.3628 56.675 55.3628C59.55 55.3628 61.8875 57.7003 61.8875 60.5753Z" fill="#4EAC4C" stroke="#246D23"/>
<path d="M64.4375 60.5753C64.4375 57.7003 66.775 55.3628 69.65 55.3628C72.525 55.3628 74.8625 57.7003 74.8625 60.5753C74.8625 63.4378 72.525 65.7753 69.65 65.7753C66.775 65.7753 64.4375 63.4378 64.4375 60.5753Z" fill="#4EAC4C" stroke="#246D23"/>
<path d="M87.8375 60.5753C87.8375 63.4378 85.5 65.7753 82.625 65.7753C79.75 65.7753 77.4125 63.4378 77.4125 60.5753C77.4125 57.7003 79.75 55.3628 82.625 55.3628C85.5 55.3628 87.8375 57.7003 87.8375 60.5753Z" fill="#4EAC4C" stroke="#246D23"/>
<path d="M85.5 69.6626C85.5 70.3501 84.9375 70.9126 84.25 70.9126H81C80.3125 70.9126 79.75 70.3501 79.75 69.6626C79.75 68.9751 80.3125 68.4126 81 68.4126H84.25C84.9375 68.4126 85.5 68.9751 85.5 69.6626Z" fill="#4EAC4C" stroke="#246D23"/>
<circle cx="45" cy="45" r="45" fill="#4EAC4C" fill-opacity="0.1"/>
</svg>
