<svg width="22" height="30" viewBox="0 0 22 30" fill="none" xmlns="http://www.w3.org/2000/svg">
<path fill-rule="evenodd" clip-rule="evenodd" d="M5.13028 14.9114C5.18513 14.9517 5.20941 14.9696 5.24633 14.9965C5.14035 15.1001 5.03664 15.2014 4.93167 15.3042C4.96622 15.3282 4.99201 15.3462 5.02475 15.3689C4.91847 15.4697 4.81617 15.5667 4.70878 15.6684C4.73931 15.6907 4.76373 15.7085 4.79093 15.7284C4.73588 15.799 4.68611 15.8789 4.62305 15.9385C4.57898 15.9799 4.51506 15.9905 4.46277 16.02C4.40717 16.0515 4.50106 16.1553 4.44419 16.2225C4.38994 16.2864 4.32526 16.3363 4.24432 16.3914C4.29172 16.4274 4.31479 16.4451 4.35393 16.475C4.24759 16.5789 4.14429 16.6799 4.03972 16.7821C4.07256 16.8043 4.09915 16.822 4.12545 16.8398C4.00093 16.9745 3.87677 17.1091 3.7445 17.2526C3.78908 17.2846 3.81391 17.3026 3.83909 17.3207C3.7168 17.4582 3.59354 17.5967 3.4648 17.7416C3.51532 17.7796 3.53889 17.7974 3.55748 17.8112C3.4316 17.951 3.3088 18.0873 3.18086 18.2291C3.2272 18.2601 3.25374 18.2778 3.27928 18.295C3.15487 18.4303 3.03101 18.5654 2.89929 18.7089C2.94392 18.7406 2.9691 18.7584 2.99847 18.7794C2.87506 18.9118 2.75161 19.0441 2.62321 19.182C2.66326 19.2243 2.68935 19.2518 2.73287 19.2978C2.60468 19.365 2.45624 19.3929 2.41786 19.5824C2.44062 19.5976 2.46722 19.6156 2.4989 19.6368C2.39056 19.7264 2.28362 19.8154 2.16842 19.9108C2.21748 19.9629 2.24342 19.9906 2.29107 20.0413C2.08426 20.0965 1.95224 20.2477 1.86414 20.4594C1.89038 20.4775 1.91642 20.4954 1.9536 20.5207C1.93012 20.5424 1.91577 20.5738 1.89391 20.5732C1.7699 20.5692 1.70739 20.6327 1.68009 20.7968C1.67707 20.8146 1.65727 20.8268 1.6413 20.8292C1.61753 20.8324 1.57366 20.8088 1.56706 20.8241C1.53739 20.895 1.51744 20.9861 1.42829 20.9503C1.33576 20.9132 1.25179 20.8079 1.15518 20.7672C1.13342 20.758 1.11161 20.6816 1.09615 20.6494C1.00513 20.6419 0.928165 20.6356 0.812515 20.6262C0.913658 20.4719 0.990724 20.3546 1.07635 20.2244C0.967151 20.1992 0.941563 20.2617 0.910082 20.3387C0.888322 20.3917 0.812566 20.3934 0.764362 20.4165C0.643625 20.2265 0.741292 20.1632 0.782545 20.105C1.06003 19.7132 1.27803 19.2565 1.51084 18.8166C1.76098 18.3439 1.97072 17.827 2.23531 17.3711C2.41186 17.0666 2.56413 16.7363 2.74748 16.4416C2.9543 16.1093 3.12661 15.7385 3.34537 15.4213C3.48661 15.2162 3.59178 14.9727 3.73629 14.7693C3.87345 14.5763 4.00275 14.3658 4.12197 14.1515C4.25097 13.9195 4.38742 13.6965 4.52941 13.4809C4.79476 13.0777 5.05311 12.6662 5.32329 12.2683C5.50095 12.0068 5.66808 11.7291 5.83989 11.4588C6.09088 11.0642 6.36212 10.6943 6.60783 10.2926C6.82115 9.94372 7.08211 9.64991 7.30621 9.31264C7.49238 9.03263 7.69134 8.76915 7.88365 8.49715C8.22878 8.00841 8.57362 7.51927 8.9249 7.03818C9.15061 6.72931 9.3889 6.43465 9.60303 6.11173C9.92318 5.62923 10.2895 5.20643 10.6218 4.7411C10.8203 4.46274 11.0192 4.18629 11.2293 3.92259C11.4864 3.60027 11.7128 3.23696 11.9773 2.92493C12.3726 2.45828 12.7356 1.95078 13.1118 1.46004C13.3949 1.09092 13.6975 0.74681 13.9321 0.316703C13.9644 0.257568 14.0336 0.238707 14.0811 0.20459C14.2437 0.398568 14.0257 0.432188 14.1219 0.610837C14.1512 0.569508 14.1712 0.527641 14.2016 0.502199C14.2335 0.475334 14.2753 0.464325 14.3372 0.434661C14.3556 0.524709 14.3683 0.586372 14.3811 0.648468C14.4311 0.666551 14.489 0.629393 14.5392 0.7549C14.5644 0.817615 14.5064 0.923714 14.6241 0.949035C14.6244 0.959356 14.6271 0.971979 14.6243 0.979434C14.6038 1.03165 14.5863 1.08751 14.56 1.13334C14.4244 1.36967 14.306 1.6288 14.1446 1.83142C13.9238 2.1089 13.7387 2.42834 13.5251 2.71314C13.2042 3.14078 12.8817 3.56618 12.5649 3.99891C12.3641 4.27325 12.1721 4.55886 11.9751 4.84098C12.0073 4.86252 12.0339 4.88058 12.0606 4.89862C12.059 4.91014 12.0609 4.92704 12.0553 4.93098C12.0456 4.93808 11.7739 5.15273 11.7584 5.17127C11.668 5.27861 11.5773 5.38575 11.4819 5.49852C11.53 5.53262 11.5552 5.55056 11.6188 5.59554C11.5604 5.60601 11.5324 5.61443 11.5025 5.61533C11.4695 5.61634 11.4184 5.58995 11.4036 5.6108C11.3059 5.74796 11.2159 5.89458 11.1229 6.03925C11.1557 6.06272 11.1807 6.08045 11.2451 6.12649C11.1854 6.13616 11.1571 6.14376 11.127 6.14467C11.0942 6.14578 11.0436 6.12014 11.0287 6.14104C10.9312 6.2781 10.8412 6.42437 10.7481 6.56863C10.7813 6.59256 10.8062 6.61049 10.8713 6.65733C10.8102 6.6662 10.7818 6.6732 10.7517 6.67401C10.7189 6.67491 10.6687 6.65048 10.6538 6.67144C10.5564 6.80814 10.4665 6.95422 10.3735 7.09827C10.4071 7.12265 10.4316 7.14043 10.4976 7.18823C10.4351 7.1965 10.4052 7.21468 10.3767 7.20093C10.324 7.17544 10.3005 7.17992 10.269 7.22793C10.0938 7.49463 9.90897 7.74976 9.72396 8.0136C9.75802 8.03727 9.78386 8.05505 9.8111 8.07394C9.81539 8.23593 9.60454 7.99234 9.61139 8.19991C9.61411 8.28303 9.50843 8.32594 9.44451 8.3956C9.48713 8.42683 9.5114 8.44456 9.53483 8.46179C9.53296 8.47856 9.53311 8.49901 9.52757 8.51437C9.52541 8.52052 9.31723 8.61159 9.31174 8.61934C9.17886 8.80798 9.04604 8.99646 8.91074 9.18873C8.95038 9.21547 8.97703 9.23351 9.00433 9.25189C8.82662 9.34024 8.75888 9.40476 8.65365 9.5866C8.68085 9.60488 8.70735 9.62287 8.73364 9.64039C8.72775 9.65717 8.72624 9.68875 8.7147 9.69071C8.43898 9.73741 8.35698 10.0646 8.17877 10.2519C8.08488 10.3506 8.02534 10.4988 7.95009 10.6249C7.98127 10.6471 8.00625 10.665 8.03264 10.6838C8.02146 10.7032 8.01637 10.7309 8.00338 10.732C7.79057 10.7506 7.68721 10.9545 7.59095 11.1298C7.46684 11.356 7.27825 11.5052 7.19675 11.7803C7.21484 11.7932 7.24027 11.811 7.29054 11.8464L6.96747 12.0012C6.98666 12.0602 6.99789 12.0948 7.0122 12.1387C7.00671 12.2731 6.77113 12.1477 6.85489 12.4223C6.81092 12.4434 6.75662 12.463 6.70897 12.4948C6.68515 12.5108 6.6521 12.5573 6.66026 12.5759C6.69593 12.6568 6.67563 12.6765 6.63473 12.7074C6.57806 12.7497 6.43355 12.7021 6.515 12.9075C6.51933 12.9186 6.48342 12.9436 6.46438 12.9589C6.40655 13.0059 6.27478 12.9725 6.35286 13.1659C6.28979 13.2072 6.22668 13.2483 6.16543 13.2882C6.16865 13.3419 6.19077 13.4225 6.17117 13.4428C6.12367 13.4923 6.05693 13.5143 5.9979 13.5473C6.07728 13.7497 5.92799 13.7146 5.87797 13.7692C5.88034 13.7941 5.87842 13.808 5.88265 13.8131C5.89001 13.8219 5.90139 13.8243 5.91056 13.8316C5.92582 13.8438 5.94043 13.8576 5.97881 13.8914L5.68127 14.0339C5.73603 14.0744 5.75995 14.092 5.78498 14.1107C5.80856 14.2533 5.61635 14.1321 5.65352 14.3048C5.69049 14.4769 5.54437 14.4119 5.49485 14.4743C5.44237 14.5407 5.39044 14.6079 5.3306 14.6846C5.32914 14.6715 5.32768 14.6853 5.33191 14.6902C5.33936 14.699 5.3507 14.7015 5.35971 14.7087C5.37472 14.7208 5.38928 14.7348 5.42746 14.769L5.13028 14.9114Z" fill="#1C222B"/>
<path fill-rule="evenodd" clip-rule="evenodd" d="M20.6914 20.0559C21.6241 19.8567 21.4152 19.7714 21.4404 19.8813C21.5162 19.8863 21.5927 19.8912 21.7063 19.8987C21.6722 20.0065 21.6508 20.0745 21.629 20.1432C21.6473 20.1559 21.6731 20.1737 21.6989 20.1917C21.6941 20.2081 21.6942 20.2384 21.6832 20.2423C21.41 20.337 21.2245 20.5927 20.9502 20.6904C20.6751 20.7885 20.4006 20.901 20.1644 21.0735C19.9718 21.2139 19.7682 21.3263 19.5627 21.4391C19.4994 21.4738 19.4059 21.4153 19.359 21.5204C19.3239 21.5991 19.2126 21.6028 19.135 21.64L18.8796 21.7623C18.8022 21.7994 18.7246 21.8361 18.6475 21.8737C18.5704 21.9109 18.4937 21.9487 18.4179 21.9884C18.4124 21.9912 18.4145 22.0093 18.4092 22.0488C18.4887 22.0283 18.5558 22.0109 18.623 21.9934C18.6299 22.0087 18.6367 22.0239 18.6437 22.039C18.5644 22.0808 18.4857 22.1238 18.4056 22.1638C18.3212 22.2061 18.2358 22.2463 18.1501 22.286C18.1356 22.2928 18.1146 22.3043 18.1021 22.2944C17.9319 22.1591 17.8457 22.2271 17.7748 22.3721C17.7482 22.4265 17.6708 22.4287 17.6167 22.4546C16.8889 22.8032 16.1603 23.1499 15.4348 23.5028C15.3558 23.5413 15.2357 23.5253 15.2305 23.6841C15.2301 23.6912 15.2144 23.6989 15.2084 23.6947C15.0867 23.6082 15.0963 23.8196 15.0145 23.7822C14.909 23.7341 14.8705 23.7697 14.8388 23.8658C14.8292 23.8952 14.7615 23.8832 14.7183 23.8737C14.6578 23.8603 14.6378 23.8113 14.6585 23.7501C14.6435 23.7393 14.6262 23.7196 14.6141 23.7199C14.5979 23.7205 14.5736 23.7321 14.5743 23.7465C14.5765 23.7902 14.5997 23.8438 14.5948 23.8814C14.5883 23.9313 14.5738 23.9924 14.5429 24.008C14.4898 24.0347 14.3909 23.998 14.366 24.0458C14.3262 24.1228 14.2842 24.1357 14.2038 24.1267C14.1491 24.1207 14.1169 24.2139 14.0639 24.2409C13.8504 24.3499 13.6326 24.4502 13.4215 24.5513C13.3748 24.5085 13.3354 24.4724 13.2961 24.4364C13.2852 24.488 13.2744 24.5397 13.2542 24.6363C13.1805 24.7145 12.9605 24.6576 12.9813 24.9433C12.9311 24.9097 12.8845 24.8786 12.8431 24.8509C12.6971 25.0176 12.5248 25.1141 12.3028 25.106C12.1815 25.3237 11.9371 25.3017 11.773 25.435C11.7456 25.3676 11.7197 25.2886 11.7126 25.2885C11.6225 25.2859 11.6825 25.3814 11.6947 25.4589L11.4486 25.5767C11.461 25.6345 11.4708 25.6804 11.4813 25.7289C11.4666 25.7259 11.4497 25.7292 11.4377 25.7186C11.3442 25.6366 11.2485 25.6304 11.211 25.705C11.1234 25.88 10.9524 25.8914 10.8171 25.9711C10.7005 26.0398 10.5743 26.09 10.4747 26.2011C10.5546 26.1769 10.6347 26.1529 10.7146 26.1286C10.5553 26.2329 10.4448 26.4668 10.2043 26.2915C10.1244 26.3539 10.0663 26.4158 9.99547 26.4521C9.77551 26.5647 9.55076 26.6677 9.33255 26.7722C9.34786 26.8393 9.35814 26.8851 9.37386 26.9535C9.29477 26.8848 9.23035 26.8288 9.16593 26.7729C9.19696 26.878 9.20884 26.9969 9.10886 26.9588C9.00313 26.9184 8.98722 26.9884 8.93236 27.039C8.83198 27.1311 8.69401 27.1656 8.5902 27.272C8.65452 27.2582 8.71884 27.2444 8.78654 27.2301C8.788 27.2578 8.79546 27.2896 8.78906 27.2928C8.61992 27.3768 8.45465 27.4703 8.2772 27.5356C8.14624 27.5836 7.9842 27.5556 7.86946 27.6484C7.85087 27.6637 7.8347 27.6828 7.83284 27.7331C7.89973 27.7134 7.96662 27.6936 8.03356 27.6737C7.85399 27.7974 7.70263 27.9697 7.4536 27.9523C7.34339 27.9446 7.25464 28.0374 7.16826 28.1254C7.21863 28.121 7.2691 28.1166 7.32113 28.112C7.32249 28.1343 7.33035 28.1662 7.3239 28.1694C7.24794 28.2089 7.16982 28.2439 7.09225 28.2801C6.97887 28.1498 7.02359 28.4025 6.91328 28.334C6.84156 28.2895 6.82831 28.4813 6.68929 28.404C6.61368 28.3622 6.52428 28.4693 6.45985 28.5568C6.52639 28.5424 6.59308 28.5283 6.6638 28.513C6.66113 28.5423 6.66551 28.5724 6.657 28.5768C6.54226 28.6349 6.42172 28.6821 6.31036 28.747C6.09306 28.8734 5.86302 28.9818 5.67313 29.152C5.57077 29.2437 5.45749 29.3068 5.35025 29.3851C5.25813 29.4522 5.1858 29.5539 5.24443 29.7776C5.20413 29.7969 5.12631 29.8642 5.1047 29.8394C5.01026 29.7309 4.89914 29.7681 4.82414 29.6718C4.75327 29.5807 4.70179 29.5668 4.62422 29.5458C4.46767 29.5035 4.3564 29.3324 4.32724 29.1276C4.27299 29.0926 4.21809 29.0574 4.16444 29.0228C4.15346 28.9964 4.13387 28.9678 4.13533 28.9502C4.14989 28.7577 4.21456 28.6317 4.34064 28.5389C4.54716 28.3869 4.71821 28.1738 4.95903 28.0791C5.03267 27.8904 5.21672 27.8952 5.34633 27.8045C5.44777 27.7338 5.53884 27.6443 5.64331 27.5794C5.74541 27.516 5.89143 27.5124 5.95933 27.4118C6.05715 27.267 6.19521 27.2132 6.33448 27.1654C6.51355 27.1041 6.61958 26.9244 6.78872 26.851C6.96184 26.7754 7.15959 26.7329 7.29403 26.5982C7.55333 26.3382 7.92018 26.2977 8.1951 26.0826C8.53585 25.8159 8.95976 25.7134 9.30016 25.4596C9.75858 25.1175 10.299 24.9517 10.7869 24.6757C10.8466 24.6419 10.9109 24.6169 10.9722 24.5859C11.0239 24.5599 11.0917 24.5547 11.084 24.4491C11.1655 24.5483 11.1661 24.396 11.2404 24.427C11.2858 24.446 11.3265 24.3421 11.3774 24.3073C11.4342 24.2687 11.5001 24.246 11.562 24.2163L11.7245 24.1385L11.9103 24.0495L12.0961 23.9605L12.2587 23.8826C12.3206 23.853 12.3797 23.8162 12.4453 23.7954C12.5228 23.771 12.5767 23.6991 12.6897 23.7419C12.7441 23.7626 12.7872 23.6365 12.8487 23.6036C13.0383 23.503 13.2369 23.4204 13.4266 23.32C13.4972 23.2827 13.6042 23.2984 13.6088 23.1504C13.6117 23.0531 13.7443 23.2527 13.7493 23.1069C13.7509 23.0609 13.8445 23.0086 13.8675 23.0302C13.9976 23.1516 13.9551 22.893 14.0438 22.9637C14.1694 23.0637 14.1352 22.8917 14.1886 22.8722C14.2187 22.8611 14.2537 22.8612 14.2864 22.856C14.3437 22.8472 14.4484 22.8614 14.4501 22.8251C14.4573 22.6769 14.5869 22.7567 14.6349 22.6782C14.6846 22.5966 14.7932 22.5817 14.8777 22.5412C16.3947 21.8141 17.9138 21.0909 19.4275 20.3567C19.6294 20.2587 19.8756 20.2365 20.0032 19.9985C20.1717 20.085 20.2014 19.8851 20.3095 19.842C20.6443 19.7085 20.9629 19.5388 21.3102 19.3726C21.3251 19.4336 21.3562 19.5168 21.3453 19.5241C21.1924 19.6256 21.0666 19.7706 20.8933 19.8419C20.5439 19.9857 20.2092 20.1621 19.8694 20.3269C19.8572 20.3329 19.8555 20.3609 19.8488 20.3786C19.87 20.3831 19.8927 20.3928 19.9121 20.3912C19.9605 20.3871 20.0358 20.448 20.0409 20.3349C20.0422 20.3056 20.0984 20.3031 20.1293 20.2883C20.5777 20.0736 21.026 19.8588 20.6914 20.0559C19.8907 20.4608 19.8855 20.4478 19.8804 20.4348C19.7943 20.4396 19.7047 20.4347 19.6233 20.4529C19.5802 20.4627 19.3407 20.5934 19.3018 20.6027C19.2686 20.6107 19.2139 20.6156 19.212 20.6443C19.2024 20.7863 19.0999 20.7786 19.0278 20.8134C17.9293 21.3429 16.8297 21.8698 15.728 22.3925C15.6634 22.4233 15.6149 22.511 15.5092 22.4407C15.489 22.4272 15.4441 22.4375 15.4424 22.4545C15.4279 22.6051 15.3063 22.5802 15.2326 22.6314C15.0815 22.7362 14.881 22.747 14.7706 22.934C14.7395 22.9868 14.6482 22.976 14.5814 22.9837C14.4526 22.9987 14.3298 23.024 14.2592 23.1534C14.2346 23.1986 14.1393 23.119 14.1544 23.2302C14.0401 23.1441 13.9492 23.2104 13.9174 23.2766C13.8646 23.3873 13.7393 23.2856 13.6911 23.3713C13.6824 23.3865 13.6615 23.3929 13.6603 23.4109C13.6542 23.4961 13.6194 23.494 13.5496 23.4764C13.482 23.4594 13.4007 23.4843 13.3633 23.5375C13.3148 23.6067 13.2482 23.6739 13.1896 23.6824C13.0984 23.6957 13.0473 23.7613 12.9769 23.8001C12.4255 24.1034 11.8227 24.2997 11.3065 24.6783C10.9211 24.9608 10.4399 25.0583 10.0564 25.3598C9.7074 25.6338 9.25453 25.7161 8.90264 26.0024C8.62521 26.2282 8.25 26.2762 7.98103 26.534C7.85626 26.6536 7.66838 26.6755 7.52372 26.7684C7.39104 26.8538 7.22936 26.8699 7.11864 27.0196C7.01543 27.159 6.82171 27.1836 6.66909 27.2612C6.64557 27.2733 6.62824 27.2981 6.60809 27.3171C6.66284 27.3505 6.69231 27.338 6.72027 27.3227C6.98602 27.1776 7.26668 27.0673 7.50992 26.871C7.80211 26.6354 8.18684 26.573 8.47923 26.3195C8.75058 26.0843 9.15072 26.0774 9.394 25.7782C9.4282 25.7361 9.54134 25.8756 9.5224 25.7239C9.62888 25.817 9.61639 25.6699 9.66424 25.645C10.0395 25.4504 10.4565 25.3375 10.7766 25.0335C10.8194 24.9928 10.889 24.9429 10.9382 24.9712C11.0499 25.0352 11.0106 24.8705 11.0836 24.8762C11.1442 24.8809 11.1933 24.8306 11.2475 24.8046C11.5573 24.6562 11.8691 24.5118 12.1756 24.3569C12.2545 24.3171 12.3699 24.3302 12.3863 24.1809C12.3881 24.1643 12.4499 24.1859 12.4814 24.182C12.5232 24.177 12.5963 24.1795 12.5967 24.1523C12.5985 24.0451 12.6602 24.1084 12.7013 24.0996C12.7423 24.0908 12.7522 24.002 12.7923 23.9828C12.8569 23.9518 12.9088 23.8662 13.0125 23.9503C13.0184 23.8473 13.0886 23.8352 13.147 23.8082C13.2062 23.7808 13.2573 23.7193 13.3465 23.7979C13.3398 23.6769 13.4218 23.6773 13.4803 23.6489C13.8667 23.4616 14.2611 23.2907 14.6396 23.0877C15.0121 22.8879 15.4435 22.8024 15.75 22.4731C15.8293 22.5193 15.8721 22.4535 15.9273 22.435C15.9986 22.4112 16.0474 22.3349 16.1158 22.3016C16.1951 22.2632 16.2619 22.18 16.3803 22.2513C16.3951 22.0876 16.5257 22.1066 16.612 22.0646C17.6317 21.5697 18.6551 21.0822 19.677 20.5918C19.7517 20.556 19.823 20.5133 20.6914 20.0559Z" fill="#1C222B"/>
<path fill-rule="evenodd" clip-rule="evenodd" d="M13.4579 13.9159C13.4813 14.1599 13.4914 14.2636 13.5044 14.3979L13.9482 14.195C13.942 14.174 13.9358 14.1529 13.9296 14.1322C13.8783 14.1354 13.8258 14.1355 13.7759 14.1424C13.7273 14.149 13.6817 14.1628 13.6229 14.1763C13.5891 14.0916 13.5309 13.9952 13.5443 13.9714C13.6097 13.8511 13.6779 13.7256 13.7747 13.6474C13.9918 13.4719 14.2299 13.3288 14.4522 13.1613C14.5627 13.0778 14.657 12.9689 14.7542 12.8757C15.0421 13.1117 14.7259 13.1338 14.7935 13.3007C15.2001 13.3233 15.2794 12.8034 15.6279 12.7331C15.3823 12.7511 15.1221 12.7384 14.9756 13.027C14.9672 12.9412 14.9304 12.8283 14.9563 12.7754C15.0089 12.6671 15.0894 12.5832 15.1698 12.5049C15.3013 12.377 15.5525 12.4473 15.6116 12.1948C15.6579 11.9976 15.9122 12.091 15.9497 11.833C15.9685 11.7032 16.1986 11.698 16.3496 11.629C16.4153 12.0639 16.1351 12.0081 15.9928 12.1313C15.8646 12.2422 15.7591 12.3875 15.6925 12.5921C16.0071 12.3945 16.3581 12.2471 16.6259 11.9842C16.8801 11.7342 17.0963 11.4306 17.3756 11.1933C17.1495 11.2752 16.9231 11.3574 16.697 11.4393L16.6558 11.3571C17.0606 11.042 17.4657 10.7267 17.8706 10.4118C17.8936 10.4447 17.9165 10.4781 17.9393 10.5111C17.7661 10.6907 17.593 10.8704 17.4202 11.0499C17.6374 10.9943 17.9199 11.0626 17.9868 10.7354C18.4172 10.5699 18.6605 10.0678 19.1859 10.0498L19.4121 10.5007C19.3611 10.5859 19.1946 10.459 19.1924 10.6547C19.1912 10.7474 18.9698 10.6548 19.0422 10.8863C19.0619 10.9489 19.0246 11.0789 19.0049 11.0732C18.6805 10.9809 18.5814 11.325 18.3389 11.3832C18.2633 11.4013 18.171 11.3771 18.0684 11.3712C18.105 11.4749 18.1505 11.6049 18.1961 11.7356C17.9855 11.6357 17.9933 12.0588 17.7386 11.8443C17.7634 11.9512 17.7837 12.0383 17.8111 12.1567C17.601 12.1467 17.3574 12.0446 17.2456 12.288C17.2955 12.3233 17.3436 12.3573 17.4635 12.4424C17.1471 12.518 16.8735 12.5836 16.5907 12.6514C16.5607 12.8677 16.5325 13.0689 16.5107 13.2264C16.3634 13.2907 16.1769 13.0683 16.1308 13.3422C16.095 13.5563 15.9445 13.7154 15.8077 13.8466C15.72 13.9307 15.5701 13.939 15.4378 13.9449C15.3438 13.9491 15.3428 14.1019 15.178 14.0218C15.0054 13.9382 15.1563 14.2099 15.1382 14.3081C15.1211 14.3995 15.0847 14.5129 15.0204 14.5344C14.7617 14.6195 14.6259 14.9142 14.343 14.9511C14.3284 14.953 14.3057 14.9309 14.2869 14.9198C14.2224 15.4344 13.748 15.439 13.5667 15.7833C13.4152 16.0708 13.0221 15.9677 12.9622 16.3498C12.4014 16.863 11.7773 17.2873 11.3144 17.9379C10.8852 18.05 10.7153 18.5414 10.3649 18.7806C10.0413 19.0021 9.7362 19.2977 9.50001 19.6322C9.07221 20.2373 8.43659 20.5659 8.07974 21.2534C7.83932 21.2821 7.79997 21.5154 7.74996 21.7648C7.72218 21.9026 7.58461 21.9682 7.51125 22.0498C7.19525 21.9112 6.92455 21.6566 6.64709 21.6525C6.57403 21.41 6.49996 21.1653 6.41211 20.8746C6.80288 20.3951 7.16869 19.8259 7.67307 19.4239C7.90645 19.2376 8.04774 18.9107 8.2787 18.7203C8.56601 18.4834 8.80734 18.1787 9.10401 17.9662C9.42091 17.7387 9.66737 17.4202 9.95126 17.1534C10.1264 16.9885 10.3084 16.8128 10.4924 16.6739C10.804 16.439 11.0253 16.0841 11.3538 15.8751C11.5516 15.7495 11.6886 15.5219 11.8627 15.3532C11.9812 15.2378 12.2067 15.297 12.2581 15.0637C12.3018 14.8653 12.6055 14.9878 12.5756 14.6899C12.8686 14.6383 13.0334 14.376 13.2555 14.208C13.3134 14.1644 13.3459 14.081 13.4579 13.9159Z" fill="#1C222B"/>
</svg>
