<svg width="110" height="90" viewBox="0 0 110 90" fill="none" xmlns="http://www.w3.org/2000/svg">
<path d="M63.2492 26.6701C63.1204 26.6723 62.9924 26.6905 62.8683 26.7248L46.1064 31.4793C45.7882 31.57 45.5081 31.7615 45.3085 32.0254C45.1089 32.2893 45.0007 32.6112 45.0001 32.9421V52.7516C44.9757 59.0693 49.7209 63.266 54.1369 65.765C58.5559 68.2702 62.9353 69.297 62.9353 69.297C63.1658 69.3515 63.4058 69.3515 63.6363 69.297C63.6363 69.297 68.0096 68.2702 72.4226 65.765C76.8355 63.266 81.5715 59.0693 81.5715 52.7516V32.9421C81.5709 32.6112 81.4627 32.2893 81.2631 32.0254C81.0635 31.7615 80.7835 31.57 80.4652 31.4793L63.7033 26.7248C63.5556 26.6838 63.4025 26.6655 63.2492 26.6701ZM63.2858 29.7788L78.5239 34.1002V52.7516C78.5239 57.5333 74.8881 60.8644 70.917 63.1166C67.1228 65.2712 63.615 66.1032 63.2858 66.1824C62.9536 66.1001 59.4367 65.2682 55.6363 63.1166C51.6622 60.8674 48.0264 57.5362 48.0477 52.7605V34.1002L63.2858 29.7847V29.7788Z" fill="#4EAC4C"/>
<path opacity="0.5" d="M63.2858 32.939L51.0953 36.3735V52.7451C51.0953 52.7573 51.0953 52.7698 51.0953 52.782C51.08 56.049 53.6248 58.4901 57.1661 60.4832C60.1711 62.1747 62.4202 62.7047 63.2858 62.9364C64.1482 62.7047 66.3882 62.1747 69.3932 60.4832C72.9284 58.4901 75.4823 56.0336 75.4823 52.7574V36.3917L63.2919 32.9542L63.2858 32.939Z" fill="#4EAC4C"/>
<path fill-rule="evenodd" clip-rule="evenodd" d="M62.8096 16V22.0952H65.8572V16H62.8096ZM62.8096 73.9048V80H65.8572V73.9048H62.8096ZM89.1905 46.4762V49.5238H95.2858V46.4762H89.1905ZM83.3574 65.9137L81.2027 68.0685L85.512 72.3776L87.6667 70.2232L83.3574 65.9137ZM85.512 23.6157L81.2027 27.9312L83.3574 30.0859L87.6667 25.7764L85.512 23.6157ZM88.1665 58.0264L86.9597 60.824L92.5551 63.2347L93.762 60.4371L88.1665 58.0264ZM92.5551 32.7619L86.9597 35.1756L88.1665 37.9732L93.762 35.5655L92.5551 32.7619ZM75.7079 17.5238L73.3764 23.1525L76.1833 24.3259L78.5239 18.6938L75.7079 17.5205V17.5238ZM75.5707 71.6708L72.904 73.1458L75.8572 78.4728L78.5239 77.0041L75.5707 71.6708Z" fill="#4EAC4C"/>
<path fill-rule="evenodd" clip-rule="evenodd" d="M37.9118 46.4762V49.5239H31.8165V46.4762H37.9118ZM43.7449 65.9137L45.8996 68.0685L41.5902 72.3777L39.4356 70.2233L43.7449 65.9137ZM41.5902 23.6157L45.8996 27.9312L43.7449 30.086L39.4356 25.7765L41.5902 23.6157ZM38.9358 58.0265L40.1426 60.8241L34.5472 63.2348L33.3403 60.4372L38.9358 58.0265ZM34.5472 32.762L40.1426 35.1756L38.9358 37.9733L33.3403 35.5655L34.5472 32.762ZM51.3944 17.5239L53.7259 23.1526L50.919 24.3259L48.5784 18.6939L51.3944 17.5205V17.5239ZM51.5316 71.6708L54.1982 73.1459L51.2451 78.4729L48.5784 77.0041L51.5316 71.6708Z" fill="#4EAC4C"/>
<path d="M62.2069 49.7889L67.5951 44.4038L69.7498 46.5586L62.2069 54.0984L56.8218 48.713L58.9764 46.5586L62.2069 49.7889Z" fill="white"/>
<circle cx="45" cy="45" r="45" fill="#4EAC4C" fill-opacity="0.1"/>
</svg>
