<svg width="110" height="90" viewBox="0 0 110 90" fill="none" xmlns="http://www.w3.org/2000/svg">
<g clip-path="url(#clip0_113_612)">
<path d="M91.0598 62.6228C91.0598 65.5814 93.4583 70.0656 96.417 70.0656C99.3756 70.0656 101.774 65.5814 101.774 62.6228C101.774 59.6641 99.3756 57.2656 96.417 57.2656C93.4583 57.2656 91.0598 59.6641 91.0598 62.6228Z" fill="#4EAC4C" stroke="#246D23"/>
<path d="M101.241 71.792H98.6818L96.4125 76.1248L94.1444 71.792H91.5848C87.841 71.792 84.7954 74.8376 84.7954 78.5814V86.9997H108.038V78.5814C108.038 74.8376 104.989 71.792 101.241 71.792Z" fill="#4EAC4C" stroke="#246D23"/>
<path d="M65.0598 62.6228C65.0598 65.5814 67.4583 70.0656 70.417 70.0656C73.3756 70.0656 75.7741 65.5814 75.7741 62.6228C75.7741 59.6641 73.3756 57.2656 70.417 57.2656C67.4583 57.2656 65.0598 59.6641 65.0598 62.6228Z" fill="#4EAC4C" stroke="#246D23"/>
<path d="M75.2413 71.792H72.6818L70.4125 76.1248L68.1444 71.792H65.5848C61.841 71.792 58.7954 74.8376 58.7954 78.5814V86.9997H82.0382V78.5814C82.0382 74.8376 78.9889 71.792 75.2413 71.792Z" fill="#4EAC4C" stroke="#246D23"/>
<path d="M38.0598 62.6228C38.0598 65.5814 40.4583 70.0656 43.417 70.0656C46.3756 70.0656 48.7741 65.5814 48.7741 62.6228C48.7741 59.6641 46.3756 57.2656 43.417 57.2656C40.4583 57.2656 38.0598 59.6641 38.0598 62.6228Z" fill="#4EAC4C" stroke="#246D23"/>
<path d="M48.2413 71.792H45.6818L43.4125 76.1248L41.1444 71.792H38.5848C34.841 71.792 31.7954 74.8376 31.7954 78.5814V86.9997H55.0382V78.5814C55.0382 74.8376 51.9889 71.792 48.2413 71.792Z" fill="#4EAC4C" stroke="#246D23"/>
<path d="M97.6859 53.5326V46.3327H71.2733V39.624H68.7337V46.3327H42.3083V53.5326H44.848V48.8724H68.7337V53.5326H71.2733V48.8724H95.1463V53.5326H97.6859Z" fill="#4EAC4C" stroke="#246D23"/>
<path d="M71.3632 16.2044L71.714 24.0185L66.9764 24.2141C66.6365 24.226 66.3441 23.9625 66.3311 23.6231L66.0266 17.0389C66.0135 16.6995 66.2764 16.4085 66.6163 16.3966L71.3632 16.2044Z" fill="#4AA248" stroke="#246D23"/>
<path d="M64.2043 17.9987L64.4253 22.8493C64.4384 23.1888 64.7308 23.4524 65.0708 23.4404L66.3374 23.3899L66.0609 17.3057L64.7943 17.3562C64.451 17.3774 64.182 17.6558 64.2043 17.9987Z" fill="#4EAC4C" stroke="#246D23"/>
<path d="M82.5707 19.6382C82.8 24.7827 83.9342 29.0236 85.2075 29.9064L71.7044 24.0072L71.3536 16.1937L84.2691 9.18447C83.0724 10.1699 82.3415 14.4936 82.5707 19.6382Z" fill="#4EAC4C" stroke="#246D23"/>
<path d="M87.9106 19.4052C88.1743 25.2352 87.1967 30.0056 85.7144 30.0718C84.2354 30.1289 82.8258 25.461 82.5621 19.6311C82.2984 13.8012 83.276 9.03075 84.7583 8.96447C86.2406 8.89819 87.647 13.5753 87.9106 19.4052Z" fill="#4EAC4C" stroke="#246D23"/>
<path d="M86.6129 19.4574C86.6963 21.3075 85.2603 22.8649 83.4075 22.9419L82.8522 22.9693C82.7169 21.9265 82.6153 20.7912 82.5674 19.6233C82.5102 18.4521 82.5112 17.3229 82.5476 16.2695L83.103 16.242C84.965 16.1684 86.5296 17.6072 86.6129 19.4574Z" fill="white" stroke="#246D23"/>
<path d="M71.227 27.2593C71.2626 28.0568 70.6542 28.0858 70.6898 28.8832C70.722 29.6899 71.3397 29.6642 71.3753 30.4616C71.4075 31.2682 70.8025 31.2881 70.838 32.0855C70.8702 32.8921 71.4879 32.8664 71.5235 33.6638L68.1265 33.8051C67.7428 33.822 67.4108 33.5231 67.3926 33.14L66.9801 24.2248L71.0822 24.0479C71.1144 24.8545 70.5094 24.8743 70.5416 25.681C70.5738 26.4876 71.1915 26.4619 71.227 27.2593Z" fill="#4EAC4C" stroke="#246D23"/>
</g>
<circle cx="45" cy="45" r="45" fill="#4EAC4C" fill-opacity="0.1"/>
<defs>
<clipPath id="clip0_113_612">
<rect width="80" height="80" fill="white" transform="translate(30 8)"/>
</clipPath>
</defs>
</svg>
