<svg width="110" height="90" viewBox="0 0 110 90" fill="none" xmlns="http://www.w3.org/2000/svg">
<g clip-path="url(#clip0_113_219)">
<path d="M78.1468 63.2153C78.1468 67.6633 76.3798 71.9291 73.2347 75.0742C70.0895 78.2194 65.8237 79.9863 61.3758 79.9863H54.7711C52.5694 79.9902 50.3885 79.5595 48.3536 78.7188C46.3187 77.8782 44.4697 76.6441 42.9127 75.0874C40.558 72.7434 38.9526 69.7528 38.3002 66.495C37.6477 63.2372 37.9776 59.859 39.248 56.789C40.5184 53.719 42.6721 51.0955 45.4358 49.2514C48.1994 47.4072 51.4486 46.4254 54.7711 46.4307H61.3621C63.5657 46.4307 65.7476 46.8649 67.7833 47.7086C69.8189 48.5523 71.6683 49.7888 73.2258 51.3476C74.7834 52.9064 76.0184 54.7568 76.8604 56.7932C77.7024 58.8295 78.1349 61.0118 78.1331 63.2153H78.1468Z" fill="#4EAC4C"/>
<path d="M58.0734 37.4789C64.0047 37.4789 68.8129 32.6707 68.8129 26.7394C68.8129 20.8082 64.0047 16 58.0734 16C52.1422 16 47.334 20.8082 47.334 26.7394C47.334 32.6707 52.1422 37.4789 58.0734 37.4789Z" fill="#4EAC4C"/>
<path opacity="0.5" d="M101.167 35.2137H99.2434C99.0574 35.2117 98.877 35.1495 98.7294 35.0363C98.5818 34.9231 98.4748 34.7651 98.4246 34.586C98.1793 33.6786 97.8169 32.807 97.3466 31.9932C97.2521 31.8294 97.2143 31.639 97.2389 31.4515C97.2636 31.264 97.3494 31.0899 97.4831 30.9561L98.8477 29.5915C98.9286 29.5138 98.9929 29.4206 99.0369 29.3174C99.0809 29.2142 99.1035 29.1032 99.1035 28.9911C99.1035 28.8789 99.0809 28.7679 99.0369 28.6647C98.9929 28.5616 98.9286 28.4683 98.8477 28.3907L96.869 26.412C96.7084 26.2553 96.4929 26.1676 96.2686 26.1676C96.0442 26.1676 95.8287 26.2553 95.6681 26.412L94.3035 27.7766C94.1697 27.9102 93.9956 27.996 93.8081 28.0207C93.6206 28.0454 93.4302 28.0075 93.2664 27.913C92.4537 27.4405 91.5818 27.078 90.6737 26.835C90.4934 26.7869 90.3341 26.6805 90.2206 26.5324C90.107 26.3843 90.0457 26.2028 90.046 26.0162V24.1058C90.046 23.8801 89.9573 23.6635 89.799 23.5027C89.6407 23.3418 89.4255 23.2497 89.1999 23.2461H86.3888C86.1632 23.2497 85.948 23.3418 85.7897 23.5027C85.6314 23.6635 85.5427 23.8801 85.5428 24.1058V26.0162C85.5423 26.2046 85.4789 26.3875 85.3627 26.5358C85.2466 26.6841 85.0842 26.7894 84.9014 26.835C83.9949 27.083 83.1237 27.4452 82.3086 27.913C82.1469 28.0065 81.9588 28.0437 81.7737 28.019C81.5886 27.9944 81.4168 27.9091 81.2852 27.7766L79.9206 26.412C79.76 26.2553 79.5445 26.1676 79.3202 26.1676C79.0958 26.1676 78.8803 26.2553 78.7197 26.412L76.7274 28.3907C76.6482 28.4693 76.5853 28.5628 76.5424 28.6659C76.4995 28.7689 76.4774 28.8795 76.4774 28.9911C76.4774 29.1027 76.4995 29.2132 76.5424 29.3163C76.5853 29.4193 76.6482 29.5129 76.7274 29.5915L78.092 30.9561C78.2256 31.0903 78.3103 31.2654 78.3325 31.4535C78.3548 31.6415 78.3134 31.8315 78.2148 31.9932C77.749 32.8076 77.3912 33.6792 77.1504 34.586C77.0996 34.7673 76.9906 34.927 76.8402 35.0404C76.6899 35.1538 76.5064 35.2147 76.318 35.2137H74.4076C74.1819 35.2173 73.9668 35.3094 73.8085 35.4703C73.6502 35.6311 73.5615 35.8477 73.5615 36.0734V38.8026C73.5615 39.027 73.6507 39.2422 73.8093 39.4009C73.968 39.5595 74.1832 39.6487 74.4076 39.6487H76.318C76.5082 39.6485 76.693 39.7113 76.8436 39.8273C76.9943 39.9434 77.1021 40.1061 77.1504 40.29C77.3912 41.1968 77.749 42.0684 78.2148 42.8828C78.3123 43.0424 78.3532 43.2301 78.3309 43.4158C78.3086 43.6015 78.2245 43.7742 78.092 43.9062L76.7274 45.2708C76.6482 45.3495 76.5853 45.443 76.5424 45.5461C76.4995 45.6491 76.4774 45.7596 76.4774 45.8713C76.4774 45.9829 76.4995 46.0934 76.5424 46.1964C76.5853 46.2995 76.6482 46.393 76.7274 46.4717L78.7197 48.4504C78.8803 48.6071 79.0958 48.6948 79.3202 48.6948C79.5445 48.6948 79.76 48.6071 79.9206 48.4504L81.2852 47.0858C81.4168 46.9532 81.5886 46.868 81.7737 46.8433C81.9588 46.8186 82.1469 46.8559 82.3086 46.9493C83.1237 47.4171 83.9949 47.7794 84.9014 48.0273C85.0842 48.0729 85.2466 48.1782 85.3627 48.3265C85.4789 48.4748 85.5423 48.6577 85.5428 48.8461V50.7565C85.5427 50.9822 85.6314 51.1988 85.7897 51.3597C85.948 51.5205 86.1632 51.6127 86.3888 51.6162H89.1999C89.4255 51.6127 89.6407 51.5205 89.799 51.3597C89.9573 51.1988 90.046 50.9822 90.046 50.7565V48.928C90.0457 48.7414 90.107 48.5599 90.2206 48.4118C90.3341 48.2638 90.4934 48.1574 90.6737 48.1092C91.5818 47.8662 92.4537 47.5037 93.2664 47.0312C93.4302 46.9367 93.6206 46.8988 93.8081 46.9235C93.9956 46.9482 94.1697 47.034 94.3035 47.1676L95.6681 48.5322C95.8287 48.6889 96.0442 48.7767 96.2686 48.7767C96.4929 48.7767 96.7084 48.6889 96.869 48.5322L98.8204 46.6081C98.9013 46.5305 98.9656 46.4372 99.0096 46.3341C99.0536 46.2309 99.0762 46.1199 99.0762 46.0077C99.0762 45.8956 99.0536 45.7846 99.0096 45.6814C98.9656 45.5782 98.9013 45.485 98.8204 45.4073L97.4558 44.0427C97.3232 43.9111 97.238 43.7393 97.2133 43.5542C97.1886 43.3691 97.2259 43.181 97.3193 43.0192C97.7896 42.2054 98.152 41.3338 98.3973 40.4265C98.445 40.2448 98.5509 40.0838 98.6987 39.9679C98.8466 39.8521 99.0283 39.7879 99.2161 39.7851H101.167C101.392 39.7851 101.607 39.696 101.766 39.5373C101.924 39.3786 102.014 39.1634 102.014 38.9391V36.2098C102.033 36.0872 102.026 35.9618 101.993 35.8421C101.959 35.7225 101.9 35.6115 101.82 35.5169C101.74 35.4222 101.64 35.3461 101.527 35.2937C101.414 35.2414 101.292 35.2141 101.167 35.2137ZM87.7944 41.6546C86.9652 41.6573 86.1539 41.4139 85.4632 40.9552C84.7725 40.4965 84.2334 39.8432 83.9142 39.078C83.595 38.3127 83.5101 37.4699 83.6702 36.6564C83.8303 35.8428 84.2282 35.0951 84.8136 34.5078C85.3989 33.9206 86.1454 33.5202 86.9584 33.3575C87.7714 33.1947 88.6144 33.2769 89.3807 33.5936C90.147 33.9102 90.8021 34.4472 91.2631 35.1364C91.724 35.8256 91.97 36.6361 91.9701 37.4653C91.9719 38.0159 91.8647 38.5615 91.6548 39.0706C91.4449 39.5797 91.1364 40.0422 90.747 40.4316C90.3577 40.821 89.8951 41.1295 89.386 41.3394C88.8769 41.5493 88.3314 41.6564 87.7807 41.6546H87.7944Z" fill="#4EAC4C"/>
</g>
<circle cx="45" cy="45" r="45" fill="#4EAC4C" fill-opacity="0.1"/>
<defs>
<clipPath id="clip0_113_219">
<rect width="64" height="64" fill="white" transform="translate(38 16)"/>
</clipPath>
</defs>
</svg>
