<svg width="30" height="31" viewBox="0 0 30 31" fill="none" xmlns="http://www.w3.org/2000/svg">
<path fill-rule="evenodd" clip-rule="evenodd" d="M10.8783 0.950195C9.24055 0.951403 7.91509 2.27783 7.9163 3.91232C7.91509 5.5468 9.24176 6.87323 10.8795 6.87444H13.8427V3.91352C13.8439 2.27904 12.5173 0.952611 10.8783 0.950195C10.8795 0.950195 10.8795 0.950195 10.8783 0.950195V0.950195ZM10.8783 8.8508H2.97884C1.34108 8.852 0.0144178 10.1784 0.0156283 11.8129C0.0132074 13.4474 1.33987 14.7738 2.97763 14.7762H10.8783C12.5161 14.775 13.8427 13.4486 13.8415 11.8141C13.8427 10.1784 12.5161 8.852 10.8783 8.8508Z" fill="#C4C4C4"/>
<path fill-rule="evenodd" clip-rule="evenodd" d="M29.6423 11.8129C29.6435 10.1784 28.3168 8.852 26.6791 8.8508C25.0413 8.852 23.7147 10.1784 23.7159 11.8129V14.7762H26.6791C28.3168 14.775 29.6435 13.4486 29.6423 11.8129ZM21.7416 11.8129V3.91232C21.7428 2.27904 20.4174 0.952611 18.7796 0.950195C17.1419 0.951403 15.8152 2.27783 15.8164 3.91232V11.8129C15.814 13.4474 17.1407 14.7738 18.7784 14.7762C20.4162 14.775 21.7428 13.4486 21.7416 11.8129Z" fill="#C4C4C4"/>
<path fill-rule="evenodd" clip-rule="evenodd" d="M18.7796 30.5773C20.4174 30.5761 21.744 29.2496 21.7428 27.6151C21.744 25.9807 20.4174 24.6542 18.7796 24.653H15.8164V27.6151C15.8152 29.2484 17.1419 30.5749 18.7796 30.5773ZM18.7796 22.6755H26.6803C28.318 22.6742 29.6447 21.3478 29.6435 19.7133C29.6459 18.0788 28.3193 16.7524 26.6815 16.75H18.7808C17.1431 16.7512 15.8164 18.0776 15.8176 19.7121C15.8164 21.3478 17.1419 22.6742 18.7796 22.6755Z" fill="#C4C4C4"/>
<path fill-rule="evenodd" clip-rule="evenodd" d="M0.0156258 19.7131C0.0144154 21.3476 1.34108 22.674 2.97883 22.6752C4.61659 22.674 5.94325 21.3476 5.94204 19.7131V16.751H2.97883C1.34108 16.7522 0.0144154 18.0786 0.0156258 19.7131ZM7.9163 19.7131V27.6137C7.91388 29.2482 9.24055 30.5746 10.8783 30.577C12.5161 30.5758 13.8427 29.2494 13.8415 27.6149V19.7155C13.8439 18.081 12.5173 16.7546 10.8795 16.7522C9.24055 16.7522 7.91509 18.0786 7.9163 19.7131C7.9163 19.7143 7.9163 19.7131 7.9163 19.7131Z" fill="#C4C4C4"/>
</svg>
