<svg width="11" height="2" viewBox="0 0 11 2" fill="none" xmlns="http://www.w3.org/2000/svg">
<path d="M1.45 1.3374H0.625C0.35 1.3374 0.125 1.1124 0.125 0.837402C0.125 0.562402 0.35 0.337402 0.625 0.337402H1.4625C1.7375 0.337402 1.9625 0.562402 1.9625 0.837402C1.9625 1.1124 1.7375 1.3374 1.45 1.3374Z" fill="#333333"/>
<path d="M5.5125 1.3374H4.675C4.4 1.3374 4.175 1.1124 4.175 0.837402C4.175 0.562402 4.4 0.337402 4.675 0.337402H5.5125C5.7875 0.337402 6.0125 0.562402 6.0125 0.837402C6.0125 1.1124 5.7875 1.3374 5.5125 1.3374Z" fill="#333333"/>
<path d="M9.56251 1.3374H8.72501C8.45001 1.3374 8.22501 1.1124 8.22501 0.837402C8.22501 0.562402 8.45001 0.337402 8.72501 0.337402H9.56251C9.83751 0.337402 10.0625 0.562402 10.0625 0.837402C10.0625 1.1124 9.83751 1.3374 9.56251 1.3374Z" fill="#333333"/>
</svg>
