<svg width="82" height="80" viewBox="0 0 82 80" fill="none" xmlns="http://www.w3.org/2000/svg">
<path d="M17.4268 31.7534L25.4028 51.0376L13.7274 55.8652C12.8878 56.2063 11.917 55.8127 11.576 54.9731L4.83306 38.7324C4.49197 37.8929 4.88553 36.9221 5.72511 36.581L17.4268 31.7534Z" fill="#4AA248" stroke="#246D23"/>
<path d="M1.13364 42.7993L6.09243 54.7634C6.43351 55.603 7.40427 55.9965 8.24386 55.6555L11.3661 54.3698L5.1479 39.3623L2.0257 40.6479C1.18612 41.0152 0.766323 41.9598 1.13364 42.7993Z" fill="#4EAC4C" stroke="#246D23"/>
<path d="M48.6225 30.1531C53.8699 42.8518 60.5603 52.4545 64.5484 53.504L25.4028 51.064L17.4268 31.7798L43.3751 2.36816C41.2762 5.93639 43.3751 17.4544 48.6225 30.1531Z" fill="#4EAC4C" stroke="#246D23"/>
<path d="M61.7935 24.6957C67.7493 39.0736 69.6383 51.9297 65.9914 53.4514C62.3445 54.9469 54.5783 44.5309 48.6225 30.153C42.6668 15.7752 40.7777 2.91904 44.4246 1.3973C48.0716 -0.124443 55.8377 10.3179 61.7935 24.6957Z" fill="#4EAC4C" stroke="#246D23"/>
<path d="M58.5926 26.0073C60.4816 30.5726 58.304 35.7937 53.7387 37.6828L52.3744 38.26C51.0888 35.7675 49.8032 33.0126 48.6225 30.1265C47.4156 27.2405 46.3924 24.4069 45.5266 21.7307L46.8909 21.1535C51.4824 19.2644 56.7035 21.4421 58.5926 26.0073Z" fill="white" stroke="#246D23"/>
<path d="M27.1607 59.5906C27.9741 61.5583 26.4786 62.188 27.2919 64.1558C28.1053 66.1498 29.627 65.5201 30.4403 67.4879C31.2537 69.4819 29.7582 70.0853 30.5715 72.0531C31.3849 74.0471 32.9066 73.4174 33.72 75.3852L25.3504 78.8485C24.4058 79.242 23.3039 78.796 22.9103 77.8515L13.7799 55.8649L23.8811 51.667C24.6945 53.661 23.1989 54.2645 24.0123 56.2585C24.8256 58.2525 26.3474 57.6228 27.1607 59.5906Z" fill="#4EAC4C" stroke="#246D23"/>
<path d="M77.6931 40.5425L72.4982 38.6009C71.9472 38.391 71.6848 37.7876 71.8947 37.2366C72.1046 36.6856 72.7081 36.4233 73.259 36.6332L78.4539 38.5747C79.0049 38.7846 79.2673 39.388 79.0574 39.939C78.8213 40.49 78.2178 40.7524 77.6931 40.5425Z" fill="#4EAC4C" stroke="#246D23"/>
<path d="M74.3872 29.7858C73.81 29.7858 73.364 29.3398 73.3378 28.7626C73.3115 28.1853 73.7838 27.7131 74.361 27.6868L79.9232 27.5557H79.9495C80.5267 27.5557 80.9727 28.0017 80.9989 28.5789C81.0252 29.1561 80.5529 29.6284 79.9757 29.6546C79.8445 29.6809 74.0199 29.812 74.3872 29.7858Z" fill="#4EAC4C" stroke="#246D23"/>
<path d="M71.6061 20.6294C71.3962 20.1046 71.6323 19.4749 72.1833 19.265L77.2995 17.1398C77.8243 16.93 78.454 17.1661 78.6639 17.7171C78.8737 18.2418 78.6376 18.8715 78.0866 19.0814L72.9704 21.2066C72.4457 21.4165 71.816 21.1541 71.6061 20.6294Z" fill="#4EAC4C" stroke="#246D23"/>
<path d="M67.0671 13.6498C66.6736 13.23 66.6736 12.5741 67.0934 12.1543L71.1076 8.3237C71.5274 7.93015 72.1833 7.93015 72.6031 8.34994C72.9967 8.76973 72.9967 9.42566 72.5769 9.84545L68.5364 13.676C68.1166 14.0696 67.4607 14.0696 67.0671 13.6498Z" fill="#4EAC4C" stroke="#246D23"/>
<path d="M60.0356 8.66492C59.5109 8.42879 59.2747 7.7991 59.5109 7.27436L61.7935 2.21063C62.0296 1.68589 62.6593 1.44976 63.184 1.68589C63.7088 1.92202 63.9449 2.55171 63.7088 3.07645L61.4262 8.14018C61.19 8.69116 60.5604 8.90105 60.0356 8.66492Z" fill="#4EAC4C" stroke="#246D23"/>
</svg>
