<svg width="39" height="38" viewBox="0 0 39 38" fill="none" xmlns="http://www.w3.org/2000/svg">
<path d="M8.025 15.3877L11.825 24.5752L6.2625 26.8752C5.8625 27.0377 5.4 26.8502 5.2375 26.4502L2.025 18.7127C1.8625 18.3127 2.05 17.8502 2.45 17.6877L8.025 15.3877Z" fill="#4AA248"/>
<path opacity="0.5" d="M0.262499 20.6502L2.625 26.3502C2.7875 26.7502 3.25 26.9377 3.65 26.7752L5.1375 26.1627L2.175 19.0127L0.6875 19.6252C0.2875 19.8002 0.0874994 20.2502 0.262499 20.6502Z" fill="#4EAC4C"/>
<path d="M22.8875 14.6252C25.3875 20.6752 28.575 25.2502 30.475 25.7502L11.825 24.5877L8.025 15.4002L20.3875 1.3877C19.3875 3.0877 20.3875 8.5752 22.8875 14.6252Z" fill="#4EAC4C"/>
<path d="M29.1625 12.0252C32 18.8752 32.9 25.0002 31.1625 25.7252C29.425 26.4377 25.725 21.4752 22.8875 14.6252C20.05 7.77516 19.15 1.65016 20.8875 0.925158C22.625 0.200158 26.325 5.17516 29.1625 12.0252Z" fill="#4EAC4C" fill-opacity="0.2"/>
<path d="M27.6375 12.6501C28.5375 14.8251 27.5 17.3126 25.325 18.2126L24.675 18.4876C24.0625 17.3001 23.45 15.9876 22.8875 14.6126C22.3125 13.2376 21.825 11.8876 21.4125 10.6126L22.0625 10.3376C24.25 9.43755 26.7375 10.4751 27.6375 12.6501Z" fill="#4EAC4C" fill-opacity="0.8"/>
<path opacity="0.5" d="M12.6625 28.65C13.05 29.5875 12.3375 29.8875 12.725 30.825C13.1125 31.775 13.8375 31.475 14.225 32.4125C14.6125 33.3625 13.9 33.65 14.2875 34.5875C14.675 35.5375 15.4 35.2375 15.7875 36.175L11.8 37.825C11.35 38.0125 10.825 37.8 10.6375 37.35L6.28751 26.875L11.1 24.875C11.4875 25.825 10.775 26.1125 11.1625 27.0625C11.55 28.0125 12.275 27.7125 12.6625 28.65Z" fill="#4EAC4C"/>
<path d="M36.7375 19.5751L34.2625 18.6501C34 18.5501 33.875 18.2626 33.975 18.0001C34.075 17.7376 34.3625 17.6126 34.625 17.7126L37.1 18.6376C37.3625 18.7376 37.4875 19.0251 37.3875 19.2876C37.275 19.5501 36.9875 19.6751 36.7375 19.5751Z" fill="#4EAC4C"/>
<path d="M35.1625 14.4502C34.8875 14.4502 34.675 14.2377 34.6625 13.9627C34.65 13.6877 34.875 13.4627 35.15 13.4502L37.8 13.3877H37.8125C38.0875 13.3877 38.3 13.6002 38.3125 13.8752C38.325 14.1502 38.1 14.3752 37.825 14.3877C37.7625 14.4002 34.9875 14.4627 35.1625 14.4502Z" fill="#4EAC4C"/>
<path d="M33.8375 10.0878C33.7375 9.83781 33.85 9.53781 34.1125 9.43781L36.55 8.42531C36.8 8.32531 37.1 8.43782 37.2 8.70032C37.3 8.95032 37.1875 9.25031 36.925 9.35031L34.4875 10.3628C34.2375 10.4628 33.9375 10.3378 33.8375 10.0878Z" fill="#4EAC4C"/>
<path d="M31.675 6.76254C31.4875 6.56254 31.4875 6.25004 31.6875 6.05004L33.6 4.22504C33.8 4.03754 34.1125 4.03754 34.3125 4.23754C34.5 4.43754 34.5 4.75004 34.3 4.95004L32.375 6.77504C32.175 6.96254 31.8625 6.96254 31.675 6.76254Z" fill="#4EAC4C"/>
<path d="M28.325 4.38771C28.075 4.27521 27.9625 3.97521 28.075 3.72521L29.1625 1.31271C29.275 1.06271 29.575 0.950208 29.825 1.06271C30.075 1.17521 30.1875 1.47521 30.075 1.72521L28.9875 4.13771C28.875 4.40021 28.575 4.50021 28.325 4.38771Z" fill="#4EAC4C"/>
</svg>
