<svg width="18" height="18" viewBox="0 0 18 18" fill="none" xmlns="http://www.w3.org/2000/svg">
<path d="M6.75 11.25H9M6.75 9H11.25M6.75 6.75H11.25M15.1366 11.2494H11.25V15.1363M11.017 15.1875H3.375C3.22582 15.1875 3.08274 15.1282 2.97725 15.0227C2.87176 14.9173 2.8125 14.7742 2.8125 14.625V3.375C2.8125 3.22582 2.87176 3.08274 2.97725 2.97725C3.08274 2.87176 3.22582 2.8125 3.375 2.8125H14.625C14.7742 2.8125 14.9173 2.87176 15.0227 2.97725C15.1282 3.08274 15.1875 3.22582 15.1875 3.375V11.017C15.1875 11.0909 15.173 11.164 15.1447 11.2323C15.1164 11.3005 15.075 11.3625 15.0227 11.4148L11.4148 15.0227C11.3625 15.075 11.3005 15.1164 11.2323 15.1447C11.164 15.173 11.0909 15.1875 11.017 15.1875Z" stroke="#455468" stroke-width="1.5" stroke-linecap="round" stroke-linejoin="round"/>
</svg>
