<svg width="24" height="25" viewBox="0 0 24 25" fill="none" xmlns="http://www.w3.org/2000/svg">
<g opacity="0.9">
<path d="M12.75 7.25C12.75 6.83579 12.4142 6.5 12 6.5C11.5858 6.5 11.25 6.83579 11.25 7.25H12.75ZM12 12.5H11.25C11.25 12.9142 11.5858 13.25 12 13.25V12.5ZM17.25 13.25C17.6642 13.25 18 12.9142 18 12.5C18 12.0858 17.6642 11.75 17.25 11.75V13.25ZM20.25 12.5C20.25 17.0563 16.5563 20.75 12 20.75V22.25C17.3848 22.25 21.75 17.8848 21.75 12.5H20.25ZM12 20.75C7.44365 20.75 3.75 17.0563 3.75 12.5H2.25C2.25 17.8848 6.61522 22.25 12 22.25V20.75ZM3.75 12.5C3.75 7.94365 7.44365 4.25 12 4.25V2.75C6.61522 2.75 2.25 7.11522 2.25 12.5H3.75ZM12 4.25C16.5563 4.25 20.25 7.94365 20.25 12.5H21.75C21.75 7.11522 17.3848 2.75 12 2.75V4.25ZM11.25 7.25V12.5H12.75V7.25H11.25ZM12 13.25H17.25V11.75H12V13.25Z" fill="#1C222B"/>
</g>
</svg>
