<svg width="18" height="18" viewBox="0 0 18 18" fill="none" xmlns="http://www.w3.org/2000/svg">
<path d="M10.1249 10.125L11.8124 8.43748M11.8124 8.43748L10.1249 6.74998M11.8124 8.43748L7.87492 8.43748C7.42736 8.43748 6.99814 8.61527 6.68167 8.93173C6.36521 9.2482 6.18742 9.67742 6.18742 10.125V10.6875M1.24141 8.60223L8.60217 1.24147C8.82184 1.0218 9.17799 1.0218 9.39766 1.24147L16.7584 8.60223C16.9781 8.8219 16.9781 9.17805 16.7584 9.39772L9.39766 16.7585C9.17799 16.9781 8.82184 16.9781 8.60217 16.7585L1.24141 9.39772C1.02174 9.17805 1.02174 8.8219 1.24141 8.60223Z" stroke="#455468" stroke-width="1.5" stroke-linecap="round" stroke-linejoin="round"/>
</svg>
