<svg width="24" height="25" viewBox="0 0 24 25" fill="none" xmlns="http://www.w3.org/2000/svg">
<g opacity="0.9">
<path d="M8.24994 10.25V7.25C8.24994 6.25544 8.64503 5.30161 9.34829 4.59835C10.0516 3.89509 11.0054 3.5 11.9999 3.5C12.9945 3.5 13.9483 3.89509 14.6516 4.59835C15.3549 5.30161 15.7499 6.25544 15.7499 7.25V10.25M19.5787 7.25H4.42122C4.23665 7.25 4.05856 7.31806 3.92103 7.44115C3.7835 7.56425 3.69619 7.73373 3.67581 7.91718L2.34248 19.9172C2.33083 20.022 2.34143 20.1281 2.37357 20.2286C2.40572 20.329 2.4587 20.4216 2.52904 20.5002C2.59939 20.5788 2.68553 20.6417 2.78182 20.6847C2.87812 20.7278 2.98241 20.75 3.08789 20.75H20.912C21.0175 20.75 21.1218 20.7278 21.2181 20.6847C21.3144 20.6417 21.4005 20.5788 21.4708 20.5002C21.5412 20.4216 21.5942 20.329 21.6263 20.2286C21.6585 20.1281 21.6691 20.022 21.6574 19.9172L20.3241 7.91718C20.3037 7.73373 20.2164 7.56425 20.0789 7.44115C19.9413 7.31806 19.7632 7.25 19.5787 7.25Z" stroke="#1C222B" stroke-width="1.5" stroke-linecap="round" stroke-linejoin="round"/>
</g>
</svg>
