<svg width="31" height="28" viewBox="0 0 31 28" fill="none" xmlns="http://www.w3.org/2000/svg">
<path fill-rule="evenodd" clip-rule="evenodd" d="M30.2222 3.64942C29.0889 4.19925 27.8926 4.5429 26.6333 4.74908C27.8926 3.92434 28.9 2.6185 29.3407 1.03774C28.1444 1.79375 26.8222 2.34358 25.3741 2.68723C24.2407 1.38138 22.6037 0.556641 20.8407 0.556641C17.4407 0.556641 14.6704 3.5807 14.6704 7.29204C14.6704 7.84186 14.7333 8.32296 14.8593 8.80406C9.75926 8.52915 5.16296 5.84874 2.07778 1.72503C1.57407 2.75595 1.25926 3.85561 1.25926 5.09272C1.25926 7.42949 2.32963 9.49135 4.02963 10.7285C3.02222 10.6597 2.07778 10.3848 1.1963 9.90372V9.97245C1.1963 13.2714 3.33704 16.0206 6.17037 16.6391C5.66667 16.7766 5.1 16.8453 4.53333 16.8453C4.15556 16.8453 3.71481 16.7766 3.33704 16.7078C4.15556 19.3883 6.42222 21.3814 9.12963 21.3814C6.98889 23.1683 4.34444 24.268 1.44815 24.268C0.944444 24.268 0.440741 24.268 0 24.1993C2.77037 26.1237 5.98148 27.2233 9.50741 27.2233C20.9037 27.2233 27.137 16.914 27.137 7.97932C27.137 7.70441 27.137 7.36076 27.137 7.08585C28.3333 6.19238 29.4037 5.02399 30.2222 3.64942Z" fill="#68D585"/>
</svg>
