<svg width="32" height="32" viewBox="0 0 32 32" fill="none" xmlns="http://www.w3.org/2000/svg">
<path d="M30.6667 0H1.33333C0.596953 0 0 0.596953 0 1.33333V30.6667C0 31.403 0.596953 32 1.33333 32H17.0922V19.6079H12.922V14.7785H17.0922V11.2169C17.0922 7.08374 19.6166 4.83315 23.3037 4.83315C25.0698 4.83315 26.5877 4.96464 27.0301 5.02341V9.34283L24.4729 9.34399C22.4677 9.34399 22.0794 10.2968 22.0794 11.6951V14.7785H26.8617L26.2391 19.6079H22.0794V32H30.6667C31.403 32 32 31.403 32 30.6667V1.33333C32 0.596953 31.403 0 30.6667 0Z" fill="#7D818D"/>
</svg>
