<svg width="18" height="18" viewBox="0 0 18 18" fill="none" xmlns="http://www.w3.org/2000/svg">
<path d="M17.25 0H0.75C0.335786 0 0 0.335786 0 0.75V17.25C0 17.6642 0.335786 18 0.75 18H9.61436V11.0295H7.26862V8.3129H9.61436V6.30952C9.61436 3.9846 11.0343 2.71865 13.1083 2.71865C14.1018 2.71865 14.9556 2.79261 15.2044 2.82567V5.25534L13.766 5.25599C12.6381 5.25599 12.4197 5.79198 12.4197 6.5785V8.3129H15.1097L14.7595 11.0295H12.4197V18H17.25C17.6642 18 18 17.6642 18 17.25V0.75C18 0.335786 17.6642 0 17.25 0Z" fill="#7D818D"/>
</svg>
