<svg width="122" height="37" viewBox="0 0 122 37" fill="none" xmlns="http://www.w3.org/2000/svg">
<path d="M70.6252 1.23401V4.00071C70.6327 4.18625 70.7127 4.36143 70.848 4.48863C70.9833 4.61582 71.1631 4.68488 71.3487 4.68096H77.7751L70.3707 15.2769C69.9026 15.9581 69.9026 16.7236 69.9026 17.1492V19.9575C69.9026 20.3831 70.3704 20.8085 70.796 20.5958C74.9662 18.3404 80.0301 18.5531 83.8175 20.5532C84.2853 20.8082 84.7108 20.3405 84.7108 19.9149V16.9787C84.6681 16.5957 84.5406 16.1701 84.0725 15.9148C81.9452 14.7237 79.4342 14.3833 77.0511 14.4259L83.4341 5.31926C84.0299 4.46785 84.3703 3.95747 84.3703 3.57449V1.23401C84.363 1.04836 84.2831 0.873012 84.1478 0.745678C84.0125 0.618345 83.8326 0.549198 83.6468 0.553109H71.3061C71.2154 0.548276 71.1247 0.562578 71.0399 0.595086C70.9551 0.627595 70.8781 0.677581 70.8139 0.741798C70.7497 0.806016 70.6997 0.883027 70.6672 0.967827C70.6347 1.05263 70.6204 1.14332 70.6252 1.23401Z" fill="#C4C4C4"/>
<path d="M21.9009 21.1493H25.6457C25.8295 21.1558 26.0093 21.0944 26.1506 20.9766C26.292 20.8589 26.3849 20.6931 26.4116 20.5111V10.298C26.4116 10.2313 26.4116 10.1639 26.4115 10.0959C26.409 7.86409 26.4058 4.97875 29.0074 4.97875C31.3829 4.97875 31.3436 7.566 31.3122 9.63459C31.3087 9.86349 31.3053 10.086 31.3053 10.298V20.5111C31.3053 20.8516 31.6032 21.1494 31.9862 21.192H35.731C35.9167 21.1959 36.0965 21.1267 36.2318 20.9994C36.3671 20.8721 36.447 20.6967 36.4543 20.5111V10.298C36.4543 10.2005 36.454 10.0991 36.4537 9.99441C36.4501 8.91161 36.4455 7.48831 36.7947 6.59587C36.9762 6.14207 37.2863 5.75124 37.6871 5.47148C38.0878 5.19172 38.5616 5.03526 39.0501 5.02135C40.1566 5.02135 40.9652 5.40433 41.263 6.68093C41.3965 7.28202 41.3728 8.66927 41.3565 9.62939C41.352 9.89275 41.348 10.124 41.348 10.298V20.5111C41.348 20.8516 41.646 21.1494 42.0289 21.192H45.7316C45.9173 21.1959 46.0972 21.1267 46.2324 20.9994C46.3677 20.8721 46.4476 20.6967 46.455 20.5111V8.34064C46.455 8.03054 46.4606 7.71478 46.4663 7.3966C46.4988 5.57533 46.5327 3.67452 45.5187 2.29801C44.4549 0.808558 42.7527 0.170257 41.1782 0.170257C38.9651 0.170257 36.8797 1.3192 35.9863 3.74475C34.9649 1.3192 33.4756 0.170257 31.1351 0.170257C28.8372 0.170257 27.0921 1.3192 26.1988 3.74475H26.1137V1.23401C26.1 1.06197 26.0226 0.901233 25.8967 0.783199C25.7708 0.665165 25.6054 0.598312 25.4328 0.595703H21.9434C21.7577 0.591826 21.5778 0.66099 21.4426 0.78832C21.3073 0.915649 21.2274 1.09098 21.22 1.2766V20.511C21.2477 20.6773 21.3294 20.83 21.4525 20.9453C21.5755 21.0607 21.7331 21.1324 21.9009 21.1493Z" fill="#C4C4C4"/>
<path fill-rule="evenodd" clip-rule="evenodd" d="M103.605 11.0215C103.605 4.93629 100.583 0.170257 95.0087 0.170257C89.5618 0.170257 86.5404 4.85109 86.583 10.8513C86.583 16.8088 89.5618 21.5749 95.0087 21.5749C100.286 21.5749 103.605 16.894 103.605 11.0215ZM92.0725 10.2555C92.0725 7.91507 92.2427 4.12772 95.0087 4.12772C96.2003 4.12772 97.0513 4.63824 97.4769 6.00003C97.9451 7.53209 98.0301 9.48946 98.0301 11.1066C98.0301 13.5747 97.86 17.6174 94.9663 17.6174C92.0707 17.6174 92.0719 12.7345 92.0725 10.3546L92.0725 10.2555Z" fill="#C4C4C4"/>
<path d="M107.052 21.1493H110.796C110.985 21.1476 111.166 21.078 111.307 20.9528C111.448 20.8277 111.538 20.6557 111.562 20.4688V10.085C111.562 8.76584 111.647 7.6165 112.158 6.42535C112.583 5.489 113.435 4.89343 114.328 4.89343C116.715 4.89343 116.691 7.48493 116.672 9.55636C116.67 9.73733 116.668 9.91433 116.668 10.0853V20.5533C116.711 20.8511 117.009 21.1063 117.349 21.1489H121.094C121.267 21.1566 121.437 21.0999 121.57 20.99C121.704 20.88 121.792 20.7244 121.818 20.5533V8.42545C121.818 6.55301 121.818 3.95721 120.839 2.42529C119.775 0.765443 118.116 0.169866 116.456 0.169866C113.86 0.169866 112.413 1.40388 111.35 4.04228H111.264V1.10609C111.227 0.952349 111.14 0.815152 111.017 0.71531C110.894 0.615467 110.742 0.558428 110.584 0.552848H107.094C106.917 0.554195 106.746 0.619519 106.613 0.7368C106.48 0.854082 106.394 1.01543 106.371 1.19115V20.4684C106.371 20.8089 106.669 21.1067 107.052 21.1493Z" fill="#C4C4C4"/>
<path fill-rule="evenodd" clip-rule="evenodd" d="M64.1499 21.2931C64.3101 21.2778 64.4616 21.2127 64.5828 21.1068L64.5843 21.1067C64.8562 20.8801 65.2032 20.5838 65.5738 20.2672C66.2473 19.6921 66.9989 19.0502 67.5205 18.6385C67.8183 18.4258 67.7758 18.0002 67.5205 17.6598C67.4384 17.5419 67.3558 17.4271 67.2739 17.3133C66.6758 16.4824 66.1162 15.705 66.1162 14.1704V8.34052C66.1162 8.14569 66.1173 7.95191 66.1183 7.7594C66.1306 5.51376 66.142 3.44009 64.4566 1.87231C63.0098 0.468045 60.6268 0 58.797 0C55.2225 0 51.2649 1.3192 50.4139 5.74484C50.3288 6.21302 50.6693 6.42574 50.9671 6.5108L54.5842 6.89379C54.9247 6.89379 55.1374 6.55327 55.2225 6.21289C55.5204 4.68083 56.797 3.95747 58.2439 3.95747C59.0092 3.95747 59.8603 4.25526 60.3284 4.93616C60.8174 5.61336 60.8076 6.52364 60.7987 7.34291C60.7976 7.45028 60.7964 7.5561 60.7964 7.65962V8.12766C60.4436 8.16918 60.0727 8.20845 59.6903 8.24896C57.7206 8.45755 55.4429 8.69876 53.7325 9.44686C51.3914 10.4683 49.7318 12.5108 49.7318 15.5747C49.7318 19.4471 52.1999 21.4046 55.349 21.4046C57.9872 21.4046 59.4767 20.7656 61.5193 18.6811C61.6187 18.824 61.7091 18.957 61.7948 19.083C62.2959 19.82 62.6357 20.3197 63.6895 21.1919C63.8286 21.2729 63.9896 21.3083 64.1499 21.2931ZM60.7958 12.1863C60.7956 12.1106 60.7955 12.0345 60.7955 11.9577V11.1498C58.072 11.1498 55.2209 11.7457 55.2209 14.9372C55.2209 16.5543 56.0719 17.6606 57.5188 17.6606C58.5827 17.6606 59.519 17.0223 60.1146 15.9584C60.7997 14.7086 60.7979 13.5358 60.7958 12.1863Z" fill="#C4C4C4"/>
<path fill-rule="evenodd" clip-rule="evenodd" d="M14.9571 21.2931C15.1174 21.2778 15.2688 21.2127 15.3901 21.1068L15.3916 21.1067C15.6635 20.8801 16.0104 20.5838 16.3811 20.2673C17.0546 19.6921 17.8062 19.0502 18.3277 18.6385C18.6255 18.4258 18.5831 18.0002 18.3277 17.6598C18.2457 17.5419 18.1631 17.4271 18.0811 17.3133C17.483 16.4824 16.9235 15.705 16.9235 14.1704V8.34052C16.9235 8.14569 16.9245 7.95192 16.9256 7.75941C16.9379 5.51377 16.9493 3.44009 15.2639 1.87231C13.817 0.468045 11.4341 0 9.60424 0C6.02975 0 2.07215 1.3192 1.22113 5.74484C1.13606 6.21302 1.47658 6.42574 1.77436 6.5108L5.39145 6.89379C5.73196 6.89379 5.94469 6.55327 6.02975 6.21289C6.32767 4.68083 7.60427 3.95747 9.05113 3.95747C9.81645 3.95747 10.6676 4.25526 11.1356 4.93616C11.6247 5.61336 11.6148 6.52364 11.606 7.34291C11.6048 7.45029 11.6037 7.5561 11.6037 7.65962V8.12766C11.2509 8.16918 10.88 8.20845 10.4976 8.24896C8.52791 8.45755 6.25021 8.69876 4.53978 9.44686C2.19865 10.4683 0.539062 12.5108 0.539062 15.5747C0.539062 19.4471 3.0072 21.4046 6.15625 21.4046C8.79452 21.4046 10.284 20.7656 12.3265 18.6811C12.426 18.8241 12.5164 18.957 12.6021 19.083C13.1031 19.82 13.4429 20.3197 14.4968 21.1919C14.6358 21.2729 14.7969 21.3083 14.9571 21.2931ZM11.6456 12.1863C11.6455 12.1107 11.6454 12.0345 11.6454 11.9577V11.1498C8.92192 11.1498 6.07079 11.7457 6.07079 14.9372C6.07079 16.5543 6.92182 17.6606 8.36868 17.6606C9.43256 17.6606 10.3689 17.0223 10.9645 15.9584C11.6496 14.7086 11.6477 13.5358 11.6456 12.1863Z" fill="#C4C4C4"/>
<path d="M78.71 25.1919C77.8166 24.043 72.7524 24.6387 70.4971 24.9366C69.8162 25.0217 69.6885 24.426 70.3269 24.0004C74.3695 21.1493 80.9654 22.0003 81.7313 22.9365C82.4973 23.8727 81.5186 30.5107 77.7306 33.6601C77.1351 34.1282 76.5817 33.8728 76.8373 33.2345L76.8818 33.1233C77.7533 30.9464 79.5883 26.3627 78.71 25.1919Z" fill="#C4C4C4"/>
<path d="M75.774 28.554C68.7525 33.7458 58.5396 36.5116 49.7309 36.5116C37.3902 36.5116 26.3262 31.9583 17.9005 24.3838C17.2622 23.7882 17.8154 22.9795 18.6238 23.4476C27.6879 28.7242 38.8796 31.8733 50.4542 31.8733C58.2417 31.8733 66.8375 30.2563 74.7526 26.8944C75.9437 26.4264 76.9229 27.703 75.774 28.554Z" fill="#C4C4C4"/>
</svg>
