<svg width="116" height="17" viewBox="0 0 116 17" fill="none" xmlns="http://www.w3.org/2000/svg">
<path d="M20.2708 6.15574C20.2009 5.97548 20.0148 5.8441 19.7908 5.81689L13.4977 5.05133L10.6833 0.277513C10.5831 0.107573 10.3764 0 10.15 0C9.92364 0 9.71691 0.107573 9.61672 0.277513L6.80217 5.05133L0.509197 5.81689C0.285224 5.8441 0.0990758 5.97548 0.0291362 6.1557C-0.0408429 6.33597 0.0175193 6.53382 0.179641 6.66609L4.73316 10.382L3.65838 15.629C3.62008 15.8158 3.71183 16.0045 3.89496 16.1159C3.99856 16.1789 4.12127 16.211 4.24458 16.211C4.33926 16.211 4.43426 16.1921 4.52125 16.1538L10.15 13.6765L15.7785 16.1538C15.9789 16.242 16.2217 16.2273 16.4048 16.1159C16.588 16.0045 16.6797 15.8157 16.6415 15.6289L15.5663 10.382L20.1204 6.66606C20.2825 6.53382 20.3409 6.33597 20.2708 6.15574Z" fill="#FFCA56"/>
<path d="M44.1966 6.15574C44.1267 5.97548 43.9406 5.8441 43.7166 5.81689L37.4235 5.05133L34.6091 0.277513C34.5089 0.107573 34.3022 0 34.0758 0C33.8494 0 33.6427 0.107573 33.5425 0.277513L30.728 5.05133L24.435 5.81689C24.211 5.8441 24.0249 5.97548 23.9549 6.1557C23.8849 6.33597 23.9433 6.53382 24.1054 6.66609L28.6589 10.382L27.5842 15.629C27.5459 15.8158 27.6376 16.0045 27.8207 16.1159C27.9243 16.1789 28.0471 16.211 28.1704 16.211C28.265 16.211 28.36 16.1921 28.447 16.1538L34.0758 13.6765L39.7043 16.1538C39.9047 16.242 40.1475 16.2273 40.3306 16.1159C40.5137 16.0045 40.6055 15.8157 40.5673 15.6289L39.4921 10.382L44.0462 6.66606C44.2082 6.53382 44.2666 6.33597 44.1966 6.15574Z" fill="#FFCA56"/>
<path d="M68.1205 6.15574C68.0505 5.97548 67.8644 5.8441 67.6404 5.81689L61.3473 5.05133L58.5329 0.277513C58.4328 0.107573 58.226 0 57.9996 0C57.7732 0 57.5665 0.107573 57.4663 0.277513L54.6518 5.05133L48.3588 5.81689C48.1348 5.8441 47.9487 5.97548 47.8787 6.1557C47.8088 6.33597 47.8671 6.53382 48.0293 6.66609L52.5828 10.382L51.508 15.629C51.4697 15.8158 51.5614 16.0045 51.7446 16.1159C51.8482 16.1789 51.9709 16.211 52.0942 16.211C52.1889 16.211 52.2839 16.1921 52.3709 16.1538L57.9996 13.6765L63.6281 16.1538C63.8285 16.242 64.0713 16.2273 64.2544 16.1159C64.4376 16.0045 64.5294 15.8157 64.4911 15.6289L63.4159 10.382L67.97 6.66606C68.1321 6.53382 68.1905 6.33597 68.1205 6.15574Z" fill="#FFCA56"/>
<path d="M92.0462 6.15574C91.9763 5.97548 91.7902 5.8441 91.5662 5.81689L85.2731 5.05133L82.4587 0.277513C82.3585 0.107573 82.1518 0 81.9254 0C81.699 0 81.4923 0.107573 81.3921 0.277513L78.5776 5.05133L72.2846 5.81689C72.0606 5.8441 71.8745 5.97548 71.8045 6.1557C71.7345 6.33597 71.7929 6.53382 71.955 6.66609L76.5086 10.382L75.4338 15.629C75.3955 15.8158 75.4872 16.0045 75.6704 16.1159C75.774 16.1789 75.8967 16.211 76.02 16.211C76.1147 16.211 76.2096 16.1921 76.2966 16.1538L81.9254 13.6765L87.5539 16.1538C87.7543 16.242 87.9971 16.2273 88.1802 16.1159C88.3633 16.0045 88.4551 15.8157 88.4169 15.6289L87.3417 10.382L91.8958 6.66606C92.0579 6.53382 92.1163 6.33597 92.0462 6.15574Z" fill="#FFCA56"/>
<path d="M115.97 6.15574C115.9 5.97548 115.714 5.8441 115.49 5.81689L109.197 5.05133L106.383 0.277513C106.282 0.107573 106.076 0 105.849 0C105.623 0 105.416 0.107573 105.316 0.277513L102.501 5.05133L96.2084 5.81689C95.9844 5.8441 95.7983 5.97548 95.7284 6.1557C95.6584 6.33597 95.7167 6.53382 95.8789 6.66609L100.432 10.382L99.3576 15.629C99.3193 15.8158 99.411 16.0045 99.5942 16.1159C99.6978 16.1789 99.8205 16.211 99.9438 16.211C100.038 16.211 100.133 16.1921 100.22 16.1538L105.849 13.6765L111.478 16.1538C111.678 16.242 111.921 16.2273 112.104 16.1159C112.287 16.0045 112.379 15.8157 112.341 15.6289L111.266 10.382L115.82 6.66606C115.982 6.53382 116.04 6.33597 115.97 6.15574Z" fill="#FFCA56"/>
</svg>
