<svg width="122" height="37" viewBox="0 0 122 37" fill="none" xmlns="http://www.w3.org/2000/svg">
<path d="M70.6213 1.23401V4.00071C70.6288 4.18625 70.7088 4.36143 70.8441 4.48863C70.9794 4.61582 71.1592 4.68488 71.3448 4.68096H77.7712L70.3668 15.2769C69.8987 15.9581 69.8987 16.7236 69.8987 17.1492V19.9575C69.8987 20.3831 70.3665 20.8085 70.7921 20.5958C74.9623 18.3404 80.0262 18.5531 83.8136 20.5532C84.2814 20.8082 84.7069 20.3405 84.7069 19.9149V16.9787C84.6642 16.5957 84.5367 16.1701 84.0686 15.9148C81.9413 14.7237 79.4303 14.3833 77.0472 14.4259L83.4302 5.31926C84.026 4.46785 84.3664 3.95747 84.3664 3.57449V1.23401C84.3591 1.04836 84.2792 0.873012 84.1439 0.745678C84.0085 0.618345 83.8287 0.549198 83.6429 0.553109H71.3022C71.2115 0.548276 71.1208 0.562578 71.036 0.595086C70.9512 0.627595 70.8742 0.677581 70.81 0.741798C70.7458 0.806016 70.6958 0.883027 70.6633 0.967827C70.6308 1.05263 70.6165 1.14332 70.6213 1.23401Z" fill="white"/>
<path d="M21.897 21.1493H25.6418C25.8256 21.1558 26.0054 21.0944 26.1467 20.9766C26.2881 20.8589 26.381 20.6931 26.4077 20.5111V10.298C26.4077 10.2313 26.4077 10.1639 26.4076 10.0959C26.4051 7.86409 26.4019 4.97875 29.0035 4.97875C31.379 4.97875 31.3397 7.566 31.3083 9.63459C31.3048 9.86349 31.3014 10.086 31.3014 10.298V20.5111C31.3014 20.8516 31.5993 21.1494 31.9823 21.192H35.7271C35.9128 21.1959 36.0926 21.1267 36.2279 20.9994C36.3632 20.8721 36.4431 20.6967 36.4504 20.5111V10.298C36.4504 10.2005 36.4501 10.0991 36.4498 9.99441C36.4462 8.91161 36.4416 7.48831 36.7908 6.59587C36.9723 6.14207 37.2824 5.75124 37.6832 5.47148C38.0839 5.19172 38.5577 5.03526 39.0462 5.02135C40.1527 5.02135 40.9613 5.40433 41.2591 6.68093C41.3926 7.28202 41.3689 8.66927 41.3526 9.62939C41.3481 9.89275 41.3441 10.124 41.3441 10.298V20.5111C41.3441 20.8516 41.642 21.1494 42.025 21.192H45.7277C45.9134 21.1959 46.0933 21.1267 46.2285 20.9994C46.3638 20.8721 46.4437 20.6967 46.451 20.5111V8.34064C46.451 8.03054 46.4567 7.71478 46.4624 7.3966C46.4949 5.57533 46.5288 3.67452 45.5148 2.29801C44.451 0.808558 42.7488 0.170257 41.1742 0.170257C38.9612 0.170257 36.8758 1.3192 35.9824 3.74475C34.961 1.3192 33.4716 0.170257 31.1312 0.170257C28.8333 0.170257 27.0882 1.3192 26.1949 3.74475H26.1098V1.23401C26.0961 1.06197 26.0187 0.901233 25.8928 0.783199C25.7669 0.665165 25.6015 0.598312 25.4289 0.595703H21.9395C21.7538 0.591826 21.5739 0.66099 21.4387 0.78832C21.3034 0.915649 21.2235 1.09098 21.2161 1.2766V20.511C21.2438 20.6773 21.3255 20.83 21.4486 20.9453C21.5716 21.0607 21.7292 21.1324 21.897 21.1493Z" fill="white"/>
<path fill-rule="evenodd" clip-rule="evenodd" d="M103.601 11.0215C103.601 4.93629 100.579 0.170257 95.0048 0.170257C89.5579 0.170257 86.5365 4.85109 86.5791 10.8513C86.5791 16.8088 89.5579 21.5749 95.0048 21.5749C100.282 21.5749 103.601 16.894 103.601 11.0215ZM92.0686 10.2555C92.0686 7.91507 92.2388 4.12772 95.0048 4.12772C96.1964 4.12772 97.0474 4.63824 97.473 6.00003C97.9411 7.53209 98.0262 9.48946 98.0262 11.1066C98.0262 13.5747 97.8561 17.6174 94.9624 17.6174C92.0668 17.6174 92.068 12.7345 92.0686 10.3546L92.0686 10.2555Z" fill="white"/>
<path d="M107.048 21.1493H110.792C110.981 21.1476 111.162 21.078 111.303 20.9528C111.444 20.8277 111.534 20.6557 111.558 20.4688V10.085C111.558 8.76584 111.643 7.6165 112.154 6.42535C112.579 5.489 113.431 4.89343 114.324 4.89343C116.711 4.89343 116.687 7.48493 116.668 9.55636C116.666 9.73733 116.664 9.91433 116.664 10.0853V20.5533C116.707 20.8511 117.005 21.1063 117.345 21.1489H121.09C121.263 21.1566 121.433 21.0999 121.566 20.99C121.7 20.88 121.788 20.7244 121.814 20.5533V8.42545C121.814 6.55301 121.814 3.95721 120.835 2.42529C119.771 0.765443 118.112 0.169866 116.452 0.169866C113.856 0.169866 112.409 1.40388 111.346 4.04228H111.261V1.10609C111.223 0.952349 111.136 0.815152 111.013 0.71531C110.89 0.615467 110.738 0.558428 110.58 0.552848H107.09C106.913 0.554195 106.742 0.619519 106.609 0.7368C106.476 0.854082 106.39 1.01543 106.367 1.19115V20.4684C106.367 20.8089 106.665 21.1067 107.048 21.1493Z" fill="white"/>
<path fill-rule="evenodd" clip-rule="evenodd" d="M64.146 21.2931C64.3062 21.2778 64.4577 21.2127 64.5789 21.1068L64.5804 21.1067C64.8523 20.8801 65.1993 20.5838 65.5699 20.2672C66.2434 19.6921 66.995 19.0502 67.5166 18.6385C67.8143 18.4258 67.7719 18.0002 67.5166 17.6598C67.4345 17.5419 67.3519 17.4271 67.27 17.3133C66.6719 16.4824 66.1123 15.705 66.1123 14.1704V8.34052C66.1123 8.14569 66.1134 7.95191 66.1144 7.7594C66.1267 5.51376 66.1381 3.44009 64.4527 1.87231C63.0058 0.468045 60.6229 0 58.7931 0C55.2186 0 51.261 1.3192 50.4099 5.74484C50.3249 6.21302 50.6654 6.42574 50.9632 6.5108L54.5803 6.89379C54.9208 6.89379 55.1335 6.55327 55.2186 6.21289C55.5165 4.68083 56.7931 3.95747 58.24 3.95747C59.0053 3.95747 59.8564 4.25526 60.3245 4.93616C60.8135 5.61336 60.8036 6.52364 60.7948 7.34291C60.7937 7.45028 60.7925 7.5561 60.7925 7.65962V8.12766C60.4397 8.16918 60.0688 8.20845 59.6864 8.24896C57.7167 8.45755 55.439 8.69876 53.7286 9.44686C51.3875 10.4683 49.7279 12.5108 49.7279 15.5747C49.7279 19.4471 52.196 21.4046 55.3451 21.4046C57.9833 21.4046 59.4728 20.7656 61.5154 18.6811C61.6148 18.824 61.7052 18.957 61.7909 19.083C62.292 19.82 62.6318 20.3197 63.6856 21.1919C63.8247 21.2729 63.9857 21.3083 64.146 21.2931ZM60.7918 12.1863C60.7917 12.1106 60.7916 12.0345 60.7916 11.9577V11.1498C58.0681 11.1498 55.217 11.7457 55.217 14.9372C55.217 16.5543 56.068 17.6606 57.5149 17.6606C58.5788 17.6606 59.5151 17.0223 60.1107 15.9584C60.7958 14.7086 60.794 13.5358 60.7918 12.1863Z" fill="white"/>
<path fill-rule="evenodd" clip-rule="evenodd" d="M14.9532 21.2931C15.1135 21.2778 15.2649 21.2127 15.3862 21.1068L15.3876 21.1067C15.6596 20.8801 16.0065 20.5838 16.3772 20.2673C17.0507 19.6921 17.8023 19.0502 18.3238 18.6385C18.6216 18.4258 18.5792 18.0002 18.3238 17.6598C18.2418 17.5419 18.1592 17.4271 18.0772 17.3133C17.4791 16.4824 16.9196 15.705 16.9196 14.1704V8.34052C16.9196 8.14569 16.9206 7.95192 16.9217 7.75941C16.934 5.51377 16.9453 3.44009 15.26 1.87231C13.8131 0.468045 11.4302 0 9.60033 0C6.02585 0 2.06825 1.3192 1.21722 5.74484C1.13216 6.21302 1.47267 6.42574 1.77046 6.5108L5.38754 6.89379C5.72806 6.89379 5.94078 6.55327 6.02585 6.21289C6.32376 4.68083 7.60037 3.95747 9.04723 3.95747C9.81254 3.95747 10.6637 4.25526 11.1317 4.93616C11.6208 5.61336 11.6109 6.52364 11.6021 7.34291C11.6009 7.45029 11.5998 7.5561 11.5998 7.65962V8.12766C11.247 8.16918 10.8761 8.20845 10.4937 8.24896C8.524 8.45755 6.24631 8.69876 4.53587 9.44686C2.19474 10.4683 0.535156 12.5108 0.535156 15.5747C0.535156 19.4471 3.0033 21.4046 6.15234 21.4046C8.79061 21.4046 10.2801 20.7656 12.3226 18.6811C12.4221 18.8241 12.5125 18.957 12.5982 19.083C13.0992 19.82 13.439 20.3197 14.4929 21.1919C14.6319 21.2729 14.793 21.3083 14.9532 21.2931ZM11.6417 12.1863C11.6416 12.1107 11.6415 12.0345 11.6415 11.9577V11.1498C8.91801 11.1498 6.06689 11.7457 6.06689 14.9372C6.06689 16.5543 6.91791 17.6606 8.36477 17.6606C9.42865 17.6606 10.365 17.0223 10.9606 15.9584C11.6457 14.7086 11.6438 13.5358 11.6417 12.1863Z" fill="white"/>
<path d="M78.7061 25.1919C77.8127 24.043 72.7485 24.6387 70.4932 24.9366C69.8123 25.0217 69.6846 24.426 70.3229 24.0004C74.3656 21.1493 80.9615 22.0003 81.7274 22.9365C82.4934 23.8727 81.5147 30.5107 77.7267 33.6601C77.1311 34.1282 76.5778 33.8728 76.8334 33.2345L76.8779 33.1233C77.7494 30.9464 79.5844 26.3627 78.7061 25.1919Z" fill="white"/>
<path d="M75.7701 28.554C68.7486 33.7458 58.5357 36.5116 49.727 36.5116C37.3863 36.5116 26.3223 31.9583 17.8966 24.3838C17.2583 23.7882 17.8115 22.9795 18.6199 23.4476C27.6839 28.7242 38.8757 31.8733 50.4503 31.8733C58.2378 31.8733 66.8336 30.2563 74.7487 26.8944C75.9398 26.4264 76.919 27.703 75.7701 28.554Z" fill="white"/>
</svg>
