<svg width="24" height="18" viewBox="0 0 24 18" fill="none" xmlns="http://www.w3.org/2000/svg">
<path d="M15.4667 8.99967L15.8716 9.68959C16.1163 9.54597 16.2667 9.28343 16.2667 8.99967C16.2667 8.71591 16.1163 8.45338 15.8716 8.30975L15.4667 8.99967ZM9.33333 5.39967L9.73829 4.70975C9.49093 4.56455 9.18475 4.5629 8.93581 4.70543C8.68691 4.84794 8.53333 5.11285 8.53333 5.39967H9.33333ZM9.33333 12.5997H8.53333C8.53333 12.8865 8.68691 13.1514 8.93581 13.2939C9.18475 13.4364 9.49093 13.4348 9.73829 13.2896L9.33333 12.5997ZM1.72432 4.95885C1.7944 3.48223 2.9 2.31517 4.33699 2.20578L4.21557 0.610394C1.93664 0.783861 0.232683 2.63714 0.126128 4.88303L1.72432 4.95885ZM1.6 8.94989C1.6 7.88247 1.65853 6.34554 1.72432 4.95885L0.126128 4.88303C0.060272 6.27109 0 7.84117 0 8.94989H1.6ZM1.72683 12.9933C1.66003 11.5933 1.6 10.0309 1.6 8.94989H0C0 10.0725 0.0618 11.6684 0.12864 13.0695L1.72683 12.9933ZM4.28931 15.7364C2.87536 15.6096 1.7964 14.4521 1.72683 12.9933L0.12864 13.0695C0.234344 15.2854 1.89613 17.1282 4.14635 17.33L4.28931 15.7364ZM12 16.0663C8.79021 16.0663 6.15195 15.9036 4.28931 15.7364L4.14635 17.33C6.05029 17.5009 8.73664 17.6663 12 17.6663V16.0663ZM19.6954 15.7378C17.8337 15.9044 15.201 16.0663 12 16.0663V17.6663C15.2545 17.6663 17.9351 17.5018 19.8381 17.3315L19.6954 15.7378ZM22.2663 12.9774C22.1972 14.4451 21.1142 15.6108 19.6954 15.7378L19.8381 17.3315C22.0976 17.1292 23.76 15.2738 23.8646 13.0526L22.2663 12.9774ZM22.4 8.94989C22.4 9.88133 22.3359 11.5001 22.2663 12.9774L23.8646 13.0526C23.9339 11.5807 24 9.92495 24 8.94989H22.4ZM22.2688 4.97463C22.3374 6.43802 22.4 8.02957 22.4 8.94989H24C24 7.98623 23.9354 6.35797 23.867 4.8997L22.2688 4.97463ZM19.6472 2.20458C21.0892 2.31405 22.1991 3.48922 22.2688 4.97463L23.867 4.8997C23.7615 2.64837 22.0565 0.782875 19.7683 0.609168L19.6472 2.20458ZM12 1.93301C15.2221 1.93301 17.813 2.06535 19.6472 2.20458L19.7683 0.609168C17.8972 0.467141 15.2658 0.333008 12 0.333008V1.93301ZM4.33699 2.20578C6.17208 2.0661 8.76864 1.93301 12 1.93301V0.333008C8.72485 0.333008 6.08768 0.467914 4.21557 0.610394L4.33699 2.20578ZM15.8716 8.30975L9.73829 4.70975L8.92837 6.08959L15.0617 9.68959L15.8716 8.30975ZM9.73829 13.2896L15.8716 9.68959L15.0617 8.30975L8.92837 11.9098L9.73829 13.2896ZM8.53333 5.39967V12.5997H10.1333V5.39967H8.53333Z" fill="black"/>
</svg>
