<svg width="20" height="20" viewBox="0 0 20 20" fill="none" xmlns="http://www.w3.org/2000/svg">
<path fill-rule="evenodd" clip-rule="evenodd" d="M14.3333 10C14.3333 7.60677 12.3932 5.66667 10 5.66667C7.60677 5.66667 5.66667 7.60677 5.66667 10C5.66667 12.3932 7.60677 14.3333 10 14.3333C12.3932 14.3333 14.3333 12.3932 14.3333 10ZM10 7C11.6569 7 13 8.34313 13 10C13 11.6569 11.6569 13 10 13C8.34313 13 7 11.6569 7 10C7 8.34313 8.34313 7 10 7Z" fill="#D7DFE9"/>
<path fill-rule="evenodd" clip-rule="evenodd" d="M8.66667 0C8.32697 0 8.0416 0.255423 8.00407 0.593047L7.77423 2.6616C7.28907 2.80857 6.8243 3.0023 6.38523 3.23743L4.7597 1.93703C4.49443 1.72482 4.11203 1.746 3.87183 1.9862L1.98622 3.87183C1.74602 4.11203 1.72484 4.49443 1.93705 4.7597L3.23747 6.3852C3.0023 6.82427 2.80857 7.28907 2.6616 7.77423L0.593047 8.00407C0.255423 8.0416 0 8.32697 0 8.66667V11.3333C0 11.673 0.255423 11.9584 0.593047 11.9959L2.6616 12.2258C2.8086 12.711 3.00233 13.1758 3.2375 13.6149L1.93703 15.2405C1.72482 15.5057 1.746 15.8881 1.9862 16.1283L3.87183 18.0139C4.11203 18.2541 4.49443 18.2753 4.7597 18.0631L6.3853 16.7626C6.82437 16.9977 7.2891 17.1914 7.77423 17.3384L8.00407 19.407C8.0416 19.7446 8.32697 20 8.66667 20H11.3333C11.673 20 11.9584 19.7446 11.9959 19.407L12.2258 17.3384C12.7109 17.1914 13.1757 16.9977 13.6148 16.7626L15.2405 18.0631C15.5058 18.2754 15.8882 18.2542 16.1284 18.014L18.014 16.1284C18.2542 15.8882 18.2754 15.5058 18.0632 15.2405L16.7626 13.6147C16.9977 13.1757 17.1914 12.7109 17.3384 12.2258L19.407 11.9959C19.7446 11.9584 20 11.673 20 11.3333V8.66667C20 8.32697 19.7446 8.0416 19.407 8.00407L17.3384 7.77423C17.1914 7.28907 16.9977 6.8243 16.7625 6.3852L18.063 4.75967C18.2752 4.4944 18.254 4.112 18.0138 3.8718L16.1282 1.98617C15.888 1.74596 15.5056 1.72478 15.2403 1.93699L13.6148 3.23743C13.1757 3.0023 12.7109 2.80857 12.2258 2.6616L11.9959 0.593047C11.9584 0.255423 11.673 0 11.3333 0H8.66667ZM9.04923 3.26047L9.26337 1.33333H10.7366L10.9508 3.26047C10.9819 3.54063 11.1859 3.77097 11.4603 3.8357C12.1291 3.99347 12.7571 4.25737 13.3257 4.60897C13.5655 4.75723 13.8726 4.73867 14.0928 4.56253L15.6073 3.3509L16.6491 4.39267L15.4375 5.9072C15.2613 6.12733 15.2427 6.4345 15.391 6.67427C15.7426 7.24287 16.0065 7.8709 16.1643 8.5397C16.229 8.8141 16.4594 9.0181 16.7395 9.04923L18.6667 9.26337V10.7366L16.7395 10.9508C16.4594 10.9819 16.229 11.1859 16.1643 11.4603C16.0065 12.1291 15.7426 12.7571 15.391 13.3257C15.2428 13.5655 15.2614 13.8726 15.4375 14.0928L16.6493 15.6075L15.6075 16.6492L14.0928 15.4375C13.8726 15.2613 13.5655 15.2427 13.3257 15.391C12.7571 15.7426 12.1291 16.0065 11.4603 16.1643C11.1859 16.229 10.9819 16.4594 10.9508 16.7395L10.7366 18.6667H9.26337L9.04923 16.7395C9.0181 16.4594 8.8141 16.229 8.5397 16.1643C7.87093 16.0065 7.24297 15.7426 6.67437 15.3911C6.4346 15.2428 6.12747 15.2614 5.9073 15.4375L4.3927 16.6492L3.35093 15.6074L4.5626 14.0929C4.7387 13.8727 4.7573 13.5656 4.60903 13.3258C4.2574 12.7572 3.99347 12.1291 3.8357 11.4603C3.77097 11.1859 3.54063 10.9819 3.26047 10.9508L1.33333 10.7366V9.26337L3.26047 9.04923C3.54063 9.0181 3.77097 8.8141 3.8357 8.5397C3.99347 7.8709 4.2574 7.24287 4.609 6.67427C4.75727 6.43447 4.73867 6.12733 4.56257 5.9072L3.35097 4.3927L4.39273 3.35093L5.90723 4.56253C6.12737 4.73867 6.4345 4.75723 6.6743 4.60897C7.2429 4.25737 7.8709 3.99347 8.5397 3.8357C8.8141 3.77097 9.0181 3.54063 9.04923 3.26047Z" fill="#D7DFE9"/>
</svg>
