<svg width="24" height="24" viewBox="0 0 24 24" fill="none" xmlns="http://www.w3.org/2000/svg">
<path d="M18.5081 13.4527L16.3479 11.9129C16.0195 11.6782 15.6181 11.5857 15.2167 11.6462C14.8153 11.7066 14.465 11.9164 14.2241 12.2365L13.5563 13.1291C13.549 13.1397 13.5417 13.1504 13.5344 13.1611C13.4323 13.1753 12.8922 13.186 11.6004 12.1831L11.4618 12.0871C10.1116 11.2123 9.95834 10.7109 9.94009 10.6078C9.94739 10.5971 9.95834 10.5865 9.96564 10.5758L10.6334 9.68321C11.126 9.02534 10.9801 8.0972 10.3014 7.61357L8.10096 6.0489C7.42588 5.56527 6.47347 5.71107 5.97719 6.3725L5.30211 7.27575C4.64893 8.15054 4.47742 9.29916 4.84598 10.3482C5.38239 11.8666 6.7289 13.4704 8.85997 15.1205C8.89646 15.1631 8.94025 15.1987 8.98768 15.2343C9.03877 15.2698 9.09351 15.3054 9.1446 15.3409C9.19568 15.3801 9.24677 15.4156 9.29786 15.4547C9.34529 15.4903 9.39638 15.5187 9.44747 15.5401C11.7099 17.0123 13.6877 17.7769 15.3371 17.8089C15.359 17.8089 15.3845 17.8089 15.4064 17.8089C16.4829 17.8089 17.5119 17.2932 18.1615 16.422L18.8366 15.5187C19.0774 15.1987 19.1723 14.8075 19.1102 14.4164C19.0518 14.0287 18.8366 13.6838 18.5081 13.4527ZM17.6616 14.6831L16.9865 15.5863C16.5997 16.1019 15.9793 16.3971 15.3699 16.3864C14.3847 16.3651 12.6623 15.9668 10.0131 14.1923C7.46967 12.272 6.55375 10.7963 6.23263 9.88947C6.02098 9.28849 6.11586 8.60928 6.48442 8.11854L7.1595 7.21529C7.17774 7.1904 7.21423 7.18329 7.24342 7.20107L9.44382 8.76574C9.46936 8.78352 9.47666 8.82264 9.45842 8.84753L8.81983 9.69744C8.62643 9.90369 8.45492 10.2522 8.48411 10.6967C8.5425 11.5182 9.25042 12.3609 10.6298 13.2535L10.7137 13.314C12.031 14.3381 13.071 14.74 13.892 14.5444C14.3336 14.4377 14.6219 14.171 14.7642 13.9292L15.4028 13.0793C15.421 13.0579 15.4648 13.0508 15.4867 13.065L17.6506 14.6048C17.6725 14.6155 17.6761 14.6582 17.6616 14.6831Z" fill="black"/>
<path d="M12.0018 0C5.38604 0 0 5.24522 0 11.696C0 14.4128 0.967006 17.0301 2.72951 19.1211L0.704273 22.9652C0.569257 23.2177 0.605747 23.5235 0.79185 23.744C0.934165 23.9075 1.13851 24 1.35381 24C1.42314 24 1.49247 23.9893 1.56181 23.9716L7.09016 22.3713C8.63737 23.0505 10.2868 23.3919 11.9982 23.3919C18.614 23.3919 24 18.1467 24 11.696C24 5.24522 18.6176 0 12.0018 0ZM12.0018 21.9659C10.4145 21.9659 8.88551 21.6316 7.46602 20.9667C7.30181 20.892 7.11571 20.8778 6.9442 20.9275L2.7879 22.1331L4.25483 19.3451C4.39349 19.0819 4.3497 18.7654 4.149 18.545C2.41569 16.6602 1.45963 14.2243 1.45963 11.696C1.45963 6.03112 6.18884 1.42243 12.0018 1.42243C17.8148 1.42243 22.5404 6.03112 22.5404 11.696C22.5404 17.3608 17.8148 21.9659 12.0018 21.9659Z" fill="black"/>
</svg>
