<svg width="18" height="8" viewBox="0 0 18 8" fill="none" xmlns="http://www.w3.org/2000/svg">
<path d="M6.43812 0.5L6.40898 0.40434L6.40884 0.404382L6.4083 0.404545L6.40621 0.405184L6.39799 0.407693L6.36603 0.417501L6.24442 0.455208C6.1394 0.487976 5.98873 0.535463 5.80596 0.594392C5.44048 0.712228 4.94632 0.875912 4.43199 1.0592C3.91795 1.24239 3.38238 1.44564 2.93458 1.64265C2.71072 1.74114 2.50751 1.83863 2.3393 1.93181C2.17272 2.02409 2.03421 2.11551 1.9446 2.20313L2.01451 2.27463L1.9447 2.20303C1.76071 2.38242 1.61264 2.65947 1.49141 2.98392C1.36943 3.31035 1.27115 3.6944 1.19176 4.09661C1.03296 4.90115 0.947858 5.78828 0.902615 6.45345L0.902614 6.45348C0.859854 7.08427 1.34655 7.6 1.96201 7.6H16.0395C16.6551 7.6 17.1404 7.08423 17.0973 6.45344C17.0522 5.78832 16.9675 4.90119 16.8091 4.09664C16.7299 3.69442 16.6318 3.31036 16.51 2.9839C16.3888 2.65942 16.2408 2.38233 16.0568 2.2029M16.0568 2.2029C16.0568 2.20293 16.0568 2.20296 16.0569 2.20299L15.987 2.2745L16.0568 2.2029Z" fill="#D7DFE9" stroke="black" stroke-width="0.2"/>
</svg>
