<svg width="16" height="12" viewBox="0 0 16 12" fill="none" xmlns="http://www.w3.org/2000/svg">
<path d="M1.22604 0C0.691578 0 0.258301 0.433258 0.258301 0.967742C0.258301 1.50223 0.691578 1.93548 1.22604 1.93548H14.7744C15.3089 1.93548 15.7422 1.50223 15.7422 0.967742C15.7422 0.433258 15.3089 0 14.7744 0H1.22604ZM1.22604 5.03226C0.691578 5.03226 0.258301 5.46551 0.258301 6C0.258301 6.53448 0.691578 6.96774 1.22604 6.96774H14.7744C15.3089 6.96774 15.7422 6.53448 15.7422 6C15.7422 5.46551 15.3089 5.03226 14.7744 5.03226H1.22604ZM1.22604 10.0645C0.691578 10.0645 0.258301 10.4978 0.258301 11.0323C0.258301 11.5667 0.691578 12 1.22604 12H14.7744C15.3089 12 15.7422 11.5667 15.7422 11.0323C15.7422 10.4978 15.3089 10.0645 14.7744 10.0645H1.22604Z" fill="#E9EFF7"/>
</svg>
