<svg width="60" height="30" viewBox="0 0 60 30" fill="none" xmlns="http://www.w3.org/2000/svg">
<path d="M54.5932 28.5671V16.0728H56.5579C58.4627 16.0728 60 14.5186 60 12.5929C60 10.6672 58.4552 9.11297 56.5579 9.11297L24.4319 9.11297C22.9321 3.85899 18.1402 0 12.4634 0C5.5943 0 0 5.64822 0 12.6005C0 19.5451 5.5868 25.1933 12.4634 25.1933C18.1402 25.1933 22.9321 21.3343 24.4319 16.0804L39.0176 16.0804V23.4799C39.0176 24.2684 39.6475 24.9128 40.4349 24.9128H44.2445C45.0244 24.9128 45.6618 24.276 45.6618 23.4799V16.0804H47.949V28.5671C47.949 29.3556 48.5789 30 49.3663 30H53.1759C53.9558 30 54.5932 29.3556 54.5932 28.5671ZM12.4709 18.2259C9.39633 18.2259 6.89914 15.7013 6.89914 12.5929C6.89914 9.48446 9.39633 6.95982 12.4709 6.95982C15.5456 6.95982 18.0427 9.48446 18.0427 12.5929C18.0427 15.7013 15.5381 18.2259 12.4709 18.2259Z" fill="#4EAC4C"/>
</svg>
