<svg width="16" height="16" viewBox="0 0 16 16" fill="none" xmlns="http://www.w3.org/2000/svg">
<path d="M14.1837 16H11.0155C10.6989 15.9991 10.3955 15.8729 10.1717 15.649C9.94782 15.4252 9.82164 15.1218 9.8207 14.8052V10.2217C9.82071 10.2107 9.81848 10.1998 9.81415 10.1896C9.80982 10.1794 9.80348 10.1703 9.7955 10.1626C9.78753 10.155 9.77809 10.149 9.76775 10.1451C9.75742 10.1412 9.7464 10.1395 9.73536 10.14H6.26841C6.24672 10.14 6.22592 10.1486 6.21058 10.1639C6.19524 10.1793 6.18663 10.2001 6.18663 10.2217V14.8052C6.18569 15.1218 6.05951 15.4252 5.83565 15.649C5.61179 15.8729 5.30844 15.9991 4.99186 16H1.81649C1.49929 16 1.19503 15.8742 0.970402 15.6503C0.745775 15.4263 0.619108 15.1224 0.618167 14.8052V6.37787C0.617783 6.20269 0.65616 6.02959 0.730546 5.87098C0.804932 5.71237 0.913486 5.57218 1.04842 5.46046L7.2356 0.279592C7.45079 0.0989942 7.72273 0 8.00366 0C8.28459 0 8.55654 0.0989942 8.77173 0.279592L14.9518 5.46046C15.0867 5.57218 15.1953 5.71237 15.2697 5.87098C15.3441 6.02959 15.3824 6.20269 15.382 6.37787V14.8052C15.3811 15.1224 15.2544 15.4263 15.0298 15.6503C14.8052 15.8742 14.5009 16 14.1837 16ZM6.26841 9.02698H9.73536C10.0522 9.02698 10.3561 9.15286 10.5802 9.37692C10.8042 9.60098 10.9301 9.90487 10.9301 10.2217V14.8052C10.9301 14.8163 10.9323 14.8272 10.9367 14.8374C10.941 14.8475 10.9473 14.8567 10.9553 14.8644C10.9633 14.872 10.9727 14.8779 10.9831 14.8818C10.9934 14.8857 11.0044 14.8875 11.0155 14.887H14.1837C14.1948 14.8875 14.2058 14.8857 14.2161 14.8818C14.2265 14.8779 14.2359 14.872 14.2439 14.8644C14.2518 14.8567 14.2582 14.8475 14.2625 14.8374C14.2669 14.8272 14.2691 14.8163 14.2691 14.8052V6.37787C14.269 6.36496 14.266 6.35223 14.2605 6.34056C14.255 6.3289 14.247 6.31857 14.2371 6.31031L8.057 1.12944C8.04186 1.11732 8.02305 1.11072 8.00366 1.11072C7.98427 1.11072 7.96546 1.11732 7.95033 1.12944L1.76315 6.31387C1.75288 6.321 1.74457 6.3306 1.73898 6.34179C1.73339 6.35297 1.7307 6.36538 1.73115 6.37787V14.8052C1.73114 14.8163 1.73336 14.8272 1.73769 14.8374C1.74203 14.8475 1.74837 14.8567 1.75634 14.8644C1.76432 14.872 1.77376 14.8779 1.7841 14.8818C1.79443 14.8857 1.80545 14.8875 1.81649 14.887H4.99186C5.01355 14.887 5.03435 14.8784 5.04969 14.8631C5.06503 14.8477 5.07364 14.8269 5.07364 14.8052V10.2217C5.07458 9.90516 5.20076 9.60181 5.42462 9.37796C5.64848 9.1541 5.95183 9.02792 6.26841 9.02698Z" fill="#D7DFE9"/>
</svg>
