<svg width="16" height="24" viewBox="0 0 16 24" fill="none" xmlns="http://www.w3.org/2000/svg">
<path d="M12.5703 5.71429H14.856C15.1708 5.71429 15.4275 5.45759 15.4275 5.14286V0.571429C15.4275 0.256686 15.1708 0 14.856 0H11.4275C7.96203 0 5.14174 2.82031 5.14174 6.28571V9.18857H1.14174C0.826998 9.18857 0.570312 9.44527 0.570312 9.76V14.2857C0.570312 14.6005 0.82701 14.8571 1.14174 14.8571H4.74431V23.4286C4.74431 23.7433 5.00101 24 5.31574 24H10.0869C10.4016 24 10.6583 23.7433 10.6583 23.4286V14.8571H13.664C13.9241 14.8571 14.1529 14.683 14.2187 14.4286L15.4107 9.85714C15.4564 9.68527 15.4196 9.50334 15.3102 9.36271C15.202 9.22321 15.0357 9.1395 14.8594 9.1395H10.8594V7.42521C10.8594 6.4799 11.6283 5.71093 12.5736 5.71093L12.5703 5.71429ZM10.2846 10.2857H14.116L13.2221 13.7143H10.0849C9.77017 13.7143 9.51348 13.971 9.51348 14.2857V22.8571H5.8852V14.2857C5.8852 13.971 5.6285 13.7143 5.31377 13.7143H1.7112V10.3314H5.7112C6.02594 10.3314 6.28263 10.0747 6.28263 9.76V6.28571C6.28263 3.45089 8.58843 1.14286 11.4255 1.14286H14.2826V4.57143H12.5683C10.9936 4.57143 9.7112 5.8538 9.7112 7.42857V9.71429C9.7112 10.029 9.9679 10.2857 10.2826 10.2857H10.2846Z" fill="black"/>
</svg>
