<svg width="10" height="10" viewBox="0 0 10 10" fill="none" xmlns="http://www.w3.org/2000/svg">
<path d="M7.26613 7.3991L7.26612 7.39911C6.58322 8.35782 5.75399 8.88571 5 8.88571C4.24601 8.88571 3.41678 8.35782 2.73388 7.39911L2.73387 7.3991C2.07679 6.47682 1.67143 5.31319 1.67143 4.36846C1.67143 2.57624 3.16272 1.11429 5 1.11429C6.83728 1.11429 8.32857 2.57624 8.32857 4.36846C8.32857 5.31319 7.92321 6.47682 7.26613 7.3991ZM0.9 4.36846C0.9 5.45997 1.35622 6.76273 2.08991 7.7927C2.82239 8.82097 3.84866 9.6 5 9.6C6.15134 9.6 7.17761 8.82097 7.91009 7.7927C8.64378 6.76273 9.1 5.45997 9.1 4.36846C9.1 2.17233 7.26175 0.4 5 0.4C2.7382 0.4 0.9 2.17534 0.9 4.36846Z" fill="#D7DFE9" stroke="black" stroke-width="0.2"/>
</svg>
