<svg width="22" height="16" viewBox="0 0 22 16" fill="none" xmlns="http://www.w3.org/2000/svg">
<path d="M19.3637 0C18.1516 0 17.1819 0.969697 17.1819 2.18182C17.1819 2.86061 17.497 3.46667 17.9819 3.87879L14.7576 9.57576C14.5152 9.50303 14.2728 9.45455 14.0303 9.45455C13.6425 9.45455 13.3031 9.55151 12.9879 9.72121L10.8546 6.95758C11.1697 6.5697 11.3637 6.08485 11.3637 5.57576C11.3637 4.36364 10.394 3.39394 9.18186 3.39394C7.96974 3.39394 7.00004 4.36364 7.00004 5.57576C7.00004 6.08485 7.19398 6.5697 7.48489 6.93333L3.60611 11.8788C3.3152 11.7333 2.9758 11.6364 2.63641 11.6364C1.42429 11.6364 0.45459 12.6061 0.45459 13.8182C0.45459 15.0303 1.42429 16 2.63641 16C3.84853 16 4.81823 15.0303 4.81823 13.8182C4.81823 13.3091 4.64853 12.8485 4.35762 12.4848L8.23641 7.53939C8.52732 7.68485 8.84247 7.75758 9.18186 7.75758C9.49701 7.75758 9.81217 7.68485 10.1031 7.56364L12.2607 10.3758C11.994 10.7152 11.8485 11.1758 11.8485 11.6364C11.8485 12.8485 12.8182 13.8182 14.0303 13.8182C15.2425 13.8182 16.2122 12.8485 16.2122 11.6364C16.2122 11.0303 15.9697 10.497 15.5819 10.1091L18.8546 4.31515C19.0243 4.36364 19.194 4.38788 19.3637 4.38788C20.5758 4.38788 21.5455 3.41818 21.5455 2.20606C21.5455 0.99394 20.5758 0 19.3637 0ZM2.63641 15.0303C1.95762 15.0303 1.42429 14.497 1.42429 13.8182C1.42429 13.1394 1.95762 12.6061 2.63641 12.6061C3.3152 12.6061 3.84853 13.1394 3.84853 13.8182C3.84853 14.497 3.3152 15.0303 2.63641 15.0303ZM7.96974 5.57576C7.96974 4.89697 8.50307 4.36364 9.18186 4.36364C9.86065 4.36364 10.394 4.89697 10.394 5.57576C10.394 6.25455 9.86065 6.78788 9.18186 6.78788C8.50307 6.78788 7.96974 6.25455 7.96974 5.57576ZM14.0303 12.8485C13.3516 12.8485 12.8182 12.3152 12.8182 11.6364C12.8182 10.9576 13.3516 10.4242 14.0303 10.4242C14.7091 10.4242 15.2425 10.9576 15.2425 11.6364C15.2425 12.3152 14.7091 12.8485 14.0303 12.8485ZM19.3637 3.39394C18.6849 3.39394 18.1516 2.86061 18.1516 2.18182C18.1516 1.50303 18.6849 0.969697 19.3637 0.969697C20.0425 0.969697 20.5758 1.50303 20.5758 2.18182C20.5758 2.86061 20.0425 3.39394 19.3637 3.39394Z" fill="white"/>
</svg>
