<svg width="24" height="24" viewBox="0 0 24 24" fill="none" xmlns="http://www.w3.org/2000/svg">
<path d="M18.4 0H5.60001C4.11501 0.00199987 2.69212 0.591999 1.64201 1.64201C0.591999 2.69201 0.0020224 4.11501 0 5.60001V18.4C0.00199987 19.885 0.591999 21.3079 1.64201 22.358C2.69201 23.408 4.11501 23.998 5.60001 24H18.4C19.885 23.998 21.3079 23.408 22.358 22.358C23.408 21.308 23.998 19.885 24 18.4V5.60001C23.998 4.11501 23.408 2.69212 22.358 1.64201C21.308 0.591999 19.885 0.0020224 18.4 0ZM22.4 18.4C22.399 19.46 21.977 20.477 21.227 21.227C20.477 21.977 19.46 22.399 18.4 22.4H5.60001C4.54002 22.399 3.52301 21.977 2.77301 21.227C2.02301 20.477 1.60102 19.46 1.60002 18.4V5.59999C1.60102 4.54 2.02301 3.52299 2.77301 2.77299C3.52301 2.02298 4.54 1.60099 5.60001 1.6H18.4C19.46 1.601 20.477 2.02298 21.227 2.77299C21.977 3.52299 22.399 4.53997 22.4 5.59999V18.4ZM12 6.39999C10.515 6.39999 9.09005 6.98999 8.03994 8.03997C6.98983 9.08995 6.39996 10.515 6.39996 12C6.39996 13.4851 6.98996 14.91 8.03994 15.9601C9.08992 17.0102 10.5149 17.6001 12 17.6001C13.4851 17.6001 14.9099 17.0101 15.9601 15.9601C17.0102 14.9101 17.6 13.4851 17.6 12C17.598 10.515 17.008 9.09213 15.958 8.04202C14.908 6.99201 13.485 6.40201 12 6.39999ZM12 16C10.939 16 9.922 15.579 9.17197 14.828C8.42097 14.078 7.99998 13.061 7.99998 11.9999C7.99998 10.9389 8.42097 9.92195 9.17197 9.17192C9.92198 8.42092 10.939 7.99993 12 7.99993C13.061 7.99993 14.078 8.42092 14.828 9.17192C15.579 9.92192 16 10.9389 16 11.9999C15.999 13.0599 15.577 14.0769 14.827 14.827C14.077 15.577 13.06 15.999 12 16ZM20.1999 5.19986C20.1999 5.76585 19.8589 6.27685 19.3359 6.49286C18.8129 6.70986 18.2099 6.58986 17.8099 6.18986C17.4099 5.78986 17.2899 5.18686 17.5069 4.66387C17.7229 4.14087 18.2339 3.79988 18.7999 3.79988C19.5729 3.79988 20.1999 4.42685 20.1999 5.19986Z" fill="black"/>
</svg>
